<?xml version="1.0" standalone="no"?>
<!DOCTYPE svg PUBLIC "-//W3C//DTD SVG 1.1//EN" "http://www.w3.org/Graphics/SVG/1.1/DTD/svg11.dtd" >
<svg xmlns="http://www.w3.org/2000/svg">
<metadata>
This is a custom SVG webfont generated by Font Squirrel.
</metadata>
<defs>
<font id="webfontbddZOQch" horiz-adv-x="703" >
<font-face units-per-em="1000" ascent="800" descent="-200" />
<missing-glyph horiz-adv-x="225" />
<glyph unicode=" "  horiz-adv-x="225" />
<glyph unicode="&#x09;" horiz-adv-x="225" />
<glyph unicode="&#xa0;" horiz-adv-x="225" />
<glyph unicode="!" horiz-adv-x="303" d="M315 572l-130 -355h-93l35 339zM210 81q0 -38 -27 -65.5t-65 -27.5q-37 0 -64 27.5t-27 65.5q0 37 27 63.5t64 26.5q38 0 65 -26.5t27 -63.5z" />
<glyph unicode="&#x22;" horiz-adv-x="440" d="M390 453h-99l49 256h99zM211 453h-99l49 256h99z" />
<glyph unicode="#" horiz-adv-x="574" d="M583 422h-109l-43 -128h97l-15 -83h-109l-70 -211h-83l70 211h-118l-70 -211h-83l70 211h-94l16 83h105l43 128h-93l16 84h105l67 203h83l-68 -203h119l67 203h83l-68 -203h98zM392 422h-119l-43 -128h118z" />
<glyph unicode="$" horiz-adv-x="535" d="M144 -101l17 89q-123 8 -181 60l26 138h98q0 -59 15.5 -92.5t53.5 -44.5l48 240l-42 18q-124 53 -124 177q0 99 67.5 159.5t180.5 62.5l17 86h55l-18 -88q106 -8 172 -52l-25 -135h-97q0 96 -63 119l-42 -214l38 -16q71 -31 107 -72.5t36 -113.5q0 -109 -72 -169.5 t-195 -64.5l-17 -87h-55zM344 161q0 68 -73 106l-44 -222q53 4 85 33.5t32 82.5zM184 539q0 -62 67 -94l39 198q-48 -2 -77 -30.5t-29 -73.5z" />
<glyph unicode="%" horiz-adv-x="1033" d="M1013 253q0 -117 -66.5 -189.5t-169.5 -72.5q-75 0 -117.5 43t-42.5 121q0 108 63.5 182t172.5 74q76 0 118 -41.5t42 -116.5zM784 37q72 0 102 194q5 37 5 59q0 72 -47 72q-38 0 -65 -53.5t-36 -138.5q-5 -38 -5 -59q0 -74 46 -74zM448 503q0 -117 -67 -189.5 t-170 -72.5q-75 0 -117.5 43t-42.5 121q0 108 64 182t172 74q77 0 119 -41.5t42 -116.5zM219 287q72 0 102 194q5 37 5 59q0 72 -47 72q-39 0 -65.5 -53t-36.5 -139q-4 -29 -4 -57q0 -76 46 -76zM858 730l-611 -853h-73l612 853h72z" />
<glyph unicode="&#x26;" horiz-adv-x="647" d="M550 222q-24 -57 -62 -96l42 -50q17 -20 33 -26.5t43 -6.5l-7 -43h-193l-32 36q-78 -50 -192 -50q-83 0 -133 35.5t-50 95.5q1 125 173 156l-26 30q-43 50 -43 110q1 71 61 114.5t160 43.5q79 0 125 -30t46 -88q0 -101 -159 -153l120 -136q30 36 30 74q0 17 -11.5 23 t-43.5 9l6 40h190l-7 -40q-33 -1 -45.5 -10.5t-24.5 -37.5zM239 45q57 0 103 28l-144 169q-51 -34 -51 -100q0 -45 25 -71t67 -26zM312 330q68 48 68 117q0 66 -62 66q-33 0 -54.5 -17.5t-22.5 -50.5q0 -25 12 -44t46 -56z" />
<glyph unicode="'" horiz-adv-x="261" d="M211 453h-99l49 256h99z" />
<glyph unicode="(" horiz-adv-x="397" d="M290 -122l-38 -36q-86 40 -139 128t-53 219q0 435 374 586l32 -42q-133 -83 -196 -235t-63 -332q0 -206 83 -288z" />
<glyph unicode=")" horiz-adv-x="421" d="M141 740l38 35q86 -40 139 -127t53 -216q0 -439 -374 -590l-32 42q133 83 196 234.5t63 332.5q0 207 -83 289z" />
<glyph unicode="*" horiz-adv-x="460" d="M431 465l-124 -10l7 -129l-62 -16l-46 125l-118 -52l-31 55l98 82l-79 100l42 48l107 -73l67 109l55 -23l-35 -124l125 -30z" />
<glyph unicode="+" horiz-adv-x="584" d="M298 507h80l-39 -201h195l-13 -70h-196l-39 -203h-80l40 203h-194l13 70h194z" />
<glyph unicode="," horiz-adv-x="274" d="M212 60q0 -75 -59 -131.5t-144 -75.5l-22 38q51 15 81.5 39.5t30.5 50.5q0 22 -28 34q-45 21 -45 66q0 35 24.5 58.5t63.5 23.5q46 0 72 -30t26 -73z" />
<glyph unicode="-" horiz-adv-x="354" d="M291 222h-252l23 115h252z" />
<glyph unicode="." horiz-adv-x="275" d="M207 81q0 -39 -27.5 -66.5t-66.5 -27.5q-38 0 -65 27.5t-27 66.5q0 38 27 65t65 27q39 0 66.5 -27t27.5 -65z" />
<glyph unicode="/" horiz-adv-x="392" d="M466 761l-437 -910h-93l436 910h94z" />
<glyph unicode="0" horiz-adv-x="590" d="M552 316q0 -88 -31 -161t-100 -121t-167 -48q-101 0 -158.5 56.5t-57.5 152.5q0 84 30.5 157.5t99 124.5t163.5 51q102 0 161.5 -53.5t59.5 -158.5zM399 369q0 94 -71 94q-58 0 -88 -67q-24 -50 -38.5 -124t-14.5 -137q0 -85 70 -85q55 0 86 62q56 110 56 257z" />
<glyph unicode="1" horiz-adv-x="408" d="M358 515l-84 -391q-5 -23 -5 -36q0 -23 17 -32t63 -11l-9 -45h-341l9 45q65 3 85 18.5t31 66.5l58 273q-59 -28 -119 -43l-10 48l206 107h99z" />
<glyph unicode="2" horiz-adv-x="472" d="M268 528q86 0 130.5 -37t44.5 -102q0 -43 -18.5 -79.5t-60 -70t-83.5 -58.5t-111 -60l-36 -19h287l-36 -102h-407l16 77l110 73q96 65 136 107.5t40 103.5q0 72 -72 72q-67 0 -135 -61l-32 51q38 46 96.5 75.5t130.5 29.5z" />
<glyph unicode="3" horiz-adv-x="454" d="M191 439q-74 0 -138 -56l-31 49q88 96 226 96q84 0 128.5 -40t44.5 -111q0 -67 -45.5 -109.5t-119.5 -64.5q59 -7 92 -42t33 -85q0 -65 -32.5 -114t-86 -75t-111.5 -38.5t-119 -12.5q-70 0 -119 18l-16 59q61 -14 112 -14q102 0 159.5 45.5t57.5 133.5q0 89 -102 89 q-18 0 -50 -2l15 70q32 -2 54 -2q59 0 94 32t35 95q0 79 -81 79z" />
<glyph unicode="4" horiz-adv-x="568" d="M237 -179l40 187h-296l15 67l310 440h150l-353 -441h188q19 88 42.5 145.5t63.5 114.5l106 16l-58 -276h80l-14 -66h-80l-36 -168z" />
<glyph unicode="5" horiz-adv-x="451" d="M397 102q0 -65 -29.5 -117.5t-79.5 -84t-111.5 -48t-129.5 -16.5q-67 0 -120 20l-10 57q51 -15 106 -15q35 0 70 9t69.5 28t56 56.5t21.5 87.5q0 99 -97 99q-68 0 -118 -21l105 356h338l-41 -121h-261l-45 -151q39 15 105 15q82 0 126.5 -42t44.5 -112z" />
<glyph unicode="6" horiz-adv-x="572" d="M544 693l7 -53q-247 -90 -330 -265q63 48 150 48q65 0 113 -45.5t48 -122.5q0 -127 -74.5 -198t-201.5 -71q-107 0 -164 56t-57 159q0 100 38.5 183t108.5 142.5t160.5 101t201.5 65.5zM382 238q0 109 -75 109q-56 0 -107 -34q-24 -59 -24 -138q0 -57 19 -94.5t62 -37.5 q60 0 92.5 58t32.5 137z" />
<glyph unicode="7" horiz-adv-x="465" d="M489 513l-41 -113q-202 -212 -303 -543l-165 -27q59 158 159.5 302.5t219.5 256.5h-330l41 124h419z" />
<glyph unicode="8" horiz-adv-x="558" d="M547 539q0 -125 -163 -168q69 -40 99 -79t30 -99q0 -96 -73 -151.5t-192 -55.5q-112 0 -173.5 43t-61.5 113q0 72 48 114t129 68q-45 29 -66.5 64.5t-21.5 87.5q0 93 68 148.5t173 55.5q93 0 148.5 -38.5t55.5 -102.5zM371 148q0 41 -28.5 71t-110.5 77q-84 -63 -84 -145 q0 -50 27 -78.5t78 -28.5q57 0 87.5 29t30.5 75zM421 539q0 37 -21.5 59t-65.5 22q-43 0 -68.5 -27.5t-25.5 -73.5q0 -61 96 -118q85 45 85 138z" />
<glyph unicode="9" horiz-adv-x="575" d="M540 311q0 -140 -70 -244.5t-188 -164t-278 -82.5l-27 49q132 34 233 102t142 156q-64 -42 -142 -42q-75 0 -123.5 45t-48.5 130q0 119 75.5 193.5t197.5 74.5q110 0 169.5 -58.5t59.5 -158.5zM374 193q22 52 22 128q0 62 -21.5 103.5t-68.5 41.5q-40 0 -68 -29 t-39.5 -71.5t-11.5 -93.5q0 -112 80 -112q60 0 107 33z" />
<glyph unicode=":" horiz-adv-x="303" d="M213 81q0 -39 -27.5 -66.5t-66.5 -27.5q-38 0 -65 27.5t-27 66.5q0 38 27 65t65 27q39 0 66.5 -27t27.5 -65zM266 373q0 -39 -27.5 -66.5t-66.5 -27.5q-38 0 -65 27.5t-27 66.5q0 38 27 65.5t65 27.5q39 0 66.5 -27.5t27.5 -65.5z" />
<glyph unicode=";" horiz-adv-x="299" d="M262 373q0 -39 -27.5 -66.5t-65.5 -27.5q-39 0 -66 27.5t-27 66.5q0 38 27 65.5t66 27.5q38 0 65.5 -27.5t27.5 -65.5zM215 60q0 -75 -59 -131.5t-144 -75.5l-22 38q51 15 81.5 39.5t30.5 50.5q0 22 -28 34q-45 21 -45 66q0 35 24.5 58.5t63.5 23.5q46 0 72 -30t26 -73z " />
<glyph unicode="&#x3c;" horiz-adv-x="537" d="M403 47l-334 201l16 82l419 235l-18 -94l-330 -182l263 -161z" />
<glyph unicode="=" horiz-adv-x="613" d="M52 159l14 71h466l-14 -71h-466zM82 315l14 72h467l-15 -72h-466z" />
<glyph unicode="&#x3e;" horiz-adv-x="530" d="M35 47l16 89l325 161l-258 182l17 86l328 -235l-16 -82z" />
<glyph unicode="?" horiz-adv-x="452" d="M175 212q-19 20 -19 54q0 48 70 95q38 24 56.5 43.5t18.5 45.5q0 54 -51 54q-63 0 -78 -78h-103l18 95q81 51 195 51q177 0 177 -117q0 -63 -39 -97t-116 -59q-60 -19 -68 -57q-2 -10 -2 -21v-9h-59zM283 81q0 -39 -28 -66.5t-66 -27.5t-65 27.5t-27 66.5q0 37 27 64 t65 27t66 -27t28 -64z" />
<glyph unicode="@" horiz-adv-x="907" d="M601 7q-70 0 -100.5 22t-30.5 68q-26 -45 -59 -68.5t-83 -23.5q-51 0 -79.5 32.5t-28.5 93.5q0 130 84 225t207 95q102 0 156 -33q-17 -46 -27 -92l-44 -201q-4 -17 -4 -32q0 -36 47 -36q57 0 96 58t39 168q0 148 -79.5 221.5t-217.5 73.5q-155 0 -250.5 -103.5 t-95.5 -281.5q0 -145 81.5 -233.5t222.5 -88.5q89 0 161 24l15 -36q-88 -35 -188 -35q-169 0 -275 97.5t-106 272.5q0 189 124 310t313 121q175 0 281 -94t106 -249q0 -138 -76 -206.5t-189 -68.5zM484 181l48 199q-15 16 -39 16q-62 0 -104.5 -81.5t-42.5 -174.5 q0 -56 35 -56q41 0 103 97z" />
<glyph unicode="A" horiz-adv-x="648" d="M394 101l-10 86h-213l-39 -80q-10 -23 -10 -33q0 -27 55 -28l-9 -46h-221l8 46q35 4 52.5 16.5t37.5 50.5l300 582h125l87 -582q6 -38 16.5 -50.5t39.5 -16.5l-9 -46h-284l8 46q39 1 53 10t14 31q0 5 -1 14zM301 452l-94 -191h167l-21 183q-5 39 -5 84v15h-6 q-5 -14 -41 -91z" />
<glyph unicode="B" horiz-adv-x="641" d="M117 695h307q211 0 211 -156q0 -79 -52 -127t-133 -54v-4q75 -7 115 -45.5t40 -97.5q0 -128 -118 -179q-47 -20 -91.5 -26t-116.5 -6h-297l8 46q41 0 58.5 14.5t25.5 56.5l89 458q4 20 4 31q0 23 -13.5 31.5t-45.5 9.5zM283 387h44q72 0 102 28q42 40 42 121 q0 52 -22.5 70t-74.5 18h-45zM343 318h-73l-49 -251h54q85 0 117 23q49 36 49 129q0 53 -22.5 76t-75.5 23z" />
<glyph unicode="C" horiz-adv-x="617" d="M318 -14q-135 0 -201.5 70.5t-66.5 201.5q0 88 26.5 168t75.5 142.5t125.5 100t169.5 37.5q125 0 196 -51l-27 -135h-107q-2 63 -17.5 89.5t-60.5 26.5q-69 0 -119 -60.5t-73.5 -153.5t-23.5 -204q0 -89 28.5 -125.5t85.5 -36.5q53 0 84 29t53 92h108l-27 -138 q-35 -23 -99.5 -38t-129.5 -15z" />
<glyph unicode="D" horiz-adv-x="697" d="M-18 0l8 46q41 0 58.5 14.5t25.5 56.5l89 458q4 18 4 31q0 23 -13.5 31.5t-45.5 9.5l9 48h277q136 0 207 -66t71 -194q0 -221 -120 -347q-84 -88 -258 -88h-312zM377 625h-47l-108 -558h48q56 0 93 13.5t65 53.5q33 49 55.5 143t22.5 191q0 86 -27 121.5t-102 35.5z" />
<glyph unicode="E" horiz-adv-x="593" d="M-18 0l8 46q41 0 58.5 14.5t25.5 56.5l89 458q4 20 4 31q0 23 -13.5 31.5t-45.5 9.5l9 48h500l-21 -169h-74q-6 61 -20 79.5t-65 18.5h-108l-46 -238h61q47 0 66 14t30 57h66l-41 -209h-66q2 14 2 23q0 27 -15 37.5t-54 10.5h-62l-49 -252h123q51 0 76.5 24t44.5 92h76 l-35 -183h-524z" />
<glyph unicode="F" horiz-adv-x="565" d="M269 314l-38 -196q-3 -16 -3 -29q0 -25 16 -34t58 -9l-8 -46h-312l8 46q41 0 58.5 14.5t25.5 56.5l89 458q4 22 4 31q0 23 -13.5 31.5t-45.5 9.5l9 48h499l-21 -171h-74q-7 63 -21.5 81.5t-66.5 18.5h-104l-47 -243h59q47 0 66 14t30 57h66l-41 -210h-66q2 14 2 24 q0 26 -15 37t-54 11h-60z" />
<glyph unicode="G" horiz-adv-x="691" d="M340 54q50 0 82 20l30 156q4 20 4 31q0 23 -15.5 31.5t-55.5 9.5l10 47h296l-10 -47q-38 -1 -54.5 -15.5t-24.5 -56.5l-37 -190q-44 -25 -106 -39.5t-119 -14.5q-290 0 -290 272q0 86 25.5 164.5t74.5 142.5t128.5 102.5t178.5 38.5q131 0 206 -51l-27 -135h-105 q-1 62 -20 88.5t-70 26.5q-106 0 -166 -119t-60 -299q0 -86 31 -124.5t94 -38.5z" />
<glyph unicode="H" horiz-adv-x="750" d="M712 575l-89 -458q-8 -42 3.5 -56.5t51.5 -14.5l-8 -46h-295l8 46q40 0 57.5 14.5t25.5 56.5l39 202h-235l-39 -202q-8 -42 3.5 -56.5t51.5 -14.5l-8 -46h-296l8 46q41 0 58.5 14.5t25.5 56.5l89 458q8 42 -3.5 56.5t-51.5 15.5l9 48h295l-9 -48q-40 -1 -57.5 -15.5 t-25.5 -56.5l-36 -181h235l36 181q8 42 -3.5 56.5t-51.5 15.5l9 48h295l-9 -48q-40 -1 -57.5 -15.5t-25.5 -56.5z" />
<glyph unicode="I" horiz-adv-x="358" d="M320 575l-89 -458q-8 -42 3.5 -56.5t51.5 -14.5l-8 -46h-296l8 46q41 0 58.5 14.5t25.5 56.5l89 458q4 20 4 31q0 23 -13.5 31.5t-45.5 9.5l9 48h295l-9 -48q-40 -1 -57.5 -15.5t-25.5 -56.5z" />
<glyph unicode="J" horiz-adv-x="357" d="M321 575l-93 -480q-24 -120 -93 -175t-205 -67l-15 47q79 25 108.5 66.5t47.5 133.5l93 475q4 18 4 31q0 23 -13.5 31.5t-45.5 9.5l9 48h295l-9 -48q-40 -1 -57.5 -15.5t-25.5 -56.5z" />
<glyph unicode="K" horiz-adv-x="665" d="M602 576l-171 -175l131 -306q12 -26 28.5 -36.5t48.5 -12.5l-8 -46h-204l-135 347l222 240q19 20 19 36q0 25 -39 25l9 47h225l-9 -47q-31 -4 -54 -18.5t-63 -53.5zM320 575l-89 -458q-4 -24 -4 -31q0 -23 13.5 -31.5t45.5 -8.5l-8 -46h-296l8 46q41 0 58.5 14.5 t25.5 56.5l89 458q4 22 4 31q0 23 -13.5 31.5t-45.5 9.5l9 48h295l-9 -48q-40 -1 -57.5 -15.5t-25.5 -56.5z" />
<glyph unicode="L" horiz-adv-x="561" d="M221 67h93q50 0 82.5 27.5t59.5 97.5h77l-52 -192h-499l8 46q41 0 58.5 14.5t25.5 56.5l89 458q8 42 -3.5 56.5t-51.5 15.5l9 48h296l-8 -48q-42 -1 -59.5 -15.5t-25.5 -56.5z" />
<glyph unicode="M" horiz-adv-x="889" d="M928 695l-9 -47q-51 -3 -66.5 -18.5t-21.5 -57.5l-57 -448q-5 -45 5 -61t51 -17l-8 -46h-293l8 46q47 1 61 14.5t20 56.5l43 315q9 70 22 137h-6q-22 -65 -56 -135l-217 -434h-92l-38 417q-4 44 -4 100q0 15 0.5 33t0.5 19h-6q-12 -78 -30 -142l-86 -309q-7 -26 -7 -37 q0 -19 14 -27t47 -8l-9 -46h-224l8 46q42 1 58.5 16.5t29.5 61.5l124 448q7 22 7 40t-14.5 26t-50.5 10l9 47h258l29 -353q5 -58 5 -103q0 -12 -0.5 -26t-0.5 -15h6q13 55 50 135l173 362h267z" />
<glyph unicode="N" horiz-adv-x="698" d="M558 0h-99l-170 386q-46 102 -51 167h-6q-9 -105 -22 -171l-51 -265q-4 -20 -4 -31q0 -23 13 -31.5t45 -8.5l-8 -46h-223l8 46q41 0 58.5 14.5t25.5 56.5l89 458q4 24 4 31q0 23 -13.5 31.5t-45.5 9.5l9 48h217l146 -337q33 -76 37 -141h6q4 62 23 159l39 199q4 22 4 31 q0 23 -13.5 31.5t-45.5 9.5l9 48h219l-8 -48q-39 -1 -56 -15.5t-25 -56.5z" />
<glyph unicode="O" d="M679 423q0 -63 -13 -124t-41.5 -118t-70 -100t-102 -69t-133.5 -26q-130 0 -199.5 77.5t-69.5 206.5q0 61 13.5 121.5t42.5 117.5t70.5 100.5t101.5 70t131 26.5q125 0 197.5 -74t72.5 -209zM513 472q0 85 -23.5 124.5t-80.5 39.5q-72 0 -111 -63q-42 -67 -62.5 -167 t-20.5 -194q0 -159 103 -159q72 0 113 63q40 60 61 162.5t21 193.5z" />
<glyph unicode="P" horiz-adv-x="610" d="M260 267l-29 -149q-3 -16 -3 -29q0 -25 16 -34t58 -9l-8 -46h-312l8 46q41 0 58.5 14.5t25.5 56.5l89 458q4 24 4 31q0 23 -13.5 31.5t-45.5 9.5l9 48h282q121 0 179 -43.5t58 -141.5q0 -74 -35.5 -131t-103.5 -86q-59 -26 -163 -26h-74zM475 513q0 58 -22.5 84.5 t-76.5 26.5h-47l-55 -283h47q68 0 101 28q53 45 53 144z" />
<glyph unicode="Q" d="M679 423q0 -97 -30 -185t-98.5 -156t-165.5 -85q100 -31 181 -31q45 0 80 8l-44 -112q-27 -15 -84 -15q-35 0 -70 12.5t-56.5 26.5t-57.5 41t-53 38q-15 10 -73 38t-84 55q-74 77 -74 214q0 60 13.5 120.5t42.5 117t70.5 100t102 70t131.5 26.5q125 0 197 -74t72 -209z M513 472q0 85 -23.5 124.5t-80.5 39.5q-72 0 -111 -63q-42 -67 -62.5 -167t-20.5 -194q0 -159 102 -159q38 0 64 13.5t50 49.5q40 61 61 163.5t21 192.5z" />
<glyph unicode="R" horiz-adv-x="656" d="M329 624l-50 -262h52q69 0 106.5 44t37.5 120q0 53 -23.5 75.5t-77.5 22.5h-45zM265 292l-34 -175q-4 -24 -4 -31q0 -23 13.5 -31.5t45.5 -8.5l-8 -46h-296l8 46q41 0 58.5 14.5t25.5 56.5l89 458q4 20 4 31q0 23 -13.5 31.5t-45.5 9.5l9 48h291q228 0 228 -167 q0 -96 -61 -150.5t-162 -65.5v-4q64 -20 93 -71q23 -39 54 -133q11 -32 23.5 -45t41.5 -13l-8 -46h-193q-36 130 -63 207q-17 47 -37 63.5t-59 21.5z" />
<glyph unicode="S" horiz-adv-x="537" d="M235 45q54 0 86.5 29.5t32.5 86.5q0 43 -20 68t-69 47l-64 29q-121 55 -121 180q0 102 70 161.5t184 59.5q130 0 210 -54l-26 -135h-98v8q0 60 -23.5 89t-76.5 29q-50 0 -79.5 -28t-29.5 -74q0 -38 21 -61.5t60 -41.5l66 -29q70 -31 106 -72.5t36 -116.5q0 -110 -75 -172 t-199 -62q-83 0 -141.5 18.5t-86.5 43.5l25 138h102v-9q0 -66 25.5 -99t84.5 -33z" />
<glyph unicode="T" horiz-adv-x="615" d="M104 695h558l-28 -185h-75q-2 70 -12.5 92t-55.5 22h-42l-98 -507q-3 -18 -3 -30q0 -24 14.5 -32.5t51.5 -8.5l-8 -46h-312l8 46q46 0 65 14.5t27 56.5l98 507h-43q-46 0 -66 -22t-48 -92h-75z" />
<glyph unicode="U" horiz-adv-x="685" d="M353 68q65 0 103 40t54 123l66 344q4 20 4 32q0 22 -13.5 30.5t-46.5 9.5l9 48h220l-9 -48q-39 -1 -56 -15.5t-25 -56.5l-67 -349q-24 -120 -87.5 -180t-177.5 -60q-242 0 -245 184q0 40 9 91l61 314q8 42 -3.5 56.5t-51.5 15.5l9 48h295l-8 -48q-41 -1 -58.5 -15.5 t-25.5 -56.5l-63 -324q-9 -48 -9 -83q1 -51 28.5 -75.5t87.5 -24.5z" />
<glyph unicode="V" horiz-adv-x="662" d="M295 588l36 -323q6 -58 6 -116h6q12 36 53 118l161 321q10 20 10 31q0 27 -54 28l9 48h223l-10 -48q-35 -5 -51 -16t-36 -49l-307 -582h-126l-82 581q-5 38 -15 50t-39 16l9 48h283l-9 -48q-39 -1 -54.5 -15.5t-12.5 -43.5z" />
<glyph unicode="W" horiz-adv-x="927" d="M635 695l19 -408q1 -21 1 -69q0 -64 -1 -74h6q17 66 49 145l115 294q8 22 8 33q0 17 -12.5 23.5t-41.5 7.5l8 48h223l-8 -48q-35 -5 -53 -18.5t-34 -51.5l-244 -577h-147l-17 329q-1 17 -1 55q0 57 3 90h-6q-19 -72 -47 -137l-146 -337h-149l-28 581q-2 38 -12.5 50 t-40.5 16l9 48h279l-9 -48q-37 -1 -52.5 -13.5t-15.5 -40.5v-3l9 -304v-18q0 -65 -4 -125h6q16 63 50 145l167 407h117z" />
<glyph unicode="X" horiz-adv-x="671" d="M602 584l-178 -206l115 -267q15 -35 30.5 -48t44.5 -17l-8 -46h-291l8 46q56 0 56 35q0 13 -6 28l-68 166h-5l-127 -161q-51 -66 25 -68l-8 -46h-221l8 46q31 4 53 18t51 51l190 233l-101 238q-15 34 -28 45.5t-39 15.5l10 48h280l-9 -48q-56 -1 -56 -33q0 -11 6 -26 l56 -142h6l109 138q20 26 20 41q0 21 -41 22l9 48h218l-8 -48q-31 -4 -52 -17t-49 -46z" />
<glyph unicode="Y" horiz-adv-x="627" d="M207 117l28 144l-93 322q-10 36 -23 48t-40 16l9 48h271l-9 -48q-65 -1 -48 -64l59 -238h5l148 239q14 23 14 37q0 25 -45 26l9 48h217l-8 -48q-31 -4 -48 -15.5t-41 -46.5l-219 -322l-28 -146q-8 -43 4.5 -57t58.5 -14l-8 -46h-312l8 46q46 0 65 14.5t26 56.5z" />
<glyph unicode="Z" horiz-adv-x="571" d="M-23 0l10 56l433 574h-121q-48 0 -75.5 -25.5t-55.5 -87.5h-78l45 178h484l-11 -56l-430 -572h138q56 0 87 26.5t60 96.5h75l-48 -190h-513z" />
<glyph unicode="[" horiz-adv-x="373" d="M263 -155h-245l181 928h245l-11 -56h-106l-159 -816h106z" />
<glyph unicode="\" horiz-adv-x="438" d="M379 -149h-90l-173 910h90z" />
<glyph unicode="]" horiz-adv-x="373" d="M128 773h245l-181 -928h-245l11 56h106l159 816h-106z" />
<glyph unicode="^" horiz-adv-x="556" d="M513 310h-100l-80 291l-189 -291h-105l266 398h96z" />
<glyph unicode="_" horiz-adv-x="496" d="M498 -125h-500v73h500v-73z" />
<glyph unicode="`" horiz-adv-x="472" d="M360 593l-25 -35l-240 96l77 125z" />
<glyph unicode="a" horiz-adv-x="606" d="M352 104l-6 47h-194l-25 -47q-11 -20 -11 -33q0 -27 50 -27l-8 -44h-207l8 44q33 2 48.5 14.5t37.5 51.5l261 449h117l79 -448q7 -40 16.5 -53t37.5 -14l-8 -44h-265l9 44q61 0 61 46q0 7 -1 14zM241 304l-52 -89h145l-15 91q-12 72 -12 123h-6q-22 -61 -60 -125z" />
<glyph unicode="b" horiz-adv-x="611" d="M-9 0l8 44q40 1 56 15t24 57l63 323q4 22 4 33q0 22 -12.5 30.5t-43.5 8.5l9 48h301q174 0 174 -125q0 -64 -41 -100.5t-107 -46.5v-4q59 -8 93.5 -37.5t34.5 -76.5q0 -103 -97 -145q-56 -24 -170 -24h-296zM270 312h37q61 0 85 23q31 27 31 96q0 35 -18 48t-61 13h-39z M321 252h-63l-37 -189h46q70 0 97 19q38 27 38 95q0 39 -19 57t-62 18z" />
<glyph unicode="c" horiz-adv-x="570" d="M279 -14q-116 0 -179 61t-63 167q0 148 88.5 252.5t247.5 104.5q109 0 180 -43l-27 -127h-99q0 59 -13.5 84t-54.5 25q-77 0 -121.5 -94.5t-44.5 -229.5q0 -75 24 -107.5t71 -32.5q44 0 69 25.5t43 85.5h100l-24 -126q-31 -21 -86.5 -33t-110.5 -12z" />
<glyph unicode="d" horiz-adv-x="650" d="M-9 0l8 44q40 1 56 15t24 57l63 323q4 20 4 33q0 22 -12.5 30.5t-43.5 8.5l9 48h265q115 0 179 -55t64 -157q0 -170 -92 -270q-73 -77 -241 -77h-283zM343 496h-37l-86 -437h37q51 0 81.5 12t51.5 42q59 87 59 266q0 62 -25.5 89.5t-80.5 27.5z" />
<glyph unicode="e" horiz-adv-x="567" d="M-9 0l8 44q40 1 56 15t24 57l63 323q4 21 4 33q0 22 -12.5 30.5t-43.5 8.5l9 48h465l-20 -159h-68q-4 57 -17.5 73.5t-59.5 16.5h-96l-33 -174h31q42 0 54 7.5t21 42.5h63l-30 -162h-63q4 36 -5.5 43.5t-50.5 7.5h-32l-38 -190h101q52 0 76.5 21t44.5 89h71l-34 -175 h-488z" />
<glyph unicode="f" horiz-adv-x="542" d="M255 238l-24 -122q-3 -18 -3 -30q0 -23 14.5 -32t50.5 -10l-8 -44h-294l8 44q40 1 56 15t24 57l63 323q4 21 4 33q0 22 -12.5 30.5t-43.5 8.5l9 48h468l-20 -159h-68q-4 57 -17.5 73.5t-59.5 16.5h-99l-36 -192h34q42 0 55 9t23 49h62l-33 -176h-62q5 39 -5.5 48.5 t-51.5 9.5h-34z" />
<glyph unicode="g" horiz-adv-x="612" d="M360 61l19 96q9 43 -1 57.5t-50 14.5l9 48h265l-8 -48q-37 0 -48 -13.5t-20 -59.5l-24 -122q-78 -48 -217 -48q-122 0 -185 60.5t-63 167.5q0 93 38 173t118 132t187 52q120 0 188 -43l-27 -127h-99q-1 62 -16 85.5t-57 23.5q-80 0 -127.5 -95t-47.5 -239q0 -70 24 -100 t72 -30q40 0 70 15z" />
<glyph unicode="h" horiz-adv-x="712" d="M642 439l-63 -323q-4 -18 -4 -33q0 -21 12.5 -29.5t42.5 -9.5l-8 -44h-284l8 44q40 1 56 15t24 57l26 132h-195l-26 -132q-4 -17 -4 -33q0 -22 12 -30t44 -9l-8 -44h-284l8 44q40 1 56 15t24 57l63 323q4 17 4 33q0 22 -12.5 30.5t-43.5 8.5l9 48h284l-9 -48 q-40 0 -56 -14.5t-24 -57.5l-24 -122h195l24 122q4 18 4 33q0 23 -12 31t-43 8l8 48h284l-8 -48q-40 0 -56 -14.5t-24 -57.5z" />
<glyph unicode="i" horiz-adv-x="365" d="M294 439l-63 -323q-4 -17 -4 -33q0 -22 12 -30t44 -9l-8 -44h-284l8 44q40 1 56 15t24 57l63 323q4 20 4 33q0 22 -12.5 30.5t-43.5 8.5l9 48h284l-9 -48q-40 0 -56 -14.5t-24 -57.5z" />
<glyph unicode="j" horiz-adv-x="362" d="M79 116l63 323q4 17 4 33q0 22 -12.5 30.5t-43.5 8.5l9 48h284l-9 -48q-40 0 -56 -14.5t-24 -57.5l-63 -323q-25 -127 -86.5 -183.5t-205.5 -68.5l-14 47q81 26 107.5 64t46.5 141z" />
<glyph unicode="k" horiz-adv-x="640" d="M545 456l-128 -127l103 -227q14 -30 33.5 -42.5t52.5 -14.5l-8 -45h-205l-112 280l165 171q25 25 25 41q0 19 -39 19l9 48h220l-9 -48q-36 -4 -58.5 -16t-48.5 -39zM294 439l-63 -323q-4 -17 -4 -33q0 -22 12 -30t44 -9l-8 -44h-284l8 44q40 1 56 15t24 57l63 323 q4 20 4 33q0 22 -12.5 30.5t-43.5 8.5l9 48h284l-9 -48q-40 0 -56 -14.5t-24 -57.5z" />
<glyph unicode="l" horiz-adv-x="542" d="M294 439l-72 -374h80q51 0 77 24.5t45 95.5h71l-35 -185h-469l8 44q40 1 56 15t24 57l63 323q4 20 4 33q0 22 -12.5 30.5t-43.5 8.5l9 48h284l-9 -48q-40 0 -56 -14.5t-24 -57.5z" />
<glyph unicode="m" horiz-adv-x="808" d="M809 559l-8 -48q-41 -2 -53.5 -13.5t-17.5 -47.5l-45 -343q-4 -35 8 -48t50 -15l-9 -44h-272l9 44q39 1 50 11.5t16 45.5l31 231q4 30 23 123h-6q-17 -56 -51 -123l-166 -332h-98l-31 329q-4 40 -4 103v23h-6q-11 -75 -26 -123l-67 -230q-5 -18 -5 -28q0 -16 11.5 -22.5 t39.5 -7.5l-8 -44h-205l8 44q38 1 53 13.5t26 49.5l100 342q6 19 6 31q0 16 -12 22.5t-42 8.5l8 48h240l26 -274q3 -36 3 -81q0 -12 -1 -27v-15h6q13 52 42 114l134 283h243z" />
<glyph unicode="n" horiz-adv-x="632" d="M473 307l26 132q4 22 4 34q0 22 -12.5 30t-42.5 8l8 48h208l-9 -48q-40 0 -56 -14.5t-24 -57.5l-86 -439h-87l-148 283q-36 70 -45 128h-6q-5 -79 -14 -128l-30 -167q-4 -21 -4 -33q0 -22 12 -30t43 -9l-8 -44h-211l8 44q40 1 56 15t24 57l63 323q4 20 4 33 q0 22 -12.5 30.5t-43.5 8.5l9 48h197l117 -255q28 -59 37 -110h6q4 50 17 113z" />
<glyph unicode="o" horiz-adv-x="630" d="M585 329q0 -150 -84.5 -246.5t-226.5 -96.5q-107 0 -172 65t-65 175q0 150 85 247.5t226 97.5q104 0 170.5 -63t66.5 -179zM430 400q0 51 -22 78t-61 27q-65 0 -99 -69q-58 -121 -58 -273q0 -54 21.5 -83.5t63.5 -29.5q62 0 95 62q26 51 43 132t17 156z" />
<glyph unicode="p" horiz-adv-x="587" d="M424 403q0 47 -22.5 67t-68.5 20h-28l-45 -229h28q64 0 89 19q47 34 47 123zM99 559h262q102 0 158.5 -35.5t56.5 -127.5q0 -129 -119 -179q-57 -24 -150 -24h-60l-16 -77q-3 -16 -3 -30q0 -23 14.5 -32t50.5 -10l-8 -44h-294l8 44q40 1 56 15t24 57l63 323q4 20 4 33 q0 22 -12.5 30.5t-43.5 8.5z" />
<glyph unicode="q" horiz-adv-x="629" d="M585 329q0 -126 -69.5 -218.5t-185.5 -111.5q88 -31 171 -31q40 0 71 8l-40 -105q-22 -15 -75 -15q-50 0 -92 23.5t-94 63.5t-99 61q-135 62 -135 222q0 148 89 246.5t227 98.5q104 0 168 -62.5t64 -179.5zM430 400q0 51 -22 78t-61 27q-65 0 -99 -69q-26 -55 -42 -130.5 t-16 -144.5q0 -54 22 -84t63 -30q61 0 95 63q27 50 43.5 132t16.5 158z" />
<glyph unicode="r" horiz-adv-x="632" d="M436 413q0 43 -22 60t-68 17h-42l-38 -197h42q64 0 96 28.5t32 91.5zM391 249v-3q66 -13 92 -61q22 -40 43 -100q8 -23 20.5 -31.5t41.5 -9.5l-7 -44h-192q-23 100 -46 161q-15 41 -34 54.5t-56 15.5l-22 -115q-3 -18 -3 -30q0 -23 14.5 -32t50.5 -10l-8 -44h-294l8 44 q40 1 56 15t24 57l63 323q4 22 4 33q0 22 -12.5 30.5t-43.5 8.5l9 48h288q200 0 200 -147q0 -99 -100 -143q-43 -19 -96 -20z" />
<glyph unicode="s" horiz-adv-x="505" d="M206 -14q-133 0 -201 53l20 117h99q0 -55 20 -81.5t72 -26.5q47 0 74.5 20t27.5 60q0 31 -17 48t-65 36l-50 20q-57 23 -87.5 57.5t-30.5 93.5q0 90 65 139t161 49q102 0 185 -43l-19 -117h-97q0 47 -17 72.5t-62 25.5q-41 0 -66.5 -20.5t-25.5 -57.5q0 -24 14 -40 t51 -31l49 -20q76 -30 109 -63.5t33 -93.5q0 -95 -66 -146t-176 -51z" />
<glyph unicode="t" horiz-adv-x="579" d="M415 492l-74 -376q-8 -42 4 -56.5t56 -15.5l-8 -44h-301l8 44q44 1 62 15t26 57l75 376h-31q-47 0 -67 -22.5t-48 -91.5h-72l44 181h523l-28 -181h-72q-1 31 -2 45t-4 31t-10 23t-19 10.5t-31 4.5h-31z" />
<glyph unicode="u" horiz-adv-x="641" d="M467 219l43 220q4 21 4 33q0 22 -12.5 30.5t-43.5 8.5l9 48h208l-9 -48q-40 0 -56 -14.5t-24 -57.5l-44 -219q-12 -63 -28.5 -104t-45.5 -72t-73 -44.5t-108 -13.5q-212 0 -212 161q0 41 9 91l39 201q4 23 4 33q0 22 -12.5 30.5t-43.5 8.5l9 48h284l-9 -48 q-40 0 -56 -14.5t-24 -57.5l-40 -210q-10 -50 -10 -73q0 -95 98 -95q65 0 95.5 37.5t48.5 120.5z" />
<glyph unicode="v" horiz-adv-x="591" d="M261 451l28 -211q8 -61 8 -103h6q21 51 50 105l115 209q10 19 10 32q0 28 -49 28l9 48h209l-9 -48q-33 -4 -48.5 -15.5t-37.5 -50.5l-252 -445h-118l-73 444q-6 39 -15.5 51t-38.5 16l9 48h266l-9 -48q-61 0 -61 -45q0 -8 1 -15z" />
<glyph unicode="w" horiz-adv-x="820" d="M553 559l15 -321q2 -38 2 -58q0 -14 -0.5 -31.5t-0.5 -18.5h6q21 69 36 107l92 225q6 16 6 26q0 13 -10.5 18t-34.5 6l7 47h200l-7 -47q-31 -3 -48.5 -13.5t-30.5 -39.5l-199 -459h-140l-15 263q-1 14 -1 42q0 47 2 63h-6q-17 -62 -36 -105l-115 -263h-148l-25 460 q-1 29 -12 39t-36 13l7 47h257l-7 -47q-62 -2 -62 -42v-2l9 -232v-21q0 -17 -0.5 -37t-1 -34t-0.5 -15h6q13 49 38 107l133 323h120z" />
<glyph unicode="x" horiz-adv-x="581" d="M520 468l-152 -164l93 -212q13 -27 26.5 -37.5t38.5 -12.5l-7 -42h-262l7 42q30 1 40 13t1 33l-53 127h-4l-112 -128q-11 -12 -11 -23q0 -20 40 -22l-8 -42h-202l7 42q28 1 46 11t41 35l172 192l-84 190q-10 23 -20.5 31.5t-34.5 9.5l6 48h255l-6 -48q-44 0 -44 -27 q0 -10 4 -19l42 -98h4l87 101q16 17 16 28q0 16 -36 17l7 46h191l-7 -46q-45 -6 -81 -45z" />
<glyph unicode="y" horiz-adv-x="569" d="M180 116l20 101l-83 230q-13 37 -25 49.5t-38 16.5l9 46h265l-9 -46q-51 -1 -51 -37q0 -10 6 -29l49 -152h6l110 152q18 25 18 41q0 23 -48 25l9 46h211l-9 -46q-29 -4 -46 -17t-47 -52l-174 -224l-21 -104q-3 -18 -3 -30q0 -23 14.5 -32t49.5 -10l-8 -44h-302l8 44 q45 1 63 15t26 57z" />
<glyph unicode="z" horiz-adv-x="522" d="M-16 0l8 57l359 434h-108q-21 0 -35.5 -5.5t-26.5 -21.5t-19 -29t-21 -43h-70l39 167h429l-11 -57l-362 -435h118q52 0 77 24t51 84h70l-45 -175h-453z" />
<glyph unicode="{" horiz-adv-x="388" d="M28 284l9 49q54 0 84.5 21t39.5 70l41 210q28 139 166 139h94l-10 -50h-31q-75 0 -93 -95l-36 -186q-7 -36 -22 -62t-33 -40t-33 -20.5t-29 -8.5l-1 -4q26 -4 48 -25.5t22 -66.5q0 -18 -4 -37l-36 -188q-4 -24 -4 -35q0 -60 60 -60h32l-11 -50h-94q-117 0 -117 97 q0 18 5 43l41 208q3 15 3 27q0 64 -91 64z" />
<glyph unicode="|" horiz-adv-x="265" d="M103 -149h-88l176 910h88z" />
<glyph unicode="}" horiz-adv-x="398" d="M380 334l-10 -49q-54 0 -83.5 -21t-39.5 -70l-41 -209q-28 -140 -166 -140h-95l11 50h30q75 0 94 95l36 186q7 36 21.5 62t32.5 40t33 20.5t29 8.5l1 4q-26 4 -48 25.5t-22 66.5q0 18 4 37l37 188q4 24 4 35q0 60 -61 60h-31l10 50h95q117 0 117 -97q0 -18 -5 -43 l-41 -208q-3 -15 -3 -27q0 -64 91 -64z" />
<glyph unicode="~" horiz-adv-x="577" d="M383 342q62 0 88 52l38 -18q-17 -61 -54 -101.5t-79 -40.5q-34 0 -96.5 17.5t-85.5 17.5q-55 0 -85 -55l-35 17q11 62 47.5 105t79.5 43q33 0 94 -18.5t88 -18.5z" />
<glyph unicode="&#xa1;" horiz-adv-x="303" d="M-5 -12l130 355h93l-35 -339zM100 479q0 38 27 65.5t65 27.5q37 0 64 -27.5t27 -65.5q0 -37 -27 -63.5t-64 -26.5q-38 0 -65 26.5t-27 63.5z" />
<glyph unicode="&#xa2;" horiz-adv-x="511" d="M182 -101l17 88q-82 8 -128 61t-46 144q0 118 77 216.5t202 111.5l17 85h55l-17 -84q88 -5 138 -44l-21 -109h-94v10q0 38 -7.5 56.5t-27.5 24.5l-77 -390q67 1 133 53l32 -44q-68 -80 -181 -90l-17 -89h-55zM167 183q0 -77 51 -103l73 376q-53 -20 -88.5 -98t-35.5 -175 z" />
<glyph unicode="&#xa3;" horiz-adv-x="594" d="M38 307l12 60h79l17 90q22 115 96 169t185 54q109 0 167 -50l-23 -115h-104v9q0 50 -11.5 71.5t-45.5 21.5q-40 0 -64 -31t-37 -96l-24 -123h179l-12 -60h-178l-47 -240h98q51 0 83 27.5t59 97.5h77l-51 -192h-519l9 46q46 0 67.5 14.5t29.5 56.5l37 190h-79z" />
<glyph unicode="&#xa4;" horiz-adv-x="496" d="M76 31l-51 39l64 76q-35 37 -35 97q0 57 25 105.5t67 77.5l-35 74l66 39l35 -78q28 11 73 11q36 0 67 -11l64 77l51 -39l-60 -72q36 -39 36 -98t-27 -109t-70 -78l34 -74l-66 -38l-36 79q-29 -8 -66 -8q-41 0 -70 11zM271 409q-54 0 -82.5 -47t-28.5 -120q0 -81 63 -81 q42 0 69 31.5t35.5 67.5t8.5 74q0 75 -65 75z" />
<glyph unicode="&#xa5;" horiz-adv-x="624" d="M67 319l11 56h112l-60 208q-10 36 -23 48t-40 16l9 48h271l-9 -48q-52 -1 -52 -40q0 -11 3 -24l60 -238h5l148 239q39 62 -31 63l9 48h217l-8 -48q-30 -4 -47 -15t-41 -46l-144 -211h128l-12 -56h-154l-38 -56l-3 -10h183l-11 -56h-182l-15 -80q-8 -43 4.5 -57t58.5 -14 l-8 -46h-312l8 46q46 0 65 14.5t26 56.5l15 80h-167l12 56h166l1 8l-17 58h-138z" />
<glyph unicode="&#xa6;" horiz-adv-x="266" d="M202 356h-88l78 401h88zM103 -150h-88l78 401h88z" />
<glyph unicode="&#xa7;" horiz-adv-x="493" d="M20 266q0 130 153 176q-67 46 -67 128q0 79 58.5 124t146.5 45q101 0 172 -39l-18 -106h-88q-2 82 -74 82q-35 0 -57.5 -17.5t-22.5 -49.5q0 -36 51 -59l82 -38q65 -30 93 -68t28 -93q0 -133 -153 -176q40 -24 58.5 -55t18.5 -78q0 -76 -61 -125.5t-164 -49.5 q-117 0 -180 47l18 107h91v-4q0 -43 18 -64.5t61 -21.5q90 0 90 69q0 25 -13.5 40t-44.5 30l-81 38q-58 27 -86.5 64.5t-28.5 93.5zM137 314q0 -52 60 -79l65 -30q87 22 87 93q0 36 -16.5 56.5t-49.5 35.5l-50 22q-45 -12 -70.5 -38t-25.5 -60z" />
<glyph unicode="&#xa8;" horiz-adv-x="534" d="M238 646q0 -33 -24.5 -56.5t-58.5 -23.5t-58 23.5t-24 56.5q0 34 24.5 57.5t59.5 23.5q34 0 57.5 -23.5t23.5 -57.5zM461 646q0 -33 -24.5 -56.5t-58.5 -23.5t-58 23.5t-24 56.5q0 34 24.5 57.5t59.5 23.5q34 0 57.5 -23.5t23.5 -57.5z" />
<glyph unicode="&#xa9;" horiz-adv-x="801" d="M335 355q0 -79 19 -121t68 -42q32 0 47 15t20 51h74v-83q-58 -32 -141 -32q-213 0 -213 203q0 101 52.5 154.5t157.5 53.5q87 0 141 -33v-82h-80q-4 37 -16 54.5t-44 17.5q-49 0 -67 -38.5t-18 -117.5zM411 31q129 0 215 86t86 226q0 142 -86 228t-215 86t-215 -86 t-86 -228q0 -140 86 -226t215 -86zM411 -12q-154 0 -255 98t-101 258q0 157 103 257t253 100t253 -100t103 -257q0 -160 -101 -258t-255 -98z" />
<glyph unicode="&#xaa;" horiz-adv-x="476" d="M310 742q62 0 74 -43q12 20 29 33h81q-18 -36 -33 -99l-41 -181q-4 -16 -4 -29q0 -26 33 -26q6 0 24 2l3 -31q-45 -27 -106 -27q-75 0 -75 72q0 2 1 7v6q-56 -88 -138 -88q-46 0 -71.5 29t-25.5 83q0 117 75 204.5t174 87.5zM313 687q-50 0 -88 -71.5t-38 -152.5 q0 -53 29 -53q37 0 93 90l40 172q-11 15 -36 15z" />
<glyph unicode="&#xab;" horiz-adv-x="599" d="M183 250l76 -188l-51 -39l-175 229l254 227l41 -42zM424 250l76 -188l-51 -39l-175 229l254 227l41 -42z" />
<glyph unicode="&#xac;" horiz-adv-x="512" d="M52 228l14 73h396l-45 -232h-80l30 159h-315z" />
<glyph unicode="&#xae;" horiz-adv-x="801" d="M231 150v35q30 0 37 10.5t7 45.5v214q0 35 -7 45.5t-37 10.5v37h182q75 0 114 -24t39 -84q0 -57 -28.5 -79.5t-84.5 -25.5v-3q49 -9 69 -47q19 -30 35 -66q11 -23 19 -28.5t32 -5.5v-35h-133q-6 16 -13.5 34t-16.5 37.5l-13 28.5q-20 48 -29.5 60.5t-28.5 13.5v-83 q0 -35 7.5 -45.5t37.5 -10.5v-35h-188zM374 363h27q35 0 48 15.5t13 57.5q0 38 -14.5 52t-56.5 14h-17v-139zM411 31q129 0 215 86t86 226q0 142 -86 228t-215 86t-215 -86t-86 -228q0 -140 86 -226t215 -86zM411 -12q-154 0 -255 98t-101 258q0 157 103 257t253 100 t253 -100t103 -257q0 -160 -101 -258t-255 -98z" />
<glyph unicode="&#xaf;" horiz-adv-x="448" d="M367 601h-302l16 78h302z" />
<glyph unicode="&#xb0;" horiz-adv-x="383" d="M398 549q0 -79 -49.5 -135.5t-132.5 -56.5q-68 0 -108.5 38.5t-40.5 105.5q0 89 49.5 142t130.5 53q70 0 110.5 -39t40.5 -108zM222 425q45 0 68 34.5t23 90.5q0 42 -17.5 60.5t-53.5 18.5q-42 0 -66.5 -33t-24.5 -89q0 -45 17 -63.5t54 -18.5z" />
<glyph unicode="&#xb1;" horiz-adv-x="567" d="M302 507h80l-27 -142h157l-14 -73h-158l-29 -151h-80l29 151h-161l15 73h161zM47 24l14 74h399l-14 -74h-399z" />
<glyph unicode="&#xb2;" horiz-adv-x="359" d="M226 661q60 0 96 -27.5t36 -77.5q0 -35 -13 -63.5t-43.5 -53t-59 -41t-79.5 -41.5l-50 -24h224l-27 -83h-299l9 68l92 64q70 49 98 80t28 72q0 52 -62 52q-53 0 -97 -39l-23 37q65 77 170 77z" />
<glyph unicode="&#xb3;" horiz-adv-x="338" d="M162 598q-38 0 -78 -32l-23 34q53 61 144 61q54 0 87.5 -23t33.5 -65q0 -46 -31.5 -74.5t-82.5 -35.5q45 -2 72 -26.5t27 -61.5q0 -51 -35.5 -85t-84.5 -47t-109 -13q-54 0 -87 14l-6 44q28 -7 62 -7q62 0 101 23.5t39 73.5q0 57 -59 57q-12 0 -34 -2l10 54q9 -1 30 -1 q36 0 56.5 17t20.5 50q0 45 -53 45z" />
<glyph unicode="&#xb4;" horiz-adv-x="472" d="M109 593l188 186l78 -125l-240 -96z" />
<glyph unicode="&#xb5;" horiz-adv-x="592" d="M-26 -211l135 567q5 19 5 40q0 25 -16 36t-52 11l8 39q66 33 127 33q85 0 85 -85q0 -25 -7 -53l-51 -221q-5 -22 -5 -32q0 -33 33 -33q53 0 122 110l65 308h143l-77 -371q-5 -25 -5 -38q0 -19 11 -27t36 -8q6 0 28 2l3 -41q-62 -35 -131 -35q-93 0 -93 93q0 2 0.5 7 t0.5 8q-56 -112 -144 -112q-27 0 -40 16l-4 -4l1 -5v-10q0 -34 -13 -82l-21 -84z" />
<glyph unicode="&#xb6;" horiz-adv-x="677" d="M721 695l-9 -45q-49 -1 -68 -16.5t-27 -59.5l-134 -693h-73l147 753h-82l-146 -753h-73l79 404h-73q-98 0 -148.5 41.5t-50.5 119.5q0 120 68 184.5t198 64.5h392zM403 634h-39q-57 0 -86.5 -52t-29.5 -148q0 -45 15 -66t50 -21h34z" />
<glyph unicode="&#xb7;" horiz-adv-x="294" d="M243 289q0 -39 -27.5 -66.5t-65.5 -27.5q-39 0 -66 27.5t-27 66.5q0 38 27 65.5t66 27.5q38 0 65.5 -27.5t27.5 -65.5z" />
<glyph unicode="&#xb8;" horiz-adv-x="361" d="M288 -119q0 -85 -118 -85q-61 0 -98 25l17 39q28 -18 66 -18q36 0 36 28q0 30 -61 32l1 21l41 93l44 -6l-23 -51q95 -6 95 -78z" />
<glyph unicode="&#xb9;" horiz-adv-x="326" d="M299 653l-67 -315q-2 -10 -2 -17q0 -17 15 -25t53 -9l-6 -37h-276l7 37q52 4 67.5 13t21.5 38l50 230q-40 -22 -90 -31l-10 41l153 75h84z" />
<glyph unicode="&#xba;" horiz-adv-x="448" d="M453 585q0 -103 -58.5 -175t-167.5 -72q-75 0 -118.5 41.5t-43.5 112.5q0 101 60 175t163 74q76 0 120.5 -40t44.5 -116zM329 622q0 69 -45 69q-39 0 -59 -49q-37 -86 -37 -193q0 -63 44 -63q37 0 58 47q16 32 27.5 85.5t11.5 103.5z" />
<glyph unicode="&#xbb;" horiz-adv-x="599" d="M416 253l-76 187l51 39l175 -228l-254 -228l-41 43zM71 23l-41 43l145 187l-75 187l50 39l175 -228z" />
<glyph unicode="&#xbc;" horiz-adv-x="950" d="M722 -22l23 112h-201l9 46l197 267h108l-216 -259h113q22 96 70 153l77 8l-34 -161h52l-11 -54h-52l-18 -101zM809 730l-611 -853h-73l612 853h72zM299 653l-67 -315q-2 -10 -2 -17q0 -17 15 -25t53 -9l-6 -37h-276l7 37q52 4 67.5 13t21.5 38l50 230q-40 -22 -90 -31 l-10 41l153 75h84z" />
<glyph unicode="&#xbd;" horiz-adv-x="975" d="M796 411q60 0 96.5 -27.5t36.5 -77.5q0 -29 -10.5 -53.5t-25 -42.5t-43.5 -37.5t-52.5 -32.5t-64.5 -33l-50 -24h225l-28 -83h-299l9 68l92 64q70 49 98 80t28 72q0 52 -62 52q-52 0 -96 -39l-24 37q65 77 170 77zM802 730l-611 -853h-73l612 853h72zM299 653l-67 -315 q-2 -10 -2 -17q0 -17 15 -25t53 -9l-6 -37h-276l7 37q52 4 67.5 13t21.5 38l50 230q-40 -22 -90 -31l-10 41l153 75h84z" />
<glyph unicode="&#xbe;" horiz-adv-x="938" d="M695 -22l23 112h-201l9 46l197 267h108l-216 -259h113q22 96 70 153l77 8l-34 -161h52l-11 -54h-52l-18 -101zM162 598q-38 0 -78 -32l-23 34q53 61 144 61q54 0 87.5 -23t33.5 -65q0 -46 -31.5 -74.5t-82.5 -35.5q45 -2 72 -26.5t27 -61.5q0 -51 -35.5 -85t-84.5 -47 t-109 -13q-54 0 -87 14l-6 44q28 -7 62 -7q62 0 101 23.5t39 73.5q0 57 -59 57q-12 0 -34 -2l10 54q9 -1 30 -1q36 0 56.5 17t20.5 50q0 45 -53 45zM793 730l-611 -853h-73l612 853h72z" />
<glyph unicode="&#xbf;" horiz-adv-x="452" d="M285 346q19 -20 19 -54q0 -48 -70 -95q-38 -24 -56.5 -43.5t-18.5 -45.5q0 -54 51 -54q63 0 78 78h103l-18 -95q-81 -51 -195 -51q-177 0 -177 117q0 63 39 97t116 59q60 19 68 57q2 10 2 21v9h59zM177 477q0 39 28 66.5t66 27.5t65 -27.5t27 -66.5q0 -37 -27 -64 t-65 -27t-66 27t-28 64z" />
<glyph unicode="&#xc0;" horiz-adv-x="648" d="M394 101l-10 86h-213l-39 -80q-10 -23 -10 -33q0 -27 55 -28l-9 -46h-221l8 46q35 4 52.5 16.5t37.5 50.5l300 582h125l87 -582q6 -38 16.5 -50.5t39.5 -16.5l-9 -46h-284l8 46q39 1 53 10t14 31q0 5 -1 14zM301 452l-94 -191h167l-21 183q-5 39 -5 84v15h-6 q-5 -14 -41 -91zM519 760l-23 -37l-247 72l65 130z" />
<glyph unicode="&#xc1;" horiz-adv-x="648" d="M394 101l-10 86h-213l-39 -80q-10 -23 -10 -33q0 -27 55 -28l-9 -46h-221l8 46q35 4 52.5 16.5t37.5 50.5l300 582h125l87 -582q6 -38 16.5 -50.5t39.5 -16.5l-9 -46h-284l8 46q39 1 53 10t14 31q0 5 -1 14zM301 452l-94 -191h167l-21 183q-5 39 -5 84v15h-6 q-5 -14 -41 -91zM292 760l205 165l65 -130l-247 -72z" />
<glyph unicode="&#xc2;" horiz-adv-x="648" d="M394 101l-10 86h-213l-39 -80q-10 -23 -10 -33q0 -27 55 -28l-9 -46h-221l8 46q35 4 52.5 16.5t37.5 50.5l300 582h125l87 -582q6 -38 16.5 -50.5t39.5 -16.5l-9 -46h-284l8 46q39 1 53 10t14 31q0 5 -1 14zM301 452l-94 -191h167l-21 183q-5 39 -5 84v15h-6 q-5 -14 -41 -91zM423 808l-166 -78l-21 36l210 174l136 -179l-25 -32z" />
<glyph unicode="&#xc3;" horiz-adv-x="648" d="M394 101l-10 86h-213l-39 -80q-10 -23 -10 -33q0 -27 55 -28l-9 -46h-221l8 46q35 4 52.5 16.5t37.5 50.5l300 582h125l87 -582q6 -38 16.5 -50.5t39.5 -16.5l-9 -46h-284l8 46q39 1 53 10t14 31q0 5 -1 14zM301 452l-94 -191h167l-21 183q-5 39 -5 84v15h-6 q-5 -14 -41 -91zM491 857q50 0 74 46l38 -16q-14 -57 -44.5 -93t-71.5 -36q-33 0 -76 18t-63 18q-46 0 -73 -49l-35 16q9 56 39.5 95t72.5 39q31 0 73 -19t66 -19z" />
<glyph unicode="&#xc4;" horiz-adv-x="648" d="M394 101l-10 86h-213l-39 -80q-10 -23 -10 -33q0 -27 55 -28l-9 -46h-221l8 46q35 4 52.5 16.5t37.5 50.5l300 582h125l87 -582q6 -38 16.5 -50.5t39.5 -16.5l-9 -46h-284l8 46q39 1 53 10t14 31q0 5 -1 14zM301 452l-94 -191h167l-21 183q-5 39 -5 84v15h-6 q-5 -14 -41 -91zM390 817q0 -33 -24 -56.5t-58 -23.5t-58 23.5t-24 56.5q0 34 24 57.5t59 23.5q34 0 57.5 -23.5t23.5 -57.5zM613 817q0 -33 -24 -56.5t-58 -23.5t-58 23.5t-24 56.5q0 34 24 57.5t59 23.5q34 0 57.5 -23.5t23.5 -57.5z" />
<glyph unicode="&#xc5;" horiz-adv-x="648" d="M394 101l-10 86h-213l-39 -80q-10 -23 -10 -33q0 -27 55 -28l-9 -46h-221l8 46q35 4 52.5 16.5t37.5 50.5l300 582h125l87 -582q6 -38 16.5 -50.5t39.5 -16.5l-9 -46h-284l8 46q39 1 53 10t14 31q0 5 -1 14zM301 452l-94 -191h167l-21 183q-5 39 -5 84v15h-6 q-5 -14 -41 -91zM417 729q-51 0 -81.5 31.5t-30.5 78.5q0 53 35 87.5t90 34.5q50 0 80 -32t30 -79q0 -54 -33.5 -87.5t-89.5 -33.5zM425 907q-27 0 -42.5 -18.5t-15.5 -47.5q0 -25 13 -40.5t37 -15.5q27 0 44 18t17 45q0 26 -14.5 42.5t-38.5 16.5z" />
<glyph unicode="&#xc6;" horiz-adv-x="932" d="M-53 0l8 46q34 4 55.5 17.5t47.5 49.5l334 468q16 22 16 36q0 28 -57 30l9 48h596l-21 -169h-74q-6 61 -20.5 79.5t-64.5 18.5h-108l-46 -238h61q46 0 65 14t31 57h66l-41 -209h-66q2 16 2 23q0 27 -15.5 37.5t-54.5 10.5h-61l-49 -252h123q51 0 76.5 24t44.5 92h76 l-35 -183h-524l8 46q41 0 58.5 14.5t25.5 56.5l23 118h-199l-92 -128q-17 -23 -17 -37q0 -23 49 -24l-9 -46h-221zM519 624l-227 -314h158l22 112q26 135 53 202h-6z" />
<glyph unicode="&#xc7;" horiz-adv-x="617" d="M381 -119q0 -85 -118 -85q-61 0 -98 25l17 39q28 -18 66 -18q36 0 36 28q0 30 -61 32l1 21l29 68q-203 31 -203 267q0 88 26.5 168t75.5 142.5t125.5 100t169.5 37.5q125 0 196 -51l-27 -135h-107q-2 63 -17.5 89.5t-60.5 26.5q-69 0 -119 -60.5t-73.5 -153.5t-23.5 -204 q0 -89 28.5 -125.5t85.5 -36.5q53 0 84 29t53 92h108l-27 -138q-35 -23 -99.5 -38t-129.5 -15q-13 0 -20 1l-12 -28q95 -6 95 -78z" />
<glyph unicode="&#xc8;" horiz-adv-x="593" d="M502 760l-23 -37l-247 72l65 130zM-18 0l8 46q41 0 58.5 14.5t25.5 56.5l89 458q4 20 4 31q0 23 -13.5 31.5t-45.5 9.5l9 48h500l-21 -169h-74q-6 61 -20 79.5t-65 18.5h-108l-46 -238h61q47 0 66 14t30 57h66l-41 -209h-66q2 14 2 23q0 27 -15 37.5t-54 10.5h-62 l-49 -252h123q51 0 76.5 24t44.5 92h76l-35 -183h-524z" />
<glyph unicode="&#xc9;" horiz-adv-x="593" d="M277 760l205 165l65 -130l-247 -72zM-18 0l8 46q41 0 58.5 14.5t25.5 56.5l89 458q4 20 4 31q0 23 -13.5 31.5t-45.5 9.5l9 48h500l-21 -169h-74q-6 61 -20 79.5t-65 18.5h-108l-46 -238h61q47 0 66 14t30 57h66l-41 -209h-66q2 14 2 23q0 27 -15 37.5t-54 10.5h-62 l-49 -252h123q51 0 76.5 24t44.5 92h76l-35 -183h-524z" />
<glyph unicode="&#xca;" horiz-adv-x="593" d="M400 808l-166 -78l-21 36l210 174l136 -179l-25 -32zM-18 0l8 46q41 0 58.5 14.5t25.5 56.5l89 458q4 20 4 31q0 23 -13.5 31.5t-45.5 9.5l9 48h500l-21 -169h-74q-6 61 -20 79.5t-65 18.5h-108l-46 -238h61q47 0 66 14t30 57h66l-41 -209h-66q2 14 2 23q0 27 -15 37.5 t-54 10.5h-62l-49 -252h123q51 0 76.5 24t44.5 92h76l-35 -183h-524z" />
<glyph unicode="&#xcb;" horiz-adv-x="593" d="M-18 0l8 46q41 0 58.5 14.5t25.5 56.5l89 458q4 20 4 31q0 23 -13.5 31.5t-45.5 9.5l9 48h500l-21 -169h-74q-6 61 -20 79.5t-65 18.5h-108l-46 -238h61q47 0 66 14t30 57h66l-41 -209h-66q2 14 2 23q0 27 -15 37.5t-54 10.5h-62l-49 -252h123q51 0 76.5 24t44.5 92h76 l-35 -183h-524zM365 817q0 -33 -24 -56.5t-58 -23.5t-58 23.5t-24 56.5q0 34 24 57.5t59 23.5q34 0 57.5 -23.5t23.5 -57.5zM588 817q0 -33 -24 -56.5t-58 -23.5t-58 23.5t-24 56.5q0 34 24 57.5t59 23.5q34 0 57.5 -23.5t23.5 -57.5z" />
<glyph unicode="&#xcc;" horiz-adv-x="358" d="M320 575l-89 -458q-8 -42 3.5 -56.5t51.5 -14.5l-8 -46h-296l8 46q41 0 58.5 14.5t25.5 56.5l89 458q4 20 4 31q0 23 -13.5 31.5t-45.5 9.5l9 48h295l-9 -48q-40 -1 -57.5 -15.5t-25.5 -56.5zM390 760l-23 -37l-247 72l65 130z" />
<glyph unicode="&#xcd;" horiz-adv-x="358" d="M320 575l-89 -458q-8 -42 3.5 -56.5t51.5 -14.5l-8 -46h-296l8 46q41 0 58.5 14.5t25.5 56.5l89 458q4 20 4 31q0 23 -13.5 31.5t-45.5 9.5l9 48h295l-9 -48q-40 -1 -57.5 -15.5t-25.5 -56.5zM154 760l205 165l65 -130l-247 -72z" />
<glyph unicode="&#xce;" horiz-adv-x="358" d="M320 575l-89 -458q-8 -42 3.5 -56.5t51.5 -14.5l-8 -46h-296l8 46q41 0 58.5 14.5t25.5 56.5l89 458q4 20 4 31q0 23 -13.5 31.5t-45.5 9.5l9 48h295l-9 -48q-40 -1 -57.5 -15.5t-25.5 -56.5zM293 808l-166 -78l-21 36l210 174l136 -179l-25 -32z" />
<glyph unicode="&#xcf;" horiz-adv-x="358" d="M320 575l-89 -458q-8 -42 3.5 -56.5t51.5 -14.5l-8 -46h-296l8 46q41 0 58.5 14.5t25.5 56.5l89 458q4 20 4 31q0 23 -13.5 31.5t-45.5 9.5l9 48h295l-9 -48q-40 -1 -57.5 -15.5t-25.5 -56.5zM256 817q0 -33 -24 -56.5t-58 -23.5t-58 23.5t-24 56.5q0 34 24 57.5t59 23.5 q34 0 57.5 -23.5t23.5 -57.5zM479 817q0 -33 -24 -56.5t-58 -23.5t-58 23.5t-24 56.5q0 34 24 57.5t59 23.5q34 0 57.5 -23.5t23.5 -57.5z" />
<glyph unicode="&#xd0;" horiz-adv-x="697" d="M-18 0l8 46q41 0 58.5 14.5t25.5 56.5l39 203h-73l15 73h72l36 182q4 24 4 31q0 23 -13.5 31.5t-45.5 9.5l9 48h277q136 0 207 -66t71 -194q0 -221 -120 -347q-84 -88 -258 -88h-312zM377 625h-47l-45 -232h124l-16 -73h-122l-49 -253h48q56 0 93 13.5t65 53.5 q33 49 55.5 143t22.5 191q0 86 -27 121.5t-102 35.5z" />
<glyph unicode="&#xd1;" horiz-adv-x="698" d="M533 857q50 0 74 46l38 -16q-14 -57 -44.5 -93t-71.5 -36q-33 0 -76 18t-63 18q-46 0 -73 -49l-35 16q9 56 39.5 95t72.5 39q31 0 73 -19t66 -19zM558 0h-99l-170 386q-46 102 -51 167h-6q-9 -105 -22 -171l-51 -265q-4 -20 -4 -31q0 -23 13 -31.5t45 -8.5l-8 -46h-223 l8 46q41 0 58.5 14.5t25.5 56.5l89 458q4 24 4 31q0 23 -13.5 31.5t-45.5 9.5l9 48h217l146 -337q33 -76 37 -141h6q4 62 23 159l39 199q4 22 4 31q0 23 -13.5 31.5t-45.5 9.5l9 48h219l-8 -48q-39 -1 -56 -15.5t-25 -56.5z" />
<glyph unicode="&#xd2;" d="M547 760l-23 -37l-247 72l65 130zM679 423q0 -63 -13 -124t-41.5 -118t-70 -100t-102 -69t-133.5 -26q-130 0 -199.5 77.5t-69.5 206.5q0 61 13.5 121.5t42.5 117.5t70.5 100.5t101.5 70t131 26.5q125 0 197.5 -74t72.5 -209zM513 472q0 85 -23.5 124.5t-80.5 39.5 q-72 0 -111 -63q-42 -67 -62.5 -167t-20.5 -194q0 -159 103 -159q72 0 113 63q40 60 61 162.5t21 193.5z" />
<glyph unicode="&#xd3;" d="M309 760l205 165l65 -130l-247 -72zM679 423q0 -63 -13 -124t-41.5 -118t-70 -100t-102 -69t-133.5 -26q-130 0 -199.5 77.5t-69.5 206.5q0 61 13.5 121.5t42.5 117.5t70.5 100.5t101.5 70t131 26.5q125 0 197.5 -74t72.5 -209zM513 472q0 85 -23.5 124.5t-80.5 39.5 q-72 0 -111 -63q-42 -67 -62.5 -167t-20.5 -194q0 -159 103 -159q72 0 113 63q40 60 61 162.5t21 193.5z" />
<glyph unicode="&#xd4;" d="M446 808l-166 -78l-21 36l210 174l136 -179l-25 -32zM679 423q0 -63 -13 -124t-41.5 -118t-70 -100t-102 -69t-133.5 -26q-130 0 -199.5 77.5t-69.5 206.5q0 61 13.5 121.5t42.5 117.5t70.5 100.5t101.5 70t131 26.5q125 0 197.5 -74t72.5 -209zM513 472 q0 85 -23.5 124.5t-80.5 39.5q-72 0 -111 -63q-42 -67 -62.5 -167t-20.5 -194q0 -159 103 -159q72 0 113 63q40 60 61 162.5t21 193.5z" />
<glyph unicode="&#xd5;" d="M504 857q50 0 74 46l38 -16q-14 -57 -44.5 -93t-71.5 -36q-33 0 -76 18t-63 18q-46 0 -73 -49l-35 16q9 56 39.5 95t72.5 39q31 0 73 -19t66 -19zM679 423q0 -63 -13 -124t-41.5 -118t-70 -100t-102 -69t-133.5 -26q-130 0 -199.5 77.5t-69.5 206.5q0 61 13.5 121.5 t42.5 117.5t70.5 100.5t101.5 70t131 26.5q125 0 197.5 -74t72.5 -209zM513 472q0 85 -23.5 124.5t-80.5 39.5q-72 0 -111 -63q-42 -67 -62.5 -167t-20.5 -194q0 -159 103 -159q72 0 113 63q40 60 61 162.5t21 193.5z" />
<glyph unicode="&#xd6;" d="M406 817q0 -33 -24 -56.5t-58 -23.5t-58 23.5t-24 56.5q0 34 24 57.5t59 23.5q34 0 57.5 -23.5t23.5 -57.5zM629 817q0 -33 -24 -56.5t-58 -23.5t-58 23.5t-24 56.5q0 34 24 57.5t59 23.5q34 0 57.5 -23.5t23.5 -57.5zM679 423q0 -63 -13 -124t-41.5 -118t-70 -100 t-102 -69t-133.5 -26q-130 0 -199.5 77.5t-69.5 206.5q0 61 13.5 121.5t42.5 117.5t70.5 100.5t101.5 70t131 26.5q125 0 197.5 -74t72.5 -209zM513 472q0 85 -23.5 124.5t-80.5 39.5q-72 0 -111 -63q-42 -67 -62.5 -167t-20.5 -194q0 -159 103 -159q72 0 113 63 q40 60 61 162.5t21 193.5z" />
<glyph unicode="&#xd7;" horiz-adv-x="570" d="M115 427l56 48l124 -153l183 153l42 -51l-184 -154l125 -152l-58 -49l-124 154l-187 -156l-40 51l186 155z" />
<glyph unicode="&#xd8;" d="M679 423q0 -63 -13 -124t-41.5 -118t-70 -100t-102 -69t-133.5 -26q-95 0 -162 46l-61 -79l-44 31l65 85q-67 76 -67 201q0 61 13.5 121.5t42.5 117.5t70.5 100.5t101.5 70t131 26.5q95 0 161 -46l58 76l45 -32l-62 -80q68 -76 68 -201zM517 472q0 5 -0.5 14.5t-0.5 13.5 l-293 -382q24 -65 95 -65q74 0 116 63q40 60 61.5 162.5t21.5 193.5zM210 212v-21l293 382q-23 63 -94 63q-73 0 -114 -63q-42 -67 -63.5 -167.5t-21.5 -193.5z" />
<glyph unicode="&#xd9;" horiz-adv-x="685" d="M577 760l-23 -37l-247 72l65 130zM353 68q65 0 103 40t54 123l66 344q4 20 4 32q0 22 -13.5 30.5t-46.5 9.5l9 48h220l-9 -48q-39 -1 -56 -15.5t-25 -56.5l-67 -349q-24 -120 -87.5 -180t-177.5 -60q-242 0 -245 184q0 40 9 91l61 314q8 42 -3.5 56.5t-51.5 15.5l9 48 h295l-8 -48q-41 -1 -58.5 -15.5t-25.5 -56.5l-63 -324q-9 -48 -9 -83q1 -51 28.5 -75.5t87.5 -24.5z" />
<glyph unicode="&#xda;" horiz-adv-x="685" d="M344 760l205 165l65 -130l-247 -72zM353 68q65 0 103 40t54 123l66 344q4 20 4 32q0 22 -13.5 30.5t-46.5 9.5l9 48h220l-9 -48q-39 -1 -56 -15.5t-25 -56.5l-67 -349q-24 -120 -87.5 -180t-177.5 -60q-242 0 -245 184q0 40 9 91l61 314q8 42 -3.5 56.5t-51.5 15.5l9 48 h295l-8 -48q-41 -1 -58.5 -15.5t-25.5 -56.5l-63 -324q-9 -48 -9 -83q1 -51 28.5 -75.5t87.5 -24.5z" />
<glyph unicode="&#xdb;" horiz-adv-x="685" d="M483 808l-166 -78l-21 36l210 174l136 -179l-25 -32zM353 68q65 0 103 40t54 123l66 344q4 20 4 32q0 22 -13.5 30.5t-46.5 9.5l9 48h220l-9 -48q-39 -1 -56 -15.5t-25 -56.5l-67 -349q-24 -120 -87.5 -180t-177.5 -60q-242 0 -245 184q0 40 9 91l61 314q8 42 -3.5 56.5 t-51.5 15.5l9 48h295l-8 -48q-41 -1 -58.5 -15.5t-25.5 -56.5l-63 -324q-9 -48 -9 -83q1 -51 28.5 -75.5t87.5 -24.5z" />
<glyph unicode="&#xdc;" horiz-adv-x="685" d="M353 68q65 0 103 40t54 123l66 344q4 20 4 32q0 22 -13.5 30.5t-46.5 9.5l9 48h220l-9 -48q-39 -1 -56 -15.5t-25 -56.5l-67 -349q-24 -120 -87.5 -180t-177.5 -60q-242 0 -245 184q0 40 9 91l61 314q8 42 -3.5 56.5t-51.5 15.5l9 48h295l-8 -48q-41 -1 -58.5 -15.5 t-25.5 -56.5l-63 -324q-9 -48 -9 -83q1 -51 28.5 -75.5t87.5 -24.5zM433 817q0 -33 -24 -56.5t-58 -23.5t-58 23.5t-24 56.5q0 34 24 57.5t59 23.5q34 0 57.5 -23.5t23.5 -57.5zM656 817q0 -33 -24 -56.5t-58 -23.5t-58 23.5t-24 56.5q0 34 24 57.5t59 23.5q34 0 57.5 -23.5 t23.5 -57.5z" />
<glyph unicode="&#xdd;" horiz-adv-x="627" d="M207 117l28 144l-93 322q-10 36 -23 48t-40 16l9 48h271l-9 -48q-65 -1 -48 -64l59 -238h5l148 239q14 23 14 37q0 25 -45 26l9 48h217l-8 -48q-31 -4 -48 -15.5t-41 -46.5l-219 -322l-28 -146q-8 -43 4.5 -57t58.5 -14l-8 -46h-312l8 46q46 0 65 14.5t26 56.5zM306 760 l205 165l65 -130l-247 -72z" />
<glyph unicode="&#xde;" horiz-adv-x="602" d="M451 388q0 50 -22.5 73.5t-76.5 23.5h-50l-48 -252h46q26 0 39 1t30 6t30 15q52 41 52 133zM320 575l-4 -20h60q120 0 178 -39.5t58 -129.5q0 -145 -138 -201q-62 -25 -161 -25h-74l-8 -42q-3 -16 -3 -29q0 -25 16 -34t58 -9l-8 -46h-312l8 46q41 0 58.5 14.5t25.5 56.5 l89 458q4 22 4 31q0 23 -13.5 31.5t-45.5 9.5l9 48h295l-9 -48q-40 -1 -57.5 -15.5t-25.5 -56.5z" />
<glyph unicode="&#xdf;" horiz-adv-x="1001" d="M206 -14q-133 0 -201 53l20 117h99q0 -55 20 -81.5t72 -26.5q47 0 74.5 20t27.5 60q0 31 -17 48t-65 36l-50 20q-57 23 -87.5 57.5t-30.5 93.5q0 90 65 139t161 49q102 0 185 -43l-19 -117h-97q0 47 -17 72.5t-62 25.5q-41 0 -66.5 -20.5t-25.5 -57.5q0 -24 14 -40 t51 -31l49 -20q76 -30 109 -63.5t33 -93.5q0 -95 -66 -146t-176 -51zM702 -14q-133 0 -201 53l20 117h99q0 -55 20 -81.5t72 -26.5q47 0 74.5 20t27.5 60q0 31 -17 48t-65 36l-50 20q-57 23 -87.5 57.5t-30.5 93.5q0 90 65 139t161 49q102 0 185 -43l-19 -117h-97 q0 47 -17 72.5t-62 25.5q-41 0 -66.5 -20.5t-25.5 -57.5q0 -24 14 -40t51 -31l49 -20q76 -30 109 -63.5t33 -93.5q0 -95 -66 -146t-176 -51z" />
<glyph unicode="&#xe0;" horiz-adv-x="606" d="M352 104l-6 47h-194l-25 -47q-11 -20 -11 -33q0 -27 50 -27l-8 -44h-207l8 44q33 2 48.5 14.5t37.5 51.5l261 449h117l79 -448q7 -40 16.5 -53t37.5 -14l-8 -44h-265l9 44q61 0 61 46q0 7 -1 14zM241 304l-52 -89h145l-15 91q-12 72 -12 123h-6q-22 -61 -60 -125z M487 640l-25 -35l-240 96l77 125z" />
<glyph unicode="&#xe1;" horiz-adv-x="606" d="M248 640l188 186l78 -125l-240 -96zM352 104l-6 47h-194l-25 -47q-11 -20 -11 -33q0 -27 50 -27l-8 -44h-207l8 44q33 2 48.5 14.5t37.5 51.5l261 449h117l79 -448q7 -40 16.5 -53t37.5 -14l-8 -44h-265l9 44q61 0 61 46q0 7 -1 14zM241 304l-52 -89h145l-15 91 q-12 72 -12 123h-6q-22 -61 -60 -125z" />
<glyph unicode="&#xe2;" horiz-adv-x="606" d="M382 682l-165 -78l-22 36l210 174l136 -179l-25 -32zM352 104l-6 47h-194l-25 -47q-11 -20 -11 -33q0 -27 50 -27l-8 -44h-207l8 44q33 2 48.5 14.5t37.5 51.5l261 449h117l79 -448q7 -40 16.5 -53t37.5 -14l-8 -44h-265l9 44q61 0 61 46q0 7 -1 14zM241 304l-52 -89h145 l-15 91q-12 72 -12 123h-6q-22 -61 -60 -125z" />
<glyph unicode="&#xe3;" horiz-adv-x="606" d="M352 104l-6 47h-194l-25 -47q-11 -20 -11 -33q0 -27 50 -27l-8 -44h-207l8 44q33 2 48.5 14.5t37.5 51.5l261 449h117l79 -448q7 -40 16.5 -53t37.5 -14l-8 -44h-265l9 44q61 0 61 46q0 7 -1 14zM241 304l-52 -89h145l-15 91q-12 72 -12 123h-6q-22 -61 -60 -125z M445 733q49 0 72 45l38 -16q-14 -57 -44 -93.5t-70 -36.5q-30 0 -73 15.5t-62 15.5q-45 0 -70 -48l-35 16q9 57 38.5 96.5t71.5 39.5q29 0 70.5 -17t63.5 -17z" />
<glyph unicode="&#xe4;" horiz-adv-x="606" d="M354 693q0 -33 -24.5 -56.5t-58.5 -23.5t-58 23.5t-24 56.5q0 34 24.5 57.5t59.5 23.5q34 0 57.5 -23.5t23.5 -57.5zM577 693q0 -33 -24.5 -56.5t-58.5 -23.5t-58 23.5t-24 56.5q0 34 24.5 57.5t59.5 23.5q34 0 57.5 -23.5t23.5 -57.5zM352 104l-6 47h-194l-25 -47 q-11 -20 -11 -33q0 -27 50 -27l-8 -44h-207l8 44q33 2 48.5 14.5t37.5 51.5l261 449h117l79 -448q7 -40 16.5 -53t37.5 -14l-8 -44h-265l9 44q61 0 61 46q0 7 -1 14zM241 304l-52 -89h145l-15 91q-12 72 -12 123h-6q-22 -61 -60 -125z" />
<glyph unicode="&#xe5;" horiz-adv-x="606" d="M375 609q-51 0 -81.5 31.5t-30.5 78.5q0 53 35 87.5t90 34.5q50 0 80.5 -32t30.5 -79q0 -54 -34 -87.5t-90 -33.5zM384 787q-27 0 -43 -18.5t-16 -46.5q0 -26 13.5 -41.5t37.5 -15.5q27 0 44 18t17 45q0 26 -14.5 42.5t-38.5 16.5zM352 104l-6 47h-194l-25 -47 q-11 -20 -11 -33q0 -27 50 -27l-8 -44h-207l8 44q33 2 48.5 14.5t37.5 51.5l261 449h117l79 -448q7 -40 16.5 -53t37.5 -14l-8 -44h-265l9 44q61 0 61 46q0 7 -1 14zM241 304l-52 -89h145l-15 91q-12 72 -12 123h-6q-22 -61 -60 -125z" />
<glyph unicode="&#xe6;" horiz-adv-x="857" d="M-53 0l9 44q30 1 47 13t52 49l267 341q19 23 19 39q0 25 -47 25l9 48h551l-20 -159h-68q-3 56 -17 73t-60 17h-96l-32 -174h30q42 0 54 7.5t21 42.5h63l-30 -162h-63q2 14 2 22q0 19 -11 24t-47 5h-32l-38 -190h101q52 0 77 21.5t44 88.5h71l-34 -175h-488l8 44 q40 1 56 15t24 57l14 72h-175l-71 -90q-15 -21 -15 -32q0 -22 43 -22l-8 -44h-210zM453 498l-193 -245h136l16 82q18 94 47 163h-6z" />
<glyph unicode="&#xe7;" horiz-adv-x="570" d="M342 -119q0 -85 -118 -85q-61 0 -98 25l17 39q28 -18 66 -18q36 0 36 28q0 30 -61 32l1 21l30 69q-86 15 -132 73t-46 149q0 148 88.5 252.5t247.5 104.5q109 0 180 -43l-27 -127h-99q0 59 -13.5 84t-54.5 25q-77 0 -121.5 -94.5t-44.5 -229.5q0 -75 24 -107.5t71 -32.5 q44 0 69 25.5t43 85.5h100l-24 -126q-31 -21 -86.5 -33t-110.5 -12q-13 0 -20 1l-12 -28q95 -6 95 -78z" />
<glyph unicode="&#xe8;" horiz-adv-x="567" d="M481 640l-25 -35l-240 96l77 125zM-9 0l8 44q40 1 56 15t24 57l63 323q4 21 4 33q0 22 -12.5 30.5t-43.5 8.5l9 48h465l-20 -159h-68q-4 57 -17.5 73.5t-59.5 16.5h-96l-33 -174h31q42 0 54 7.5t21 42.5h63l-30 -162h-63q4 36 -5.5 43.5t-50.5 7.5h-32l-38 -190h101 q52 0 76.5 21t44.5 89h71l-34 -175h-488z" />
<glyph unicode="&#xe9;" horiz-adv-x="567" d="M241 640l188 186l78 -125l-240 -96zM-9 0l8 44q40 1 56 15t24 57l63 323q4 21 4 33q0 22 -12.5 30.5t-43.5 8.5l9 48h465l-20 -159h-68q-4 57 -17.5 73.5t-59.5 16.5h-96l-33 -174h31q42 0 54 7.5t21 42.5h63l-30 -162h-63q4 36 -5.5 43.5t-50.5 7.5h-32l-38 -190h101 q52 0 76.5 21t44.5 89h71l-34 -175h-488z" />
<glyph unicode="&#xea;" horiz-adv-x="567" d="M366 682l-165 -78l-22 36l210 174l136 -179l-25 -32zM-9 0l8 44q40 1 56 15t24 57l63 323q4 21 4 33q0 22 -12.5 30.5t-43.5 8.5l9 48h465l-20 -159h-68q-4 57 -17.5 73.5t-59.5 16.5h-96l-33 -174h31q42 0 54 7.5t21 42.5h63l-30 -162h-63q4 36 -5.5 43.5t-50.5 7.5h-32 l-38 -190h101q52 0 76.5 21t44.5 89h71l-34 -175h-488z" />
<glyph unicode="&#xeb;" horiz-adv-x="567" d="M327 693q0 -33 -24.5 -56.5t-58.5 -23.5t-58 23.5t-24 56.5q0 34 24.5 57.5t59.5 23.5q34 0 57.5 -23.5t23.5 -57.5zM550 693q0 -33 -24.5 -56.5t-58.5 -23.5t-58 23.5t-24 56.5q0 34 24.5 57.5t59.5 23.5q34 0 57.5 -23.5t23.5 -57.5zM-9 0l8 44q40 1 56 15t24 57 l63 323q4 21 4 33q0 22 -12.5 30.5t-43.5 8.5l9 48h465l-20 -159h-68q-4 57 -17.5 73.5t-59.5 16.5h-96l-33 -174h31q42 0 54 7.5t21 42.5h63l-30 -162h-63q4 36 -5.5 43.5t-50.5 7.5h-32l-38 -190h101q52 0 76.5 21t44.5 89h71l-34 -175h-488z" />
<glyph unicode="&#xec;" horiz-adv-x="365" d="M294 439l-63 -323q-4 -17 -4 -33q0 -22 12 -30t44 -9l-8 -44h-284l8 44q40 1 56 15t24 57l63 323q4 20 4 33q0 22 -12.5 30.5t-43.5 8.5l9 48h284l-9 -48q-40 0 -56 -14.5t-24 -57.5zM387 640l-25 -35l-240 96l77 125z" />
<glyph unicode="&#xed;" horiz-adv-x="365" d="M133 640l188 186l78 -125l-240 -96zM294 439l-63 -323q-4 -17 -4 -33q0 -22 12 -30t44 -9l-8 -44h-284l8 44q40 1 56 15t24 57l63 323q4 20 4 33q0 22 -12.5 30.5t-43.5 8.5l9 48h284l-9 -48q-40 0 -56 -14.5t-24 -57.5z" />
<glyph unicode="&#xee;" horiz-adv-x="365" d="M267 682l-165 -78l-22 36l210 174l136 -179l-25 -32zM294 439l-63 -323q-4 -17 -4 -33q0 -22 12 -30t44 -9l-8 -44h-284l8 44q40 1 56 15t24 57l63 323q4 20 4 33q0 22 -12.5 30.5t-43.5 8.5l9 48h284l-9 -48q-40 0 -56 -14.5t-24 -57.5z" />
<glyph unicode="&#xef;" horiz-adv-x="365" d="M233 693q0 -33 -24.5 -56.5t-58.5 -23.5t-58 23.5t-24 56.5q0 34 24.5 57.5t59.5 23.5q34 0 57.5 -23.5t23.5 -57.5zM456 693q0 -33 -24.5 -56.5t-58.5 -23.5t-58 23.5t-24 56.5q0 34 24.5 57.5t59.5 23.5q34 0 57.5 -23.5t23.5 -57.5zM294 439l-63 -323q-4 -17 -4 -33 q0 -22 12 -30t44 -9l-8 -44h-284l8 44q40 1 56 15t24 57l63 323q4 20 4 33q0 22 -12.5 30.5t-43.5 8.5l9 48h284l-9 -48q-40 0 -56 -14.5t-24 -57.5z" />
<glyph unicode="&#xf0;" horiz-adv-x="650" d="M-9 0l8 44q40 1 56 15t24 57l26 133h-68l13 68h68l24 122q4 22 4 33q0 22 -12.5 30.5t-43.5 8.5l9 48h265q115 0 179 -55t64 -157q0 -170 -92 -270q-73 -77 -241 -77h-283zM343 496h-37l-35 -179h106l-13 -68h-107l-37 -190h37q51 0 81.5 12t51.5 42q59 87 59 266 q0 62 -25.5 89.5t-80.5 27.5z" />
<glyph unicode="&#xf1;" horiz-adv-x="632" d="M473 307l26 132q4 22 4 34q0 22 -12.5 30t-42.5 8l8 48h208l-9 -48q-40 0 -56 -14.5t-24 -57.5l-86 -439h-87l-148 283q-36 70 -45 128h-6q-5 -79 -14 -128l-30 -167q-4 -21 -4 -33q0 -22 12 -30t43 -9l-8 -44h-211l8 44q40 1 56 15t24 57l63 323q4 20 4 33 q0 22 -12.5 30.5t-43.5 8.5l9 48h197l117 -255q28 -59 37 -110h6q4 50 17 113zM476 733q50 0 72 45l38 -16q-14 -57 -44 -93.5t-70 -36.5q-30 0 -73 15.5t-62 15.5q-45 0 -70 -48l-35 16q9 57 38.5 96.5t71.5 39.5q29 0 70.5 -17t63.5 -17z" />
<glyph unicode="&#xf2;" horiz-adv-x="630" d="M585 329q0 -150 -84.5 -246.5t-226.5 -96.5q-107 0 -172 65t-65 175q0 150 85 247.5t226 97.5q104 0 170.5 -63t66.5 -179zM430 400q0 51 -22 78t-61 27q-65 0 -99 -69q-58 -121 -58 -273q0 -54 21.5 -83.5t63.5 -29.5q62 0 95 62q26 51 43 132t17 156zM499 640l-25 -35 l-240 96l77 125z" />
<glyph unicode="&#xf3;" horiz-adv-x="630" d="M585 329q0 -150 -84.5 -246.5t-226.5 -96.5q-107 0 -172 65t-65 175q0 150 85 247.5t226 97.5q104 0 170.5 -63t66.5 -179zM430 400q0 51 -22 78t-61 27q-65 0 -99 -69q-58 -121 -58 -273q0 -54 21.5 -83.5t63.5 -29.5q62 0 95 62q26 51 43 132t17 156zM256 640l188 186 l78 -125l-240 -96z" />
<glyph unicode="&#xf4;" horiz-adv-x="630" d="M381 682l-165 -78l-22 36l210 174l136 -179l-25 -32zM585 329q0 -150 -84.5 -246.5t-226.5 -96.5q-107 0 -172 65t-65 175q0 150 85 247.5t226 97.5q104 0 170.5 -63t66.5 -179zM430 400q0 51 -22 78t-61 27q-65 0 -99 -69q-58 -121 -58 -273q0 -54 21.5 -83.5 t63.5 -29.5q62 0 95 62q26 51 43 132t17 156z" />
<glyph unicode="&#xf5;" horiz-adv-x="630" d="M585 329q0 -150 -84.5 -246.5t-226.5 -96.5q-107 0 -172 65t-65 175q0 150 85 247.5t226 97.5q104 0 170.5 -63t66.5 -179zM430 400q0 51 -22 78t-61 27q-65 0 -99 -69q-58 -121 -58 -273q0 -54 21.5 -83.5t63.5 -29.5q62 0 95 62q26 51 43 132t17 156zM440 733 q50 0 72 45l38 -16q-14 -57 -44 -93.5t-70 -36.5q-30 0 -73 15.5t-62 15.5q-45 0 -70 -48l-35 16q9 57 38.5 96.5t71.5 39.5q29 0 70.5 -17t63.5 -17z" />
<glyph unicode="&#xf6;" horiz-adv-x="630" d="M348 693q0 -33 -24.5 -56.5t-58.5 -23.5t-58 23.5t-24 56.5q0 34 24.5 57.5t59.5 23.5q34 0 57.5 -23.5t23.5 -57.5zM571 693q0 -33 -24.5 -56.5t-58.5 -23.5t-58 23.5t-24 56.5q0 34 24.5 57.5t59.5 23.5q34 0 57.5 -23.5t23.5 -57.5zM585 329q0 -150 -84.5 -246.5 t-226.5 -96.5q-107 0 -172 65t-65 175q0 150 85 247.5t226 97.5q104 0 170.5 -63t66.5 -179zM430 400q0 51 -22 78t-61 27q-65 0 -99 -69q-58 -121 -58 -273q0 -54 21.5 -83.5t63.5 -29.5q62 0 95 62q26 51 43 132t17 156z" />
<glyph unicode="&#xf7;" horiz-adv-x="621" d="M52 236l13 70h506l-14 -70h-505zM418 474q0 -32 -20.5 -53.5t-50.5 -21.5t-50.5 21t-20.5 52q0 30 20.5 51.5t50.5 21.5q29 0 50 -21t21 -50zM343 64q0 -31 -21 -52.5t-50 -21.5q-30 0 -51 20.5t-21 51.5q0 30 21 51.5t51 21.5q29 0 50 -21t21 -50z" />
<glyph unicode="&#xf8;" horiz-adv-x="630" d="M578 573l-56 -69q63 -66 63 -175q0 -150 -84.5 -246.5t-226.5 -96.5q-78 0 -137 36l-58 -73l-39 30l59 75q-62 64 -62 172q0 150 85 247.5t226 97.5q79 0 136 -36l55 69zM371 112q26 49 42.5 126.5t18.5 151.5l-233 -290q20 -50 76 -50q64 0 96 62zM247 436 q-58 -119 -58 -270l232 291q-20 48 -74 48q-66 0 -100 -69z" />
<glyph unicode="&#xf9;" horiz-adv-x="641" d="M536 640l-25 -35l-240 96l77 125zM467 219l43 220q4 21 4 33q0 22 -12.5 30.5t-43.5 8.5l9 48h208l-9 -48q-40 0 -56 -14.5t-24 -57.5l-44 -219q-12 -63 -28.5 -104t-45.5 -72t-73 -44.5t-108 -13.5q-212 0 -212 161q0 41 9 91l39 201q4 23 4 33q0 22 -12.5 30.5 t-43.5 8.5l9 48h284l-9 -48q-40 0 -56 -14.5t-24 -57.5l-40 -210q-10 -50 -10 -73q0 -95 98 -95q65 0 95.5 37.5t48.5 120.5z" />
<glyph unicode="&#xfa;" horiz-adv-x="641" d="M301 640l188 186l78 -125l-240 -96zM467 219l43 220q4 21 4 33q0 22 -12.5 30.5t-43.5 8.5l9 48h208l-9 -48q-40 0 -56 -14.5t-24 -57.5l-44 -219q-12 -63 -28.5 -104t-45.5 -72t-73 -44.5t-108 -13.5q-212 0 -212 161q0 41 9 91l39 201q4 23 4 33q0 22 -12.5 30.5 t-43.5 8.5l9 48h284l-9 -48q-40 0 -56 -14.5t-24 -57.5l-40 -210q-10 -50 -10 -73q0 -95 98 -95q65 0 95.5 37.5t48.5 120.5z" />
<glyph unicode="&#xfb;" horiz-adv-x="641" d="M419 682l-165 -78l-22 36l210 174l136 -179l-25 -32zM467 219l43 220q4 21 4 33q0 22 -12.5 30.5t-43.5 8.5l9 48h208l-9 -48q-40 0 -56 -14.5t-24 -57.5l-44 -219q-12 -63 -28.5 -104t-45.5 -72t-73 -44.5t-108 -13.5q-212 0 -212 161q0 41 9 91l39 201q4 23 4 33 q0 22 -12.5 30.5t-43.5 8.5l9 48h284l-9 -48q-40 0 -56 -14.5t-24 -57.5l-40 -210q-10 -50 -10 -73q0 -95 98 -95q65 0 95.5 37.5t48.5 120.5z" />
<glyph unicode="&#xfc;" horiz-adv-x="641" d="M381 693q0 -33 -24.5 -56.5t-58.5 -23.5t-58 23.5t-24 56.5q0 34 24.5 57.5t59.5 23.5q34 0 57.5 -23.5t23.5 -57.5zM604 693q0 -33 -24.5 -56.5t-58.5 -23.5t-58 23.5t-24 56.5q0 34 24.5 57.5t59.5 23.5q34 0 57.5 -23.5t23.5 -57.5zM467 219l43 220q4 21 4 33 q0 22 -12.5 30.5t-43.5 8.5l9 48h208l-9 -48q-40 0 -56 -14.5t-24 -57.5l-44 -219q-12 -63 -28.5 -104t-45.5 -72t-73 -44.5t-108 -13.5q-212 0 -212 161q0 41 9 91l39 201q4 23 4 33q0 22 -12.5 30.5t-43.5 8.5l9 48h284l-9 -48q-40 0 -56 -14.5t-24 -57.5l-40 -210 q-10 -50 -10 -73q0 -95 98 -95q65 0 95.5 37.5t48.5 120.5z" />
<glyph unicode="&#xfd;" horiz-adv-x="569" d="M242 640l188 186l78 -125l-240 -96zM180 116l20 101l-83 230q-13 37 -25 49.5t-38 16.5l9 46h265l-9 -46q-51 -1 -51 -37q0 -10 6 -29l49 -152h6l110 152q18 25 18 41q0 23 -48 25l9 46h211l-9 -46q-29 -4 -46 -17t-47 -52l-174 -224l-21 -104q-3 -18 -3 -30 q0 -23 14.5 -32t49.5 -10l-8 -44h-302l8 44q45 1 63 15t26 57z" />
<glyph unicode="&#xfe;" horiz-adv-x="561" d="M401 311q0 40 -21.5 56t-66.5 16h-30l-38 -194h27q58 0 84 16q45 30 45 106zM79 116l63 323q4 24 4 33q0 22 -12.5 30.5t-43.5 8.5l9 48h284l-9 -48q-39 0 -55 -12.5t-23 -49.5h46q98 0 152.5 -31.5t54.5 -113.5q0 -112 -114 -157q-54 -21 -145 -21h-57l-2 -10 q-3 -18 -3 -30q0 -23 14.5 -32t50.5 -10l-8 -44h-294l8 44q40 1 56 15t24 57z" />
<glyph unicode="&#xff;" horiz-adv-x="569" d="M344 693q0 -33 -24.5 -56.5t-58.5 -23.5t-58 23.5t-24 56.5q0 34 24.5 57.5t59.5 23.5q34 0 57.5 -23.5t23.5 -57.5zM567 693q0 -33 -24.5 -56.5t-58.5 -23.5t-58 23.5t-24 56.5q0 34 24.5 57.5t59.5 23.5q34 0 57.5 -23.5t23.5 -57.5zM180 116l20 101l-83 230 q-13 37 -25 49.5t-38 16.5l9 46h265l-9 -46q-51 -1 -51 -37q0 -10 6 -29l49 -152h6l110 152q18 25 18 41q0 23 -48 25l9 46h211l-9 -46q-29 -4 -46 -17t-47 -52l-174 -224l-21 -104q-3 -18 -3 -30q0 -23 14.5 -32t49.5 -10l-8 -44h-302l8 44q45 1 63 15t26 57z" />
<glyph unicode="&#x152;" horiz-adv-x="932" d="M855 0h-503q-141 0 -221.5 69t-80.5 204q0 179 108 300.5t290 121.5h518l-21 -169h-74q-6 61 -20.5 79.5t-64.5 18.5h-108l-46 -238h61q46 0 65 14t31 57h66l-41 -209h-66q2 16 2 23q0 27 -15.5 37.5t-54.5 10.5h-61l-49 -252h123q51 0 76.5 24t44.5 92h76zM413 67 l108 557h-61q-59 0 -99.5 -18t-70.5 -64q-36 -55 -56 -137.5t-20 -169.5q0 -79 37 -123.5t109 -44.5h53z" />
<glyph unicode="&#x153;" horiz-adv-x="857" d="M309 65h49l83 425h-53q-102 0 -145 -83q-53 -103 -53 -225q0 -117 119 -117zM768 0h-490q-116 0 -179 57t-63 168q0 149 93 241.5t240 92.5h484l-20 -159h-68q-3 56 -17 73t-60 17h-96l-32 -174h30q42 0 54 7.5t22 42.5h62l-30 -162h-63q5 35 -4.5 43t-51.5 8h-32 l-37 -190h100q52 0 77 21.5t44 88.5h72z" />
<glyph unicode="&#x178;" horiz-adv-x="627" d="M207 117l28 144l-93 322q-10 36 -23 48t-40 16l9 48h271l-9 -48q-65 -1 -48 -64l59 -238h5l148 239q14 23 14 37q0 25 -45 26l9 48h217l-8 -48q-31 -4 -48 -15.5t-41 -46.5l-219 -322l-28 -146q-8 -43 4.5 -57t58.5 -14l-8 -46h-312l8 46q46 0 65 14.5t26 56.5zM400 817 q0 -33 -24 -56.5t-58 -23.5t-58 23.5t-24 56.5q0 34 24 57.5t59 23.5q34 0 57.5 -23.5t23.5 -57.5zM623 817q0 -33 -24 -56.5t-58 -23.5t-58 23.5t-24 56.5q0 34 24 57.5t59 23.5q34 0 57.5 -23.5t23.5 -57.5z" />
<glyph unicode="&#x2c6;" horiz-adv-x="525" d="M274 635l-165 -78l-22 36l210 174l136 -179l-25 -32z" />
<glyph unicode="&#x2dc;" horiz-adv-x="532" d="M333 686q49 0 72 45l38 -16q-14 -57 -44 -93.5t-70 -36.5q-30 0 -73 15.5t-62 15.5q-45 0 -70 -48l-35 16q9 57 38.5 96.5t71.5 39.5q29 0 70.5 -17t63.5 -17z" />
<glyph unicode="&#x3bc;" horiz-adv-x="592" d="M-26 -211l135 567q5 19 5 40q0 25 -16 36t-52 11l8 39q66 33 127 33q85 0 85 -85q0 -25 -7 -53l-51 -221q-5 -22 -5 -32q0 -33 33 -33q53 0 122 110l65 308h143l-77 -371q-5 -25 -5 -38q0 -19 11 -27t36 -8q6 0 28 2l3 -41q-62 -35 -131 -35q-93 0 -93 93q0 2 0.5 7 t0.5 8q-56 -112 -144 -112q-27 0 -40 16l-4 -4l1 -5v-10q0 -34 -13 -82l-21 -84z" />
<glyph unicode="&#x2013;" horiz-adv-x="585" d="M525 233h-485l19 95h486z" />
<glyph unicode="&#x2014;" horiz-adv-x="810" d="M751 233h-711l19 95h711z" />
<glyph unicode="&#x2018;" horiz-adv-x="256" d="M72 502q0 75 59 131.5t145 75.5l22 -39q-51 -15 -81.5 -39.5t-30.5 -49.5q0 -22 28 -35q45 -21 45 -65q0 -35 -24.5 -58.5t-63.5 -23.5q-48 0 -73.5 29.5t-25.5 73.5z" />
<glyph unicode="&#x2019;" horiz-adv-x="256" d="M296 605q0 -75 -58.5 -131.5t-144.5 -75.5l-22 38q52 16 82 40t30 50q0 22 -28 35q-45 19 -45 65q0 35 24.5 58.5t63.5 23.5q48 0 73 -29.5t25 -73.5z" />
<glyph unicode="&#x201a;" horiz-adv-x="253" d="M181 51q0 -75 -59 -131.5t-144 -75.5l-22 38q52 16 82 40t30 50q0 22 -28 35q-45 19 -45 65q0 35 24.5 58.5t63.5 23.5q48 0 73 -29.5t25 -73.5z" />
<glyph unicode="&#x201c;" horiz-adv-x="482" d="M72 502q0 75 59 131.5t145 75.5l22 -39q-51 -15 -81.5 -39.5t-30.5 -49.5q0 -22 28 -35q45 -21 45 -65q0 -35 -24.5 -58.5t-63.5 -23.5q-48 0 -73.5 29.5t-25.5 73.5zM298 502q0 75 59 131.5t144 75.5l22 -39q-51 -15 -81.5 -39.5t-30.5 -49.5q0 -22 28 -35 q45 -21 45 -65q0 -35 -24.5 -58.5t-63.5 -23.5q-48 0 -73 29.5t-25 73.5z" />
<glyph unicode="&#x201d;" horiz-adv-x="482" d="M522 605q0 -75 -59 -131.5t-144 -75.5l-22 38q52 16 82 40t30 50q0 21 -28 35q-45 19 -45 65q0 35 24.5 58.5t62.5 23.5q48 0 73.5 -29.5t25.5 -73.5zM296 605q0 -75 -58.5 -131.5t-144.5 -75.5l-22 38q52 16 82 40t30 50q0 22 -28 35q-45 19 -45 65q0 35 24.5 58.5 t63.5 23.5q48 0 73 -29.5t25 -73.5z" />
<glyph unicode="&#x201e;" horiz-adv-x="478" d="M407 50q0 -75 -59 -131.5t-145 -75.5l-21 38q51 16 81 40.5t30 49.5q0 13 -6 20.5t-21 14.5q-45 20 -45 65q0 35 24.5 58.5t62.5 23.5q48 0 73.5 -29.5t25.5 -73.5zM181 50q0 -75 -59 -131.5t-144 -75.5l-22 38q51 16 81.5 40.5t30.5 49.5q0 22 -28 35q-45 21 -45 65 q0 35 24.5 58.5t63.5 23.5q48 0 73 -29.5t25 -73.5z" />
<glyph unicode="&#x2022;" horiz-adv-x="517" d="M435 335q0 -73 -51 -125t-123 -52t-122.5 51.5t-50.5 125.5t50.5 125.5t122.5 51.5t123 -52t51 -125z" />
<glyph unicode="&#x2026;" horiz-adv-x="820" d="M748 82q0 -40 -27.5 -67.5t-65.5 -27.5t-65.5 27.5t-27.5 67.5q0 38 27 65.5t65 27.5q39 0 66.5 -27.5t27.5 -65.5zM207 82q0 -39 -27.5 -67t-65.5 -28q-39 0 -66 27.5t-27 67.5q0 38 27 65.5t65 27.5t66 -27.5t28 -65.5zM478 82q0 -40 -28 -67.5t-66 -27.5t-65.5 27.5 t-27.5 67.5q0 38 27.5 65.5t65.5 27.5t66 -27.5t28 -65.5z" />
<glyph unicode="&#x2039;" horiz-adv-x="358" d="M183 250l76 -188l-51 -39l-175 229l254 227l41 -42z" />
<glyph unicode="&#x203a;" horiz-adv-x="358" d="M175 253l-75 187l50 39l175 -228l-254 -228l-41 43z" />
<glyph unicode="&#x20ac;" horiz-adv-x="653" d="M513 384h-243q-8 -38 -11 -70h241l-11 -56h-235v-32q0 -170 105 -170q53 0 84 29t53 92h108l-27 -138q-35 -23 -99.5 -38t-129.5 -15q-254 0 -254 272h-84l10 56h77q3 31 11 70h-74l11 55h79q43 120 135.5 193.5t215.5 73.5q127 0 198 -51l-27 -135h-107q-2 64 -15.5 90 t-58.5 26q-62 0 -108.5 -54t-73.5 -143h242z" />
<glyph unicode="&#x2122;" horiz-adv-x="1122" d="M218 410l47 238h-13q-48 0 -66.5 -20t-37.5 -85h-45l30 152h385l-22 -152h-44v11q0 57 -12.5 75.5t-52.5 18.5h-8l-47 -238q-6 -34 -6 -41q0 -19 13 -26.5t47 -8.5l-6 -35h-252l6 35q48 1 61.5 15.5t22.5 60.5zM1132 695l-7 -35q-34 -2 -43 -12.5t-13 -45.5l-23 -195 q-5 -44 4.5 -59.5t39.5 -17.5l-6 -32h-219l6 32q35 2 47 15.5t17 60.5l14 126q3 25 17 87h-5q-14 -38 -41 -88l-121 -233h-77l-31 233q-6 51 -6 88h-6q-19 -84 -20 -89l-32 -124q-7 -25 -7 -43t11 -24.5t38 -7.5l-7 -33h-175l7 33q33 2 49 15.5t27 58.5l52 196q5 20 5 30 q0 15 -10.5 22t-36.5 8l7 34h193l27 -201q4 -29 4 -57q0 -21 -1 -31h5q4 31 32 86l101 203h184z" />
</font>
</defs>
</svg>
