<?xml version="1.0" standalone="no"?>
<!DOCTYPE svg PUBLIC "-//W3C//DTD SVG 1.1//EN" "http://www.w3.org/Graphics/SVG/1.1/DTD/svg11.dtd" >
<svg xmlns="http://www.w3.org/2000/svg">
<metadata>
This is a custom SVG webfont generated by Font Squirrel.
</metadata>
<defs>
<font id="webfontqH2D4c1Z" horiz-adv-x="570" >
<font-face units-per-em="1000" ascent="800" descent="-200" />
<missing-glyph horiz-adv-x="225" />
<glyph unicode=" "  horiz-adv-x="225" />
<glyph unicode="&#x09;" horiz-adv-x="225" />
<glyph unicode="&#xa0;" horiz-adv-x="225" />
<glyph unicode="!" horiz-adv-x="315" d="M249 704l-45 -481h-93l-47 464zM249 81q0 -38 -27 -65.5t-65 -27.5q-37 0 -64 27.5t-27 65.5q0 37 27 63.5t64 26.5q38 0 65 -26.5t27 -63.5z" />
<glyph unicode="&#x22;" horiz-adv-x="448" d="M363 453h-99v256h99v-256zM184 453h-99v256h99v-256z" />
<glyph unicode="#" horiz-adv-x="573" d="M541 422h-109l-18 -128h97v-83h-108l-30 -211h-76l29 211h-125l-29 -211h-76l29 211h-93v83h105l18 128h-94v84h105l28 203h76l-28 -203h125l28 203h76l-28 -203h98v-84zM356 422h-125l-18 -128h125z" />
<glyph unicode="$" horiz-adv-x="577" d="M253 -101v89q-128 2 -223 56v133h110q7 -64 34 -94.5t79 -35.5v236l-44 11q-88 22 -131.5 67.5t-43.5 129.5q0 96 58 151.5t161 63.5v86h55v-85q114 -3 198 -49v-137h-107q-7 53 -27 82.5t-64 37.5v-212l41 -10q95 -24 144.5 -72t49.5 -135q0 -99 -60.5 -156t-174.5 -66 v-91h-55zM400 158q0 43 -21 69.5t-71 41.5v-220q92 16 92 109zM166 547q0 -40 20 -64.5t67 -38.5v198q-42 -5 -64.5 -30t-22.5 -65z" />
<glyph unicode="%" horiz-adv-x="1001" d="M396 453q0 -104 -53 -158t-133 -54q-85 0 -132.5 52.5t-47.5 155.5q0 105 50.5 158.5t135.5 53.5q78 0 129 -54.5t51 -153.5zM272 453q0 161 -62 161q-61 0 -61 -159q0 -91 14 -131t48 -40q61 0 61 169zM971 203q0 -104 -53 -158t-133 -54q-85 0 -132.5 52.5t-47.5 155.5 q0 105 50.5 158.5t135.5 53.5q78 0 129 -54.5t51 -153.5zM847 203q0 161 -62 161q-61 0 -61 -159q0 -91 14 -131t48 -40q61 0 61 169zM767 730l-487 -853h-69l487 853h69z" />
<glyph unicode="&#x26;" horiz-adv-x="715" d="M23 159q0 69 41 111.5t121 70.5l-40 41q-72 74 -72 150q0 72 59.5 120.5t161.5 48.5q99 0 154.5 -39t55.5 -114q0 -58 -40.5 -99t-111.5 -74l173 -182q18 56 18 90q0 32 -14 43t-58 14v43h221v-43q-40 -1 -53.5 -12t-19.5 -46q-13 -75 -50 -137l61 -63q35 -38 85 -38v-44 h-204l-45 46q-84 -58 -205 -58q-108 0 -173 44t-65 127zM318 52q67 0 111 34l-205 213q-50 -47 -50 -117q0 -58 39.5 -94t104.5 -36zM303 427l14 -14q36 32 49.5 62t13.5 78q0 42 -22 65t-62 23q-37 0 -58 -20.5t-21 -59.5q0 -31 19.5 -59t66.5 -75z" />
<glyph unicode="'" horiz-adv-x="269" d="M184 453h-99v256h99v-256z" />
<glyph unicode="(" horiz-adv-x="341" d="M321 -105l-24 -46q-145 52 -201.5 163.5t-56.5 303.5q0 190 56.5 296.5t201.5 162.5l24 -45q-84 -54 -112 -155t-28 -258q0 -76 5 -132.5t18.5 -115.5t43 -103t73.5 -71z" />
<glyph unicode=")" horiz-adv-x="341" d="M20 -105q45 27 74 70t43 102t19 115.5t5 134.5q0 156 -28.5 257.5t-112.5 155.5l24 45q145 -56 201.5 -162.5t56.5 -296.5q0 -193 -56.5 -304t-201.5 -163z" />
<glyph unicode="*" horiz-adv-x="461" d="M421 561l-115 -65l58 -124l-37 -29l-98 98l-95 -95l-36 27l56 123l-114 67l13 41l132 -18l25 130h42l25 -130l130 17z" />
<glyph unicode="+" horiz-adv-x="576" d="M249 507h77v-201h195v-70h-195v-203h-77v203h-194v70h194v201z" />
<glyph unicode="," horiz-adv-x="291" d="M236 45q0 -76 -46 -126t-133 -68l-30 40q104 32 104 79q0 16 -8.5 24.5t-28.5 16.5q-49 22 -49 69q0 34 25.5 58.5t63.5 24.5q44 0 73 -33.5t29 -84.5z" />
<glyph unicode="-" horiz-adv-x="348" d="M300 222h-252v115h252v-115z" />
<glyph unicode="." horiz-adv-x="288" d="M237 81q0 -39 -27.5 -66.5t-65.5 -27.5q-39 0 -66 27.5t-27 66.5q0 38 27 65t66 27q38 0 65.5 -27t27.5 -65z" />
<glyph unicode="/" horiz-adv-x="423" d="M379 768l-260 -917h-96l260 917h96z" />
<glyph unicode="0" d="M537 334q0 -171 -72 -259t-182 -88q-116 0 -183 86.5t-67 255.5q0 172 70 259.5t186 87.5q107 0 177.5 -89.5t70.5 -252.5zM378 335q0 148 -24 209t-70 61q-31 0 -51 -23.5t-31.5 -83.5t-11.5 -160q0 -158 21.5 -221t73.5 -63q46 0 69.5 64.5t23.5 216.5z" />
<glyph unicode="1" d="M380 663v-542q0 -46 24 -60t106 -14v-47h-414v47q82 0 109 14.5t27 60.5v429q-67 -36 -140 -58l-20 47l213 123h95z" />
<glyph unicode="2" d="M272 676q99 0 158 -50t59 -137q0 -47 -15.5 -87.5t-53 -80.5t-67 -64.5t-89.5 -70.5l-94 -72h340l-17 -114h-451v77l101 99q98 96 136.5 155t38.5 135q0 57 -29 84.5t-75 27.5q-68 0 -126 -43l-33 54q85 87 217 87z" />
<glyph unicode="3" d="M219 587q-71 0 -135 -40l-32 55q98 73 220 73q93 0 146.5 -42t53.5 -119q0 -120 -135 -157q71 -12 112.5 -56t41.5 -104q0 -75 -49 -128.5t-119.5 -77t-151.5 -23.5q-69 0 -129 15l-12 58q73 -10 106 -10q97 0 144 45t47 117q0 61 -35.5 92t-98.5 31q-31 0 -48 -2v70 q30 -2 59 -2q55 0 82.5 25.5t27.5 86.5q0 93 -95 93z" />
<glyph unicode="4" d="M316 -31v186h-295v66l218 443h149l-253 -444h181q1 89 11.5 146t38.5 114l100 18v-278h84v-65h-84v-167z" />
<glyph unicode="5" d="M486 207q0 -79 -46 -135t-115 -80.5t-152 -24.5q-71 0 -125 18l-12 57q51 -13 111 -13q71 0 125 38.5t54 118.5q0 126 -125 126q-59 0 -107 -20l34 370h349l-15 -121h-270l-16 -166q52 15 99 15q94 0 152.5 -47.5t58.5 -135.5z" />
<glyph unicode="6" d="M471 642q-115 -44 -178 -103.5t-85 -155.5q54 35 119 35q90 0 148 -52.5t58 -152.5q0 -106 -67 -166.5t-182 -60.5q-117 0 -180.5 71.5t-63.5 201.5q0 75 23.5 139.5t63 111.5t94 84.5t111.5 61.5t121 39zM287 347q-49 0 -89 -23q-4 -35 -4 -72q0 -103 27 -155.5 t75 -52.5q45 0 65 37.5t20 116.5t-22 114t-72 35z" />
<glyph unicode="7" d="M512 661l-17 -112q-169 -227 -224 -559l-157 -27q33 142 114.5 293.5t179.5 281.5h-353l17 123h440z" />
<glyph unicode="8" d="M30 160q0 57 41 96t105 61q-58 27 -89 67.5t-31 105.5q0 92 67 139t161 47q102 0 163 -41.5t61 -113.5q0 -99 -129 -145q79 -31 119.5 -72t40.5 -118q0 -93 -68.5 -146t-188.5 -53q-126 0 -189 45.5t-63 127.5zM397 151q0 47 -31 71t-114 57l-30 12q-55 -55 -55 -125 q0 -56 30.5 -86t84.5 -30q53 0 84 27t31 74zM194 521q0 -38 25.5 -63t101.5 -55q27 24 40 48t13 64q0 95 -89 95q-43 0 -67 -23t-24 -66z" />
<glyph unicode="9" d="M277 135q59 62 79 142q-52 -32 -116 -32q-90 0 -145.5 52.5t-55.5 152.5q0 106 65 166t177 60t179.5 -73t67.5 -203q0 -93 -38.5 -172t-103.5 -133t-140 -90t-159 -55l-43 45q150 52 233 140zM280 316q50 0 89 21q5 40 5 72q0 102 -27 156t-74 54q-45 0 -65.5 -38 t-20.5 -117q0 -75 22 -111.5t71 -36.5z" />
<glyph unicode=":" horiz-adv-x="314" d="M250 81q0 -39 -27.5 -66.5t-65.5 -27.5q-39 0 -66 27.5t-27 66.5q0 38 27 65t66 27q38 0 65.5 -27t27.5 -65zM250 373q0 -39 -27.5 -66.5t-65.5 -27.5q-39 0 -66 27.5t-27 66.5q0 38 27 65.5t66 27.5q38 0 65.5 -27.5t27.5 -65.5z" />
<glyph unicode=";" horiz-adv-x="314" d="M252 45q0 -76 -46 -126t-133 -68l-29 40q104 32 104 79q0 16 -8.5 24.5t-28.5 16.5q-49 21 -49 69q0 34 25.5 58.5t63.5 24.5q44 0 72.5 -33.5t28.5 -84.5zM244 373q0 -39 -27.5 -66.5t-65.5 -27.5q-39 0 -66 27.5t-27 66.5q0 38 27 65.5t66 27.5q38 0 65.5 -27.5 t27.5 -65.5z" />
<glyph unicode="&#x3c;" horiz-adv-x="483" d="M428 47l-373 201v82l373 235v-90l-294 -182l294 -161v-85z" />
<glyph unicode="=" horiz-adv-x="576" d="M55 159v71h466v-71h-466zM55 315v72h466v-72h-466z" />
<glyph unicode="&#x3e;" horiz-adv-x="483" d="M428 248l-373 -201v85l294 161l-294 182v90l373 -235v-82z" />
<glyph unicode="?" horiz-adv-x="469" d="M309 81q0 -39 -28 -66.5t-66 -27.5t-65 27.5t-27 66.5q0 37 27 64t65 27t66 -27t28 -64zM217 636q-35 0 -56 -24.5t-24 -70.5h-99v116q34 21 86.5 35t104.5 14q93 0 149.5 -39.5t56.5 -119.5q0 -32 -10 -59.5t-29 -47.5t-31 -29.5t-31 -22.5q-57 -38 -74.5 -58.5 t-17.5 -59.5q0 -18 4 -48h-64q-33 38 -33 91q0 61 68 123q24 22 35.5 34.5t23 37.5t11.5 54q0 33 -19 53.5t-51 20.5z" />
<glyph unicode="@" horiz-adv-x="907" d="M601 7q-70 0 -100.5 22t-30.5 68q-26 -45 -59 -68.5t-83 -23.5q-51 0 -79.5 32.5t-28.5 93.5q0 130 84 225t207 95q102 0 156 -33q-17 -46 -27 -92l-44 -201q-4 -17 -4 -32q0 -36 47 -36q57 0 96 58t39 168q0 148 -79.5 221.5t-217.5 73.5q-155 0 -250.5 -103.5 t-95.5 -281.5q0 -145 81.5 -233.5t222.5 -88.5q89 0 161 24l15 -36q-88 -35 -188 -35q-169 0 -275 97.5t-106 272.5q0 189 124 310t313 121q175 0 281 -94t106 -249q0 -138 -76 -206.5t-189 -68.5zM484 181l48 199q-15 16 -39 16q-62 0 -104.5 -81.5t-42.5 -174.5 q0 -56 35 -56q41 0 103 97z" />
<glyph unicode="A" horiz-adv-x="671" d="M435 101l-27 86h-214l-25 -86q-9 -34 2.5 -43.5t57.5 -11.5v-46h-221v46q33 4 47.5 16t26.5 51l189 582h126l199 -582q13 -38 25.5 -50.5t41.5 -16.5v-46h-284v46q44 2 54.5 13.5t1.5 41.5zM264 428l-49 -167h169l-54 169q-14 45 -30 113h-5q-13 -58 -31 -115z" />
<glyph unicode="B" horiz-adv-x="634" d="M349 695q111 0 174.5 -46.5t63.5 -137.5q0 -128 -148 -154v-4q175 -19 175 -172q0 -181 -237 -181h-348v46q40 0 54 14.5t14 56.5v458q0 42 -14 56.5t-54 15.5v48h320zM421 505q0 66 -24.5 92.5t-84.5 26.5h-58v-237h62q59 0 82 24.5t23 93.5zM450 193q0 68 -26.5 96.5 t-90.5 28.5h-79v-251h79q64 0 90.5 27t26.5 99z" />
<glyph unicode="C" horiz-adv-x="620" d="M356 -12q-153 0 -234 91t-81 259q0 184 86.5 276.5t236.5 92.5q137 0 214 -50v-136h-108q-13 61 -36 88t-72 27q-75 0 -110.5 -64t-35.5 -228q0 -88 10 -146.5t30.5 -88.5t45.5 -41.5t60 -11.5q57 0 82.5 27.5t35.5 91.5h103v-132q-32 -24 -93.5 -39.5t-133.5 -15.5z" />
<glyph unicode="D" horiz-adv-x="691" d="M319 695q331 0 331 -351q0 -169 -84 -256.5t-251 -87.5h-286v45q40 1 54 15.5t14 56.5v458q0 43 -14 57.5t-54 14.5v48h290zM481 337q0 114 -19 177t-55 87t-100 24h-52v-558h49q66 0 102.5 20.5t55.5 79.5t19 170z" />
<glyph unicode="E" horiz-adv-x="593" d="M29 0v46q40 0 54 14.5t14 56.5v458q0 42 -14 56.5t-54 15.5v48h500l12 -169h-74q-18 61 -35.5 79.5t-68.5 18.5h-109v-238h62q46 0 62.5 14t19.5 57h66v-209h-66q-3 41 -19 56t-62 15h-63v-252h124q51 0 72 24t27 92h76v-183h-524z" />
<glyph unicode="F" horiz-adv-x="577" d="M254 118q0 -43 17 -57.5t68 -14.5v-46h-310v46q40 0 54 14.5t14 56.5v458q0 42 -14 56.5t-54 15.5v48h501l12 -171h-74q-19 63 -37 81.5t-70 18.5h-107v-243h62q46 0 62.5 14t19.5 57h66v-210h-66q-3 42 -19.5 57t-61.5 15h-63v-196z" />
<glyph unicode="G" horiz-adv-x="695" d="M366 636q-79 0 -115 -68.5t-36 -225.5q0 -161 36.5 -224t113.5 -63q58 0 88 22v153q0 43 -16 57.5t-65 14.5v48h302v-48q-37 0 -51 -15t-14 -57v-177q-85 -65 -249 -65q-151 0 -235 91t-84 259q0 184 88.5 276.5t239.5 92.5q141 0 222 -51v-136h-110q-12 62 -36 89 t-79 27z" />
<glyph unicode="H" horiz-adv-x="746" d="M254 575v-181h238v181q0 42 -14.5 56.5t-54.5 15.5v48h294v-48q-40 -1 -54.5 -15.5t-14.5 -56.5v-458q0 -42 14.5 -56.5t54.5 -14.5v-46h-294v46q40 0 54.5 14.5t14.5 56.5v202h-238v-202q0 -42 14.5 -56.5t54.5 -14.5v-46h-294v46q40 0 54 14.5t14 56.5v458 q0 42 -14 56.5t-54 15.5v48h294v-48q-40 -1 -54.5 -15.5t-14.5 -56.5z" />
<glyph unicode="I" horiz-adv-x="351" d="M254 575v-458q0 -42 14.5 -56.5t54.5 -14.5v-46h-294v46q40 0 54 14.5t14 56.5v458q0 42 -14 56.5t-54 15.5v48h294v-48q-40 -1 -54.5 -15.5t-14.5 -56.5z" />
<glyph unicode="J" horiz-adv-x="354" d="M256 575v-468q0 -116 -61 -172.5t-190 -81.5l-26 45q77 36 98.5 75.5t21.5 126.5v475q0 42 -14.5 57t-55.5 15v48h297v-48q-41 0 -55.5 -15t-14.5 -57z" />
<glyph unicode="K" horiz-adv-x="684" d="M254 575v-458q0 -42 14.5 -56.5t54.5 -14.5v-46h-294v46q40 0 54 14.5t14 56.5v458q0 42 -14 56.5t-54 15.5v48h294v-48q-40 -1 -54.5 -15.5t-14.5 -56.5zM466 0l-196 346l190 246q12 16 12 29q0 27 -42 27v47h224v-47q-32 -4 -55 -19t-53 -52l-140 -171l182 -311 q16 -28 33 -37.5t51 -11.5v-46h-206z" />
<glyph unicode="L" horiz-adv-x="562" d="M254 67h94q50 0 76.5 27.5t40.5 97.5h77l-14 -192h-499v46q40 0 54 14.5t14 56.5v458q0 42 -14 56.5t-54 15.5v48h295v-48q-41 -1 -55.5 -15.5t-14.5 -56.5v-508z" />
<glyph unicode="M" horiz-adv-x="879" d="M824 695v-47q-43 -2 -58 -14t-15 -41q0 -11 1 -21l40 -450q4 -45 16.5 -60.5t52.5 -16.5v-45h-291v45q41 2 54.5 11.5t13.5 37.5q0 14 -1 23l-27 323q-3 40 -3 102v22h-5q-10 -63 -24 -115l-124 -449h-93l-131 423q-18 59 -31 142h-5q0 -1 -2 -56t-4 -82l-19 -309 q-2 -44 10 -58.5t55 -14.5v-45h-216v45q41 1 54 17t16 62l31 448q1 12 1 22q0 29 -15 40.5t-58 13.5v47h258l108 -349q18 -62 27 -135h4q11 76 27 135l95 349h258z" />
<glyph unicode="N" horiz-adv-x="704" d="M618 0h-112l-245 380q-47 74 -83 149h-4q9 -63 9 -153v-259q0 -42 14.5 -56.5t54.5 -14.5v-46h-223v46q40 0 54 14.5t14 56.5v458q0 42 -14 56.5t-54 15.5v48h230l213 -333q43 -67 66 -131h5q-9 67 -9 150v194q0 42 -14.5 56.5t-54.5 15.5v48h219v-48q-39 -1 -52.5 -15.5 t-13.5 -56.5v-575z" />
<glyph unicode="O" horiz-adv-x="706" d="M665 338q0 -167 -82 -258.5t-229 -91.5q-150 0 -231.5 92.5t-81.5 259.5q0 183 84.5 275t227.5 92q146 0 229 -95t83 -274zM491 343q0 161 -32.5 227t-105.5 66t-105.5 -64t-32.5 -223q0 -165 33 -230.5t106 -65.5q46 0 74 22.5t45.5 88t17.5 179.5z" />
<glyph unicode="P" horiz-adv-x="605" d="M254 118q0 -43 17 -57.5t68 -14.5v-46h-310v46q40 0 54 14.5t14 56.5v458q0 42 -14 56.5t-54 15.5v48h318q249 0 249 -212q0 -94 -57.5 -155t-189.5 -61h-95v-149zM429 481q0 80 -25.5 111.5t-90.5 31.5h-59v-283h67q60 0 84 30t24 110z" />
<glyph unicode="Q" horiz-adv-x="707" d="M468 16q10 -2 75 -20.5t94 -18.5q31 0 63 7l-27 -110q-21 -15 -66 -15q-41 0 -76 15.5t-78 46.5t-63 42q-27 15 -79.5 25.5t-67.5 15.5q-97 30 -149.5 115.5t-52.5 220.5q0 183 84.5 275t227.5 92q146 0 229 -95t83 -274q0 -128 -53.5 -216t-143.5 -106zM491 343 q0 161 -32.5 227t-105.5 66t-105.5 -64t-32.5 -223q0 -165 33 -230.5t106 -65.5q46 0 74 22.5t45.5 88t17.5 179.5z" />
<glyph unicode="R" horiz-adv-x="662" d="M584 104q15 -32 29 -44.5t47 -13.5v-46h-202q-57 135 -97 207q-26 47 -47.5 64t-59.5 21v-175q0 -41 14.5 -56t53.5 -15v-46h-293v46q40 0 54 14.5t14 56.5v458q0 42 -14 56.5t-54 15.5v48h317q114 0 180 -48t66 -152q0 -87 -53.5 -131.5t-140.5 -50.5v-4q72 -19 110 -71 q29 -41 76 -134zM425 494q0 71 -25.5 100.5t-83.5 29.5h-62v-262h60q59 0 85 28t26 104z" />
<glyph unicode="S" horiz-adv-x="551" d="M378 157q0 47 -23.5 73t-83.5 42l-71 19q-83 23 -124.5 69t-41.5 131q0 105 64.5 160.5t176.5 55.5q121 0 206 -49v-137h-102q-7 61 -33 92t-83 31q-48 0 -73.5 -26t-25.5 -71q0 -41 22 -65.5t75 -38.5l71 -18q89 -24 136.5 -74.5t47.5 -139.5q0 -108 -68.5 -166 t-196.5 -58q-125 0 -221 56v133h104q7 -69 37.5 -99.5t88.5 -30.5q118 0 118 111z" />
<glyph unicode="T" horiz-adv-x="608" d="M384 624v-507q0 -43 16.5 -57t62.5 -14v-46h-315v46q46 0 62.5 14t16.5 57v507h-43q-46 0 -61.5 -22t-30.5 -92h-75l9 185h555l11 -185h-75q-17 70 -32 92t-61 22h-40z" />
<glyph unicode="U" horiz-adv-x="690" d="M348 -12q-134 0 -196 55.5t-62 177.5v354q0 42 -14 56.5t-53 15.5v48h294v-48q-41 -1 -55.5 -15.5t-14.5 -56.5v-351q0 -85 31.5 -120t101.5 -35q69 0 103.5 36.5t34.5 121.5v348q0 42 -14 56.5t-56 15.5v48h219v-48q-39 -1 -52.5 -15.5t-13.5 -56.5v-350 q0 -237 -253 -237z" />
<glyph unicode="V" horiz-adv-x="698" d="M253 588l98 -323q19 -62 29 -129h6q17 86 31 131l97 321q4 16 4 22q0 38 -61 38v47h222v-47q-33 -4 -47.5 -16t-26.5 -50l-192 -582h-128l-200 584q-12 37 -24.5 48.5t-41.5 15.5v47h288v-47q-58 0 -58 -38q0 -8 4 -22z" />
<glyph unicode="W" horiz-adv-x="954" d="M556 695l101 -393q14 -55 33 -163h6q16 124 24 162l58 282q2 8 2 22q0 24 -14.5 33t-46.5 10v47h218v-47q-32 -4 -46.5 -17.5t-23.5 -51.5l-135 -579h-147l-84 328q-12 46 -25 148h-5q-11 -86 -27 -149l-80 -327h-148l-134 581q-9 38 -22 50.5t-43 16.5v47h282v-47 q-58 -1 -58 -41q0 -5 2 -17l59 -290q16 -79 20 -162h5q11 80 30 162l94 395h105z" />
<glyph unicode="X" horiz-adv-x="689" d="M557 584l-137 -206l166 -267q22 -35 38.5 -48t43.5 -17v-46h-304v46q53 1 53 31q0 13 -10 30l-103 174h-5l-102 -176q-9 -15 -9 -29q0 -28 53 -30v-46h-220v46q30 4 48 16.5t39 47.5l148 239l-147 237q-22 35 -35.5 46.5t-38.5 15.5v47h293v-47q-53 0 -53 -32 q0 -13 9 -28l88 -148h5l89 146q10 17 10 30q0 32 -51 32v47h215v-47q-28 -4 -44.5 -16.5t-38.5 -47.5z" />
<glyph unicode="Y" horiz-adv-x="654" d="M173 46q46 0 62 14.5t16 56.5v148l-160 318q-18 36 -33 48.5t-43 16.5v47h285v-47q-49 0 -49 -32q0 -14 9 -33l103 -220h5l101 221q9 21 9 35q0 29 -52 29v47h213v-47q-31 -4 -46.5 -16.5t-34.5 -51.5l-151 -313v-150q0 -42 16 -56.5t61 -14.5v-46h-311v46z" />
<glyph unicode="Z" horiz-adv-x="567" d="M534 638l-335 -571h137q56 0 82 27t41 96h74l-11 -190h-496v56l337 573h-125q-48 0 -70.5 -25.5t-38.5 -87.5h-77l10 178h472v-56z" />
<glyph unicode="[" horiz-adv-x="360" d="M331 -155h-241v928h241v-56h-106v-816h106v-56z" />
<glyph unicode="\" horiz-adv-x="423" d="M142 768l260 -917h-96l-260 917h96z" />
<glyph unicode="]" horiz-adv-x="360" d="M29 773h241v-928h-241v56h106v816h-106v56z" />
<glyph unicode="^" horiz-adv-x="604" d="M539 310h-103l-136 291l-133 -291h-102l189 398h96z" />
<glyph unicode="_" horiz-adv-x="496" d="M498 -125h-500v73h500v-73z" />
<glyph unicode="`" horiz-adv-x="426" d="M346 593l-26 -35l-240 96l78 125z" />
<glyph unicode="a" horiz-adv-x="540" d="M464 150q0 -56 12 -71.5t52 -17.5v-43q-39 -24 -102 -24q-90 0 -103 70q-14 -32 -49.5 -55t-89.5 -23q-71 0 -115 37t-44 111q0 167 246 167q22 0 48 -2v46q0 59 -16.5 84.5t-55.5 25.5q-40 0 -57 -23t-23 -68h-110v102q96 56 215 56q91 0 143.5 -41.5t52.5 -126.5 q0 -7 -2 -79t-2 -125zM317 243h-35q-104 0 -104 -90q0 -41 15 -58t45 -17q46 0 76 38z" />
<glyph unicode="b" horiz-adv-x="598" d="M219 443q45 78 147 78q93 0 145 -66t52 -196q0 -137 -62 -204t-167 -67q-106 0 -147 72q-14 -46 -31 -60h-98q13 35 13 117v461q0 53 -12.5 68t-51.5 17v44l179 27h15q18 -32 18 -99v-192zM406 247q0 97 -23.5 136t-70.5 39q-55 0 -93 -40v-271q36 -37 88 -37q49 0 74 37 t25 136z" />
<glyph unicode="c" horiz-adv-x="491" d="M456 481v-110h-111q-3 50 -13.5 69t-39.5 19q-43 0 -73 -43t-30 -147q0 -198 135 -198q58 0 118 36l27 -38q-69 -81 -190 -81q-106 0 -175 66t-69 192q0 130 73.5 202.5t183.5 72.5q103 0 164 -40z" />
<glyph unicode="d" horiz-adv-x="611" d="M236 -12q-92 0 -146.5 65.5t-54.5 197.5q0 134 62.5 202t165.5 68q80 0 120 -49v106q0 53 -13 68t-51 17v44l186 27h26v-585q0 -53 11.5 -67.5t52.5 -17.5v-41l-162 -36h-15q-23 34 -27 81q-22 -35 -63.5 -57.5t-91.5 -22.5zM196 262q0 -101 23.5 -141.5t70.5 -40.5 q51 0 93 42v278q-32 37 -86 37q-49 0 -75 -38t-26 -137z" />
<glyph unicode="e" horiz-adv-x="529" d="M332 74q69 0 133 35l25 -41q-82 -80 -209 -80q-116 0 -181 70.5t-65 197.5q0 125 66.5 195.5t176.5 70.5q221 0 221 -246v-43h-304q2 -85 34 -122t103 -37zM278 460q-39 0 -58 -35t-24 -124h155q0 90 -16.5 124.5t-56.5 34.5z" />
<glyph unicode="f" horiz-adv-x="350" d="M411 719v-105h-87q-1 60 -40 60q-47 0 -47 -70v-95h121l-16 -76h-104v-318q0 -43 14.5 -56t65.5 -14v-45h-290v45q38 1 49.5 14t11.5 56v318h-61v51l61 25v73q0 78 50.5 118.5t138.5 40.5q84 0 133 -22z" />
<glyph unicode="g" horiz-adv-x="548" d="M566 449q-42 -29 -82 -29q-34 0 -66 14q46 -32 46 -89q0 -63 -50.5 -107t-177.5 -44h-7q-35 -17 -35 -37q0 -22 28 -23l96 -4q101 -5 148 -37.5t47 -110.5q0 -91 -69.5 -135.5t-186.5 -44.5q-109 0 -173 27.5t-64 78.5q0 24 15 42.5t37 27.5l99 1q-12 -22 -12 -48 q0 -36 24 -52t79 -16q117 0 117 77q0 37 -27.5 50.5t-106.5 16.5q-79 2 -113 7q-38 4 -56 28t-18 59q0 37 29 64.5t81 41.5q-62 13 -96.5 51.5t-34.5 95.5q0 79 58 123.5t157 44.5q41 0 104 -17q36 -9 57 -9q49 0 101 48zM319 353q0 59 -16 83t-52 24q-33 0 -49.5 -24.5 t-16.5 -79.5q0 -103 66 -103q35 0 51.5 23.5t16.5 76.5z" />
<glyph unicode="h" horiz-adv-x="619" d="M400 521q65 0 105 -38.5t40 -112.5v-255q0 -43 11.5 -56t48.5 -14v-45h-269v45q38 1 49.5 14t11.5 54v222q0 81 -66 81q-54 0 -101 -38v-265q0 -41 11.5 -54t49.5 -14v-45h-270v45q38 1 49.5 14t11.5 56v463q0 53 -13 68t-52 17v44l180 27h15q18 -32 18 -99v-198 q75 84 170 84z" />
<glyph unicode="i" horiz-adv-x="315" d="M244 650q0 -37 -26 -62.5t-63 -25.5q-36 0 -62 25.5t-26 62.5q0 36 26.5 61.5t63.5 25.5t62 -25.5t25 -61.5zM236 115q0 -43 11 -56t49 -14v-45h-270v45q38 1 49.5 14t11.5 56v238q0 54 -11 68.5t-49 16.5v44l187 35h22v-402z" />
<glyph unicode="j" horiz-adv-x="305" d="M86 353q0 54 -11.5 68.5t-49.5 16.5v44l187 35h22v-501q0 -174 -199 -222l-29 44q45 21 62.5 60.5t17.5 117.5v337zM243 650q0 -37 -26 -62.5t-64 -25.5q-36 0 -61.5 25.5t-25.5 62.5q0 36 26.5 61.5t63.5 25.5t62 -25.5t25 -61.5z" />
<glyph unicode="k" horiz-adv-x="588" d="M230 113q0 -41 11.5 -54t49.5 -14v-45h-270v45q38 1 49.5 14t11.5 56v463q0 53 -13 68t-52 17v44l180 27h15q18 -30 18 -99v-522zM371 305l134 -205q20 -31 37 -41.5t45 -13.5v-45h-186l-163 260l129 141q17 20 17 34q0 26 -48 28v46h228v-46q-29 -4 -51.5 -18t-52.5 -46 z" />
<glyph unicode="l" horiz-adv-x="312" d="M231 116q0 -43 11.5 -56.5t50.5 -14.5v-45h-272v45q38 1 50 14t12 56v463q0 53 -13 68t-53 17v44l181 27h15q18 -29 18 -99v-519z" />
<glyph unicode="m" horiz-adv-x="910" d="M537 383v-271q0 -41 10 -53.5t45 -13.5v-45h-259v45q36 0 46 12.5t10 54.5v223q0 81 -60 81q-44 0 -93 -36v-268q0 -42 9.5 -54.5t45.5 -12.5v-45h-265v45q38 1 49.5 14t11.5 56v238q0 54 -11 68.5t-49 16.5v44l161 40h15q23 -37 27 -87q73 86 165 86q44 0 79 -23.5 t51 -64.5q71 88 169 88q63 0 102.5 -38.5t39.5 -112.5v-255q0 -43 11.5 -56t47.5 -14v-45h-263v45q36 0 46 12.5t10 54.5v223q0 81 -60 81q-42 0 -91 -33z" />
<glyph unicode="n" horiz-adv-x="625" d="M551 370v-255q0 -43 11 -56t48 -14v-45h-268v45q38 1 49 14t11 54v222q0 81 -66 81q-53 0 -100 -38v-265q0 -41 11 -54t49 -14v-45h-270v45q38 1 49.5 14t11.5 56v238q0 54 -11 68.5t-49 16.5v44l161 40h15q25 -42 29 -90q78 89 174 89q65 0 105 -38.5t40 -112.5z" />
<glyph unicode="o" horiz-adv-x="578" d="M543 262q0 -135 -72.5 -205t-184.5 -70q-118 0 -184.5 70t-66.5 196q0 122 70 195.5t188 73.5q114 0 182 -66.5t68 -193.5zM381 266q0 105 -22.5 148.5t-69.5 43.5q-49 0 -70 -45.5t-21 -161.5q0 -109 20 -155.5t73 -46.5q46 0 68 51.5t22 165.5z" />
<glyph unicode="p" horiz-adv-x="615" d="M230 437q22 37 61.5 60.5t88.5 23.5q93 0 146.5 -65.5t53.5 -196.5q0 -135 -62.5 -202.5t-169.5 -67.5q-73 0 -112 46v-116q0 -42 12 -55.5t51 -14.5v-45h-273v45q38 1 49.5 14t11.5 56v434q0 54 -11 68.5t-49 16.5v44l161 40h15q22 -36 27 -85zM422 241q0 101 -23 141 t-71 40q-53 0 -92 -40v-278q31 -38 84 -38q50 0 76 38.5t26 136.5z" />
<glyph unicode="q" horiz-adv-x="597" d="M408 461q12 41 41 58h94q-12 -45 -12 -140v-460q0 -43 11.5 -56t49.5 -14v-45h-272v45q39 1 51 14.5t12 55.5v147q-49 -78 -147 -78q-92 0 -146.5 65.5t-54.5 197.5q0 134 66 202t170 68q90 0 137 -60zM196 262q0 -101 23.5 -141.5t70.5 -40.5q51 0 93 42v278 q-32 37 -86 37q-49 0 -75 -38t-26 -137z" />
<glyph unicode="r" horiz-adv-x="412" d="M26 0v45q38 1 49.5 14t11.5 56v238q0 54 -11 68.5t-49 16.5v44l161 40h15q29 -52 31 -128q18 61 58.5 94.5t84.5 33.5q22 0 38 -6l-28 -151q-29 8 -55 8q-56 0 -76 -21.5t-20 -80.5v-156q0 -43 14.5 -56t64.5 -14v-45h-289z" />
<glyph unicode="s" horiz-adv-x="467" d="M218 -13q-106 0 -186 43v108h99q5 -50 29.5 -69.5t69.5 -19.5q83 0 83 63q0 30 -16.5 45t-53.5 24l-77 17q-132 29 -132 155q0 81 57 125t144 44q92 0 173 -36v-106h-92q-11 77 -93 77q-72 0 -72 -59q0 -25 15 -39t49 -21l68 -15q155 -34 155 -166q0 -81 -57.5 -125.5 t-162.5 -44.5z" />
<glyph unicode="t" horiz-adv-x="357" d="M344 509l-17 -76h-103v-269q0 -59 10.5 -80t46.5 -21q26 0 57 12l15 -52q-57 -36 -136 -36q-72 0 -107 32.5t-35 111.5v302h-60v51l67 27q10 78 46 132l104 13q-9 -65 -9 -147h121z" />
<glyph unicode="u" horiz-adv-x="607" d="M527 149q0 -53 11 -67.5t51 -17.5v-41l-160 -36h-15q-23 35 -27 81q-66 -81 -168 -81q-67 0 -105 35t-38 107v224q0 54 -11 68.5t-48 16.5v44l184 35h24v-353q0 -81 64 -81q46 0 90 37v233q0 54 -11 68.5t-49 16.5v44l184 35h24v-368z" />
<glyph unicode="v" horiz-adv-x="552" d="M335 -5h-115l-156 406q-14 36 -26 47t-38 15v46h271v-46q-57 -1 -57 -33q0 -11 5 -26l69 -197q11 -34 19 -78h6q7 37 20 78l64 197q5 17 5 25q0 33 -59 34v46h209v-46q-30 -4 -43.5 -15.5t-26.5 -46.5z" />
<glyph unicode="w" horiz-adv-x="814" d="M188 -5l-120 393q-14 45 -26.5 58t-40.5 17v46h265v-46q-55 -1 -55 -36q0 -7 4 -23l49 -185q9 -33 16 -85h6q10 64 15 85l75 290h107l93 -290q13 -40 19 -85h5q12 70 15 84l44 187q3 12 3 22q0 19 -13 27t-43 9v46h207v-46q-32 -4 -45.5 -16t-24.5 -50l-112 -402h-123 l-80 238q-16 47 -22 105h-5q-12 -71 -22 -105l-67 -238h-124z" />
<glyph unicode="x" horiz-adv-x="560" d="M246 200l-68 -101q-10 -14 -10 -27q0 -26 43 -27v-45h-196v45q28 3 42 14t45 54l104 144l-100 141q-30 41 -42 51t-40 14v46h264v-46q-35 -1 -35 -21q0 -12 12 -30l53 -80h4l53 80q9 15 9 27q0 23 -38 24v46h194v-46q-30 -3 -45 -15t-42 -50l-92 -127l109 -158 q27 -40 42 -52.5t45 -15.5v-45h-264v45q38 2 38 23q0 14 -11 29l-70 103h-4z" />
<glyph unicode="y" horiz-adv-x="552" d="M336 3q-34 -94 -85 -146t-136 -64l-51 93q76 14 122.5 39.5t71.5 82.5l-57 -5q-18 72 -59 184l-76 209q-13 37 -25.5 50t-40.5 17v46h271v-46q-60 -3 -60 -26q0 -9 6 -25l69 -213q16 -48 20 -86h5q7 37 21 81l68 218q5 17 5 24q0 15 -13.5 20t-48.5 7v46h209v-46 q-30 -4 -43.5 -15.5t-26.5 -46.5z" />
<glyph unicode="z" horiz-adv-x="495" d="M475 153l-20 -153h-417v60l259 386h-89q-51 0 -68.5 -17t-25.5 -74h-60v154h413v-58l-261 -389h80q65 0 87 14.5t43 76.5h59z" />
<glyph unicode="{" horiz-adv-x="390" d="M25 284v49q54 0 80 21t26 70v209q0 140 139 140h95v-50h-32q-74 0 -74 -95v-186q0 -36 -9.5 -62t-25 -40t-29 -20.5t-27.5 -8.5v-4q14 -2 27.5 -8.5t29 -20t25 -39.5t9.5 -61v-188q0 -95 74 -95h32v-50h-95q-139 0 -139 140v208q0 49 -26 70t-80 21z" />
<glyph unicode="|" horiz-adv-x="269" d="M179 -149h-89v917h89v-917z" />
<glyph unicode="}" horiz-adv-x="390" d="M365 333v-49q-54 0 -80 -21t-26 -70v-208q0 -67 -34.5 -103.5t-104.5 -36.5h-95v50h31q75 0 75 95v188q0 65 29 94t62 35v4q-14 2 -27.5 8.5t-29 20.5t-25 40t-9.5 62v186q0 95 -75 95h-31v50h95q139 0 139 -140v-209q0 -49 26 -70t80 -21z" />
<glyph unicode="~" horiz-adv-x="577" d="M377 342q66 0 91 52l38 -18q-15 -62 -50 -102t-81 -40q-34 0 -97 17.5t-84 17.5q-60 0 -88 -55l-35 17q9 63 44 105.5t82 42.5q33 0 94 -18.5t86 -18.5z" />
<glyph unicode="&#xa1;" horiz-adv-x="315" d="M66 -188l45 481h93l47 -464zM66 435q0 38 27 65t65 27t64.5 -27t26.5 -65q0 -37 -26.5 -63.5t-64.5 -26.5t-65 26.5t-27 63.5z" />
<glyph unicode="&#xa2;" horiz-adv-x="520" d="M265 -101v89q-102 5 -166 71t-64 187t65 193t165 81v85h55v-85q104 -5 157 -39v-110h-100q-6 76 -57 88v-394q76 2 143 50l27 -35q-60 -78 -170 -90v-91h-55zM183 269q0 -166 82 -196v385q-82 -23 -82 -189z" />
<glyph unicode="&#xa3;" horiz-adv-x="618" d="M36 307v60h80v90q0 113 71 168t175 55q58 0 105 -14t69 -33v-116h-111q-4 53 -19 76.5t-49 23.5q-44 0 -64 -31t-20 -96v-123h191v-60h-191v-240h103q51 0 77.5 27t40.5 98h77l-15 -192h-523v46q46 0 64.5 14.5t18.5 56.5v190h-80z" />
<glyph unicode="&#xa4;" horiz-adv-x="480" d="M240 101q-42 0 -72 11l-52 -81l-58 39l49 76q-57 52 -57 139t56 140l-48 74l58 39l51 -78q33 12 73 12q36 0 69 -11l50 77l59 -39l-47 -72q59 -53 59 -142q0 -90 -61 -141l49 -74l-59 -39l-52 79q-30 -9 -67 -9zM239 410q-46 0 -64.5 -30t-18.5 -88q0 -68 19 -99t64 -31 q46 0 65 31t19 99q0 58 -19 88t-65 30z" />
<glyph unicode="&#xa5;" horiz-adv-x="647" d="M72 319v56h119l-103 208q-18 36 -33.5 48.5t-42.5 16.5v47h285v-47q-49 0 -49 -32q0 -14 9 -33l104 -223h5l98 224q9 21 9 35q0 29 -50 29v47h213v-47q-31 -4 -47 -16.5t-34 -51.5l-99 -205h123v-56h-151l-24 -52v-14h175v-56h-175v-81q0 -43 15.5 -57t61.5 -15v-44h-311 v44q46 1 61.5 15t15.5 57v81h-175v56h175v12l-27 54h-148z" />
<glyph unicode="&#xa6;" horiz-adv-x="274" d="M179 364h-89v400h89v-400zM179 -149h-89v400h89v-400z" />
<glyph unicode="&#xa7;" horiz-adv-x="543" d="M508 340q0 -60 -34.5 -100t-96.5 -59q90 -51 90 -148q0 -80 -56 -123t-160 -43q-107 0 -184 41v108h98q6 -50 30.5 -70t67.5 -20q81 0 81 63q0 28 -16.5 44.5t-52.5 29.5l-107 38q-66 24 -100 61t-34 102q0 123 129 158q-90 43 -90 145q0 82 56 127t141 45q91 0 170 -35 v-106h-92q-11 76 -90 76q-33 0 -52 -16.5t-19 -46.5q0 -24 16 -38.5t51 -26.5l96 -33q78 -27 118 -66.5t40 -106.5zM317 369l-92 29q-32 -8 -52 -30.5t-20 -52.5q0 -50 62 -73l87 -32q82 16 82 81q0 54 -67 78z" />
<glyph unicode="&#xa8;" horiz-adv-x="547" d="M244 646q0 -33 -24 -56.5t-58 -23.5t-58 23.5t-24 56.5q0 34 24 57.5t59 23.5t58 -23.5t23 -57.5zM467 646q0 -33 -24 -56.5t-58 -23.5t-58 23.5t-24 56.5q0 34 24 57.5t59 23.5q34 0 57.5 -23.5t23.5 -57.5z" />
<glyph unicode="&#xa9;" horiz-adv-x="801" d="M325 355q0 -79 19 -121t67 -42q32 0 47 15t20 51h74v-83q-58 -32 -140 -32q-213 0 -213 203q0 101 52.5 154.5t157.5 53.5q86 0 140 -33v-82h-79q-4 37 -16.5 54.5t-44.5 17.5q-49 0 -66.5 -38.5t-17.5 -117.5zM401 31q129 0 215 86t86 226q0 142 -86 228t-215 86 t-215 -86t-86 -228q0 -140 86 -226t215 -86zM401 -12q-154 0 -255 98t-101 258q0 157 103 257t253 100t253 -100t103 -257q0 -160 -101 -258t-255 -98z" />
<glyph unicode="&#xaa;" horiz-adv-x="429" d="M361 462q0 -42 8 -53t38 -12v-35q-30 -18 -85 -18q-64 0 -76 53q-26 -59 -104 -59q-53 0 -87.5 28.5t-34.5 83.5q0 126 180 126q24 0 44 -2v34q0 43 -12.5 63t-41.5 20t-40.5 -17t-13.5 -51h-92v77q68 42 164 42q69 0 112.5 -31.5t43.5 -94.5q0 -6 -1.5 -60t-1.5 -94z M242 531q-16 2 -26 2q-71 0 -71 -66q0 -57 42 -57q31 0 53 28z" />
<glyph unicode="&#xab;" horiz-adv-x="609" d="M433 248l113 -179l-52 -46l-210 228l210 228l52 -45zM194 248l113 -179l-53 -46l-209 228l209 228l53 -45z" />
<glyph unicode="&#xac;" horiz-adv-x="506" d="M55 228v73h396v-232h-77v159h-319z" />
<glyph unicode="&#xae;" horiz-adv-x="801" d="M221 150v35q30 0 36.5 10.5t6.5 45.5v214q0 35 -6.5 45.5t-36.5 10.5v37h182q75 0 114 -24t39 -84q0 -57 -28.5 -79.5t-85.5 -25.5v-3q48 -8 70 -47q14 -22 35 -66q11 -23 19 -28.5t31 -5.5v-35h-132q-6 16 -14 34l-16.5 37.5l-12.5 28.5q-22 49 -31 61t-28 13v-83 q0 -35 8 -45.5t38 -10.5v-35h-188zM363 363h28q34 0 47.5 15.5t13.5 57.5q0 38 -15 52t-57 14h-17v-139zM401 31q129 0 215 86t86 226q0 142 -86 228t-215 86t-215 -86t-86 -228q0 -140 86 -226t215 -86zM401 -12q-154 0 -255 98t-101 258q0 157 103 257t253 100t253 -100 t103 -257q0 -160 -101 -258t-255 -98z" />
<glyph unicode="&#xaf;" horiz-adv-x="462" d="M382 601h-302v78h302v-78z" />
<glyph unicode="&#xb0;" horiz-adv-x="418" d="M373 525q0 -77 -45.5 -122.5t-118.5 -45.5q-77 0 -120.5 45.5t-43.5 124.5q0 77 44.5 123t117.5 46q78 0 122 -45.5t44 -125.5zM289 523q0 58 -19 82t-61 24q-79 0 -79 -97q0 -57 19.5 -81t61.5 -24q78 0 78 96z" />
<glyph unicode="&#xb1;" horiz-adv-x="506" d="M216 507h77v-142h158v-73h-158v-151h-77v151h-161v73h161v142zM55 24v74h396v-74h-396z" />
<glyph unicode="&#xb2;" horiz-adv-x="384" d="M180 661q69 0 110.5 -31t41.5 -90q0 -64 -54 -113q-26 -24 -123 -76l-33 -18h232l-12 -83h-322v60l69 61q67 59 88 87t21 70q0 29 -18 44t-44 15q-48 0 -85 -26l-23 36q62 64 152 64z" />
<glyph unicode="&#xb3;" horiz-adv-x="353" d="M128 598q-38 0 -82 -24l-21 37q62 50 148 50q61 0 99 -26t38 -73q0 -37 -29 -62.5t-77 -35.5q54 -3 86 -31t32 -69q0 -66 -63.5 -100t-152.5 -34q-48 0 -86 10l-8 48q32 -7 70 -7q50 0 78.5 23t28.5 63q0 68 -73 68q-6 0 -30 -2v54q13 -1 35 -1q34 0 50.5 13.5t16.5 47.5 q0 25 -16.5 38t-43.5 13z" />
<glyph unicode="&#xb4;" horiz-adv-x="426" d="M106 558l-26 35l188 186l78 -125z" />
<glyph unicode="&#xb5;" horiz-adv-x="618" d="M277 -12q-27 0 -47 15l-3 -4q5 -35 5 -74v-107l-145 -29v564q0 54 -11 68.5t-49 16.5v44l184 35h24v-350q0 -82 65 -82q47 0 89 35v233q0 54 -11 68.5t-48 16.5v44l184 35h24v-368q0 -54 11 -68t51 -17v-41l-161 -36h-15q-23 27 -27 77q-24 -43 -52 -59.5t-68 -16.5z" />
<glyph unicode="&#xb6;" horiz-adv-x="662" d="M552 574v-693h-73v753h-81v-753h-73v404h-90q-106 0 -160.5 48t-54.5 159q0 108 50 155.5t166 47.5h396v-45q-49 -1 -64.5 -16.5t-15.5 -59.5zM208 492q0 -80 16.5 -112.5t64.5 -32.5h36v287h-36q-50 0 -65.5 -27.5t-15.5 -114.5z" />
<glyph unicode="&#xb7;" horiz-adv-x="301" d="M243 282q0 -40 -27.5 -67.5t-65.5 -27.5t-65 27.5t-27 67.5q0 38 27 65t65 27t65.5 -27t27.5 -65z" />
<glyph unicode="&#xb8;" horiz-adv-x="288" d="M256 -119q0 -85 -118 -85q-61 0 -98 25l16 39q28 -18 67 -18q35 0 35 28q0 30 -59 32l1 21l27 94l48 -6l-15 -52q96 -6 96 -78z" />
<glyph unicode="&#xb9;" horiz-adv-x="350" d="M250 653v-297q0 -41 14.5 -54.5t64.5 -14.5v-37h-282v37q54 2 70 15t16 55v204q-36 -23 -84 -38l-19 39l148 91h72z" />
<glyph unicode="&#xba;" horiz-adv-x="441" d="M414 545q0 -102 -55.5 -154.5t-140.5 -52.5q-90 0 -140.5 52.5t-50.5 147.5q0 92 53.5 147.5t143.5 55.5q87 0 138.5 -50t51.5 -146zM287 548q0 78 -16 111t-50 33t-49 -34t-15 -120q0 -81 14.5 -116.5t51.5 -35.5q64 0 64 162z" />
<glyph unicode="&#xbb;" horiz-adv-x="609" d="M176 248l-113 186l52 45l210 -228l-210 -228l-52 46zM415 248l-113 186l52 45l210 -228l-210 -228l-52 46z" />
<glyph unicode="&#xbc;" horiz-adv-x="973" d="M778 -12v102h-182v50l139 262h100l-158 -258h101q0 97 38 150l79 11v-161h52v-54h-52v-93zM250 653v-297q0 -41 14.5 -54.5t64.5 -14.5v-37h-282v37q54 2 70 15t16 55v204q-36 -23 -84 -38l-19 39l148 91h72zM759 730l-487 -853h-70l487 853h70z" />
<glyph unicode="&#xbd;" horiz-adv-x="997" d="M796 411q69 0 110.5 -31t41.5 -90q0 -53 -32 -90t-95 -72l-83 -45h232l-12 -83h-322v60l69 61q67 59 88 87t21 70q0 29 -18 44t-44 15q-48 0 -85 -26l-23 36q62 64 152 64zM250 653v-297q0 -41 14.5 -54.5t64.5 -14.5v-37h-282v37q54 2 70 15t16 55v204q-36 -23 -84 -38 l-19 39l148 91h72zM759 730l-487 -853h-70l487 853h70z" />
<glyph unicode="&#xbe;" horiz-adv-x="955" d="M760 -12v102h-182v50l139 262h100l-158 -258h101q0 97 38 150l79 11v-161h52v-54h-52v-93zM128 598q-38 0 -82 -24l-21 37q62 50 148 50q61 0 99 -26t38 -73q0 -37 -29 -62.5t-77 -35.5q54 -3 86 -31t32 -69q0 -66 -63.5 -100t-152.5 -34q-48 0 -86 10l-8 48q32 -7 70 -7 q50 0 78.5 23t28.5 63q0 68 -73 68q-6 0 -30 -2v54q13 -1 35 -1q34 0 50.5 13.5t16.5 47.5q0 25 -16.5 38t-43.5 13zM740 730l-487 -853h-70l487 853h70z" />
<glyph unicode="&#xbf;" horiz-adv-x="469" d="M258 342q-38 0 -65.5 27t-27.5 64q0 39 27.5 66.5t65.5 27.5t65 -27.5t27 -66.5q0 -38 -27 -64.5t-65 -26.5zM244 -192q-93 0 -149.5 39.5t-56.5 119.5q0 92 100 159q57 39 75 59.5t18 59.5q0 27 -4 47h65q32 -37 32 -90q0 -62 -68 -124q-24 -22 -35.5 -34.5t-22.5 -37 t-11 -53.5q0 -34 18.5 -54.5t50.5 -20.5q75 0 80 95h99v-115q-34 -22 -86 -36t-105 -14z" />
<glyph unicode="&#xc0;" horiz-adv-x="671" d="M435 101l-27 86h-214l-25 -86q-9 -34 2.5 -43.5t57.5 -11.5v-46h-221v46q33 4 47.5 16t26.5 51l189 582h126l199 -582q13 -38 25.5 -50.5t41.5 -16.5v-46h-284v46q44 2 54.5 13.5t1.5 41.5zM264 428l-49 -167h169l-54 169q-14 45 -30 113h-5q-13 -58 -31 -115zM440 765 l-24 -38l-246 72l65 130z" />
<glyph unicode="&#xc1;" horiz-adv-x="671" d="M435 101l-27 86h-214l-25 -86q-9 -34 2.5 -43.5t57.5 -11.5v-46h-221v46q33 4 47.5 16t26.5 51l189 582h126l199 -582q13 -38 25.5 -50.5t41.5 -16.5v-46h-284v46q44 2 54.5 13.5t1.5 41.5zM264 428l-49 -167h169l-54 169q-14 45 -30 113h-5q-13 -58 -31 -115zM219 765 l205 164l65 -130l-247 -72z" />
<glyph unicode="&#xc2;" horiz-adv-x="671" d="M435 101l-27 86h-214l-25 -86q-9 -34 2.5 -43.5t57.5 -11.5v-46h-221v46q33 4 47.5 16t26.5 51l189 582h126l199 -582q13 -38 25.5 -50.5t41.5 -16.5v-46h-284v46q44 2 54.5 13.5t1.5 41.5zM264 428l-49 -167h169l-54 169q-14 45 -30 113h-5q-13 -58 -31 -115zM486 731 l-151 77l-151 -77l-25 37l176 173l176 -173z" />
<glyph unicode="&#xc3;" horiz-adv-x="671" d="M435 101l-27 86h-214l-25 -86q-9 -34 2.5 -43.5t57.5 -11.5v-46h-221v46q33 4 47.5 16t26.5 51l189 582h126l199 -582q13 -38 25.5 -50.5t41.5 -16.5v-46h-284v46q44 2 54.5 13.5t1.5 41.5zM264 428l-49 -167h169l-54 169q-14 45 -30 113h-5q-13 -58 -31 -115zM405 857 q50 0 74 46l38 -16q-14 -57 -44.5 -93t-71.5 -36q-33 0 -76 18t-63 18q-46 0 -73 -49l-35 16q9 56 39.5 95t72.5 39q31 0 73 -19t66 -19z" />
<glyph unicode="&#xc4;" horiz-adv-x="671" d="M435 101l-27 86h-214l-25 -86q-9 -34 2.5 -43.5t57.5 -11.5v-46h-221v46q33 4 47.5 16t26.5 51l189 582h126l199 -582q13 -38 25.5 -50.5t41.5 -16.5v-46h-284v46q44 2 54.5 13.5t1.5 41.5zM264 428l-49 -167h169l-54 169q-14 45 -30 113h-5q-13 -58 -31 -115zM305 817 q0 -33 -24 -56.5t-58 -23.5t-58 23.5t-24 56.5q0 34 24 57.5t59 23.5q34 0 57.5 -23.5t23.5 -57.5zM528 817q0 -33 -24 -56.5t-58 -23.5t-58 23.5t-24 56.5q0 34 24 57.5t59 23.5q34 0 57.5 -23.5t23.5 -57.5z" />
<glyph unicode="&#xc5;" horiz-adv-x="671" d="M435 101l-27 86h-214l-25 -86q-9 -34 2.5 -43.5t57.5 -11.5v-46h-221v46q33 4 47.5 16t26.5 51l189 582h126l199 -582q13 -38 25.5 -50.5t41.5 -16.5v-46h-284v46q44 2 54.5 13.5t1.5 41.5zM264 428l-49 -167h169l-54 169q-14 45 -30 113h-5q-13 -58 -31 -115zM335 729 q-51 0 -84 32.5t-33 83.5q0 50 33 83t84 33t84.5 -33t33.5 -83t-33 -83t-85 -33zM335 907q-26 0 -41 -17.5t-15 -44.5q0 -25 15 -42t41 -17t41 17t15 42q0 27 -15 44.5t-41 17.5z" />
<glyph unicode="&#xc6;" horiz-adv-x="938" d="M443 117v108h-195l-65 -126q-9 -17 -9 -27q0 -23 60 -26v-46h-226v46q34 4 53 16t36 46l236 468q10 20 10 36q0 33 -59 35v48h585l12 -169h-75q-18 61 -35.5 79.5t-67.5 18.5h-109v-238h61q47 0 63.5 14t19.5 57h66v-209h-66q-3 41 -19.5 56t-62.5 15h-62v-252h124 q51 0 72 24t27 92h76v-183h-519v46q40 0 54.5 14.5t14.5 56.5zM286 299h157v131q0 95 9 194h-5z" />
<glyph unicode="&#xc7;" horiz-adv-x="620" d="M445 -119q0 -85 -118 -85q-61 0 -98 25l16 39q28 -18 67 -18q35 0 35 28q0 30 -58 32v21l19 68q-130 13 -198.5 102.5t-68.5 244.5q0 184 86.5 276.5t236.5 92.5q137 0 214 -50v-136h-108q-13 61 -36 88t-72 27q-75 0 -110.5 -64t-35.5 -228q0 -88 10 -146.5t30.5 -88.5 t45.5 -41.5t60 -11.5q57 0 82.5 27.5t35.5 91.5h103v-132q-32 -24 -93 -39.5t-133 -15.5l-8 -29q96 -6 96 -78z" />
<glyph unicode="&#xc8;" horiz-adv-x="593" d="M418 765l-24 -38l-246 72l65 130zM29 0v46q40 0 54 14.5t14 56.5v458q0 42 -14 56.5t-54 15.5v48h500l12 -169h-74q-18 61 -35.5 79.5t-68.5 18.5h-109v-238h62q46 0 62.5 14t19.5 57h66v-209h-66q-3 41 -19 56t-62 15h-63v-252h124q51 0 72 24t27 92h76v-183h-524z" />
<glyph unicode="&#xc9;" horiz-adv-x="593" d="M172 765l205 164l65 -130l-247 -72zM29 0v46q40 0 54 14.5t14 56.5v458q0 42 -14 56.5t-54 15.5v48h500l12 -169h-74q-18 61 -35.5 79.5t-68.5 18.5h-109v-238h62q46 0 62.5 14t19.5 57h66v-209h-66q-3 41 -19 56t-62 15h-63v-252h124q51 0 72 24t27 92h76v-183h-524z " />
<glyph unicode="&#xca;" horiz-adv-x="593" d="M454 731l-151 77l-151 -77l-25 37l176 173l176 -173zM29 0v46q40 0 54 14.5t14 56.5v458q0 42 -14 56.5t-54 15.5v48h500l12 -169h-74q-18 61 -35.5 79.5t-68.5 18.5h-109v-238h62q46 0 62.5 14t19.5 57h66v-209h-66q-3 41 -19 56t-62 15h-63v-252h124q51 0 72 24t27 92 h76v-183h-524z" />
<glyph unicode="&#xcb;" horiz-adv-x="593" d="M29 0v46q40 0 54 14.5t14 56.5v458q0 42 -14 56.5t-54 15.5v48h500l12 -169h-74q-18 61 -35.5 79.5t-68.5 18.5h-109v-238h62q46 0 62.5 14t19.5 57h66v-209h-66q-3 41 -19 56t-62 15h-63v-252h124q51 0 72 24t27 92h76v-183h-524zM273 817q0 -33 -24 -56.5t-58 -23.5 t-58 23.5t-24 56.5q0 34 24 57.5t59 23.5q34 0 57.5 -23.5t23.5 -57.5zM496 817q0 -33 -24 -56.5t-58 -23.5t-58 23.5t-24 56.5q0 34 24 57.5t59 23.5q34 0 57.5 -23.5t23.5 -57.5z" />
<glyph unicode="&#xcc;" horiz-adv-x="351" d="M254 575v-458q0 -42 14.5 -56.5t54.5 -14.5v-46h-294v46q40 0 54 14.5t14 56.5v458q0 42 -14 56.5t-54 15.5v48h294v-48q-40 -1 -54.5 -15.5t-14.5 -56.5zM291 765l-24 -38l-246 72l65 130z" />
<glyph unicode="&#xcd;" horiz-adv-x="351" d="M254 575v-458q0 -42 14.5 -56.5t54.5 -14.5v-46h-294v46q40 0 54 14.5t14 56.5v458q0 42 -14 56.5t-54 15.5v48h294v-48q-40 -1 -54.5 -15.5t-14.5 -56.5zM45 765l205 164l65 -130l-247 -72z" />
<glyph unicode="&#xce;" horiz-adv-x="351" d="M254 575v-458q0 -42 14.5 -56.5t54.5 -14.5v-46h-294v46q40 0 54 14.5t14 56.5v458q0 42 -14 56.5t-54 15.5v48h294v-48q-40 -1 -54.5 -15.5t-14.5 -56.5zM327 731l-151 77l-151 -77l-25 37l176 173l176 -173z" />
<glyph unicode="&#xcf;" horiz-adv-x="351" d="M254 575v-458q0 -42 14.5 -56.5t54.5 -14.5v-46h-294v46q40 0 54 14.5t14 56.5v458q0 42 -14 56.5t-54 15.5v48h294v-48q-40 -1 -54.5 -15.5t-14.5 -56.5zM146 817q0 -33 -24 -56.5t-58 -23.5t-58 23.5t-24 56.5q0 34 24 57.5t59 23.5q34 0 57.5 -23.5t23.5 -57.5z M369 817q0 -33 -24 -56.5t-58 -23.5t-58 23.5t-24 56.5q0 34 24 57.5t59 23.5q34 0 57.5 -23.5t23.5 -57.5z" />
<glyph unicode="&#xd0;" horiz-adv-x="691" d="M319 695q331 0 331 -351q0 -169 -84 -256.5t-251 -87.5h-286v45q40 1 54 15.5t14 56.5v204h-69v71h69v183q0 43 -14 57.5t-54 14.5v48h290zM481 337q0 114 -19 177t-55 87t-100 24h-52v-233h116v-71h-116v-254h49q66 0 102.5 20.5t55.5 79.5t19 170z" />
<glyph unicode="&#xd1;" horiz-adv-x="704" d="M426 857q50 0 74 46l38 -16q-14 -57 -44.5 -93t-71.5 -36q-33 0 -76 18t-63 18q-46 0 -73 -49l-35 16q9 56 39.5 95t72.5 39q31 0 73 -19t66 -19zM618 0h-112l-245 380q-47 74 -83 149h-4q9 -63 9 -153v-259q0 -42 14.5 -56.5t54.5 -14.5v-46h-223v46q40 0 54 14.5 t14 56.5v458q0 42 -14 56.5t-54 15.5v48h230l213 -333q43 -67 66 -131h5q-9 67 -9 150v194q0 42 -14.5 56.5t-54.5 15.5v48h219v-48q-39 -1 -52.5 -15.5t-13.5 -56.5v-575z" />
<glyph unicode="&#xd2;" horiz-adv-x="706" d="M468 765l-24 -38l-246 72l65 130zM665 338q0 -167 -82 -258.5t-229 -91.5q-150 0 -231.5 92.5t-81.5 259.5q0 183 84.5 275t227.5 92q146 0 229 -95t83 -274zM491 343q0 161 -32.5 227t-105.5 66t-105.5 -64t-32.5 -223q0 -165 33 -230.5t106 -65.5q46 0 74 22.5t45.5 88 t17.5 179.5z" />
<glyph unicode="&#xd3;" horiz-adv-x="706" d="M222 765l205 164l65 -130l-247 -72zM665 338q0 -167 -82 -258.5t-229 -91.5q-150 0 -231.5 92.5t-81.5 259.5q0 183 84.5 275t227.5 92q146 0 229 -95t83 -274zM491 343q0 161 -32.5 227t-105.5 66t-105.5 -64t-32.5 -223q0 -165 33 -230.5t106 -65.5q46 0 74 22.5 t45.5 88t17.5 179.5z" />
<glyph unicode="&#xd4;" horiz-adv-x="706" d="M504 731l-151 77l-151 -77l-25 37l176 173l176 -173zM665 338q0 -167 -82 -258.5t-229 -91.5q-150 0 -231.5 92.5t-81.5 259.5q0 183 84.5 275t227.5 92q146 0 229 -95t83 -274zM491 343q0 161 -32.5 227t-105.5 66t-105.5 -64t-32.5 -223q0 -165 33 -230.5t106 -65.5 q46 0 74 22.5t45.5 88t17.5 179.5z" />
<glyph unicode="&#xd5;" horiz-adv-x="706" d="M423 857q50 0 74 46l38 -16q-14 -57 -44.5 -93t-71.5 -36q-33 0 -76 18t-63 18q-46 0 -73 -49l-35 16q9 56 39.5 95t72.5 39q31 0 73 -19t66 -19zM665 338q0 -167 -82 -258.5t-229 -91.5q-150 0 -231.5 92.5t-81.5 259.5q0 183 84.5 275t227.5 92q146 0 229 -95t83 -274z M491 343q0 161 -32.5 227t-105.5 66t-105.5 -64t-32.5 -223q0 -165 33 -230.5t106 -65.5q46 0 74 22.5t45.5 88t17.5 179.5z" />
<glyph unicode="&#xd6;" horiz-adv-x="706" d="M323 817q0 -33 -24 -56.5t-58 -23.5t-58 23.5t-24 56.5q0 34 24 57.5t59 23.5q34 0 57.5 -23.5t23.5 -57.5zM546 817q0 -33 -24 -56.5t-58 -23.5t-58 23.5t-24 56.5q0 34 24 57.5t59 23.5q34 0 57.5 -23.5t23.5 -57.5zM665 338q0 -167 -82 -258.5t-229 -91.5 q-150 0 -231.5 92.5t-81.5 259.5q0 183 84.5 275t227.5 92q146 0 229 -95t83 -274zM491 343q0 161 -32.5 227t-105.5 66t-105.5 -64t-32.5 -223q0 -165 33 -230.5t106 -65.5q46 0 74 22.5t45.5 88t17.5 179.5z" />
<glyph unicode="&#xd7;" horiz-adv-x="519" d="M56 424l49 51l154 -153l154 153l51 -51l-154 -154l154 -152l-51 -52l-154 155l-154 -155l-50 52l153 152z" />
<glyph unicode="&#xd8;" horiz-adv-x="706" d="M613 725l-55 -89q107 -96 107 -298q0 -167 -82 -258.5t-229 -91.5q-98 0 -168 41l-53 -87l-47 27l56 92q-101 92 -101 279q0 183 84.5 275t227.5 92q93 0 160 -39l51 84zM494 343q0 100 -14 165l-236 -385q33 -70 110 -70q70 0 105 62t35 228zM212 349q0 -92 11 -155 l234 382q-32 60 -104 60q-74 0 -107.5 -64.5t-33.5 -222.5z" />
<glyph unicode="&#xd9;" horiz-adv-x="690" d="M490 765l-24 -38l-246 72l65 130zM348 -12q-134 0 -196 55.5t-62 177.5v354q0 42 -14 56.5t-53 15.5v48h294v-48q-41 -1 -55.5 -15.5t-14.5 -56.5v-351q0 -85 31.5 -120t101.5 -35q69 0 103.5 36.5t34.5 121.5v348q0 42 -14 56.5t-56 15.5v48h219v-48q-39 -1 -52.5 -15.5 t-13.5 -56.5v-350q0 -237 -253 -237z" />
<glyph unicode="&#xda;" horiz-adv-x="690" d="M244 765l205 164l65 -130l-247 -72zM348 -12q-134 0 -196 55.5t-62 177.5v354q0 42 -14 56.5t-53 15.5v48h294v-48q-41 -1 -55.5 -15.5t-14.5 -56.5v-351q0 -85 31.5 -120t101.5 -35q69 0 103.5 36.5t34.5 121.5v348q0 42 -14 56.5t-56 15.5v48h219v-48 q-39 -1 -52.5 -15.5t-13.5 -56.5v-350q0 -237 -253 -237z" />
<glyph unicode="&#xdb;" horiz-adv-x="690" d="M526 731l-151 77l-151 -77l-25 37l176 173l176 -173zM348 -12q-134 0 -196 55.5t-62 177.5v354q0 42 -14 56.5t-53 15.5v48h294v-48q-41 -1 -55.5 -15.5t-14.5 -56.5v-351q0 -85 31.5 -120t101.5 -35q69 0 103.5 36.5t34.5 121.5v348q0 42 -14 56.5t-56 15.5v48h219v-48 q-39 -1 -52.5 -15.5t-13.5 -56.5v-350q0 -237 -253 -237z" />
<glyph unicode="&#xdc;" horiz-adv-x="690" d="M348 -12q-134 0 -196 55.5t-62 177.5v354q0 42 -14 56.5t-53 15.5v48h294v-48q-41 -1 -55.5 -15.5t-14.5 -56.5v-351q0 -85 31.5 -120t101.5 -35q69 0 103.5 36.5t34.5 121.5v348q0 42 -14 56.5t-56 15.5v48h219v-48q-39 -1 -52.5 -15.5t-13.5 -56.5v-350 q0 -237 -253 -237zM345 817q0 -33 -24 -56.5t-58 -23.5t-58 23.5t-24 56.5q0 34 24 57.5t59 23.5q34 0 57.5 -23.5t23.5 -57.5zM568 817q0 -33 -24 -56.5t-58 -23.5t-58 23.5t-24 56.5q0 34 24 57.5t59 23.5q34 0 57.5 -23.5t23.5 -57.5z" />
<glyph unicode="&#xdd;" horiz-adv-x="654" d="M173 46q46 0 62 14.5t16 56.5v148l-160 318q-18 36 -33 48.5t-43 16.5v47h285v-47q-49 0 -49 -32q0 -14 9 -33l103 -220h5l101 221q9 21 9 35q0 29 -52 29v47h213v-47q-31 -4 -46.5 -16.5t-34.5 -51.5l-151 -313v-150q0 -42 16 -56.5t61 -14.5v-46h-311v46zM214 765 l205 164l65 -130l-247 -72z" />
<glyph unicode="&#xde;" horiz-adv-x="605" d="M430 358q0 71 -26 99t-91 28h-59v-251h67q60 0 84.5 26.5t24.5 97.5zM254 575v-20h96q123 0 185 -45t62 -150q0 -200 -247 -200h-96v-42q0 -43 17 -57.5t68 -14.5v-46h-310v46q40 0 54 14.5t14 56.5v458q0 42 -14 56.5t-54 15.5v48h294v-48q-69 -1 -69 -72z" />
<glyph unicode="&#xdf;" horiz-adv-x="637" d="M464 153q0 56 -24 96t-76 83l-15.5 12.5t-15 11.5t-11.5 9.5t-9.5 10.5t-6.5 9.5t-5 11t-1 11.5q0 17 11.5 29t44.5 37q29 23 42 47t13 61q0 92 -82 92q-91 0 -91 -134v-540h-210v45q38 1 49.5 14t11.5 56v318h-61v51l61 25v29q0 101 65.5 152t172.5 51q105 0 161.5 -38 t56.5 -106q0 -53 -28.5 -88t-85.5 -66q-30 -15 -30 -29t24 -24q100 -47 145 -94.5t45 -132.5q0 -79 -53 -127t-142 -48q-86 0 -142 43l21 52q41 -27 88 -27q37 0 57 26.5t20 70.5z" />
<glyph unicode="&#xe0;" horiz-adv-x="540" d="M464 150q0 -56 12 -71.5t52 -17.5v-43q-39 -24 -102 -24q-90 0 -103 70q-14 -32 -49.5 -55t-89.5 -23q-71 0 -115 37t-44 111q0 167 246 167q22 0 48 -2v46q0 59 -16.5 84.5t-55.5 25.5q-40 0 -57 -23t-23 -68h-110v102q96 56 215 56q91 0 143.5 -41.5t52.5 -126.5 q0 -7 -2 -79t-2 -125zM317 243h-35q-104 0 -104 -90q0 -41 15 -58t45 -17q46 0 76 38zM378 593l-26 -35l-240 96l78 125z" />
<glyph unicode="&#xe1;" horiz-adv-x="540" d="M464 150q0 -56 12 -71.5t52 -17.5v-43q-39 -24 -102 -24q-90 0 -103 70q-14 -32 -49.5 -55t-89.5 -23q-71 0 -115 37t-44 111q0 167 246 167q22 0 48 -2v46q0 59 -16.5 84.5t-55.5 25.5q-40 0 -57 -23t-23 -68h-110v102q96 56 215 56q91 0 143.5 -41.5t52.5 -126.5 q0 -7 -2 -79t-2 -125zM317 243h-35q-104 0 -104 -90q0 -41 15 -58t45 -17q46 0 76 38zM160 558l-26 35l188 186l78 -125z" />
<glyph unicode="&#xe2;" horiz-adv-x="540" d="M464 150q0 -56 12 -71.5t52 -17.5v-43q-39 -24 -102 -24q-90 0 -103 70q-14 -32 -49.5 -55t-89.5 -23q-71 0 -115 37t-44 111q0 167 246 167q22 0 48 -2v46q0 59 -16.5 84.5t-55.5 25.5q-40 0 -57 -23t-23 -68h-110v102q96 56 215 56q91 0 143.5 -41.5t52.5 -126.5 q0 -7 -2 -79t-2 -125zM317 243h-35q-104 0 -104 -90q0 -41 15 -58t45 -17q46 0 76 38zM267 634l-151 -78l-25 37l176 174l176 -174l-25 -37z" />
<glyph unicode="&#xe3;" horiz-adv-x="540" d="M464 150q0 -56 12 -71.5t52 -17.5v-43q-39 -24 -102 -24q-90 0 -103 70q-14 -32 -49.5 -55t-89.5 -23q-71 0 -115 37t-44 111q0 167 246 167q22 0 48 -2v46q0 59 -16.5 84.5t-55.5 25.5q-40 0 -57 -23t-23 -68h-110v102q96 56 215 56q91 0 143.5 -41.5t52.5 -126.5 q0 -7 -2 -79t-2 -125zM317 243h-35q-104 0 -104 -90q0 -41 15 -58t45 -17q46 0 76 38zM326 686q50 0 72 45l38 -16q-14 -57 -44 -93.5t-70 -36.5q-30 0 -73 15.5t-62 15.5q-45 0 -70 -48l-35 16q9 57 38.5 96.5t71.5 39.5q29 0 70.5 -17t63.5 -17z" />
<glyph unicode="&#xe4;" horiz-adv-x="540" d="M464 150q0 -56 12 -71.5t52 -17.5v-43q-39 -24 -102 -24q-90 0 -103 70q-14 -32 -49.5 -55t-89.5 -23q-71 0 -115 37t-44 111q0 167 246 167q22 0 48 -2v46q0 59 -16.5 84.5t-55.5 25.5q-40 0 -57 -23t-23 -68h-110v102q96 56 215 56q91 0 143.5 -41.5t52.5 -126.5 q0 -7 -2 -79t-2 -125zM317 243h-35q-104 0 -104 -90q0 -41 15 -58t45 -17q46 0 76 38zM234 646q0 -33 -24 -56.5t-58 -23.5t-58 23.5t-24 56.5q0 34 24 57.5t59 23.5t58 -23.5t23 -57.5zM457 646q0 -33 -24 -56.5t-58 -23.5t-58 23.5t-24 56.5q0 34 24 57.5t59 23.5 q34 0 57.5 -23.5t23.5 -57.5z" />
<glyph unicode="&#xe5;" horiz-adv-x="540" d="M464 150q0 -56 12 -71.5t52 -17.5v-43q-39 -24 -102 -24q-90 0 -103 70q-14 -32 -49.5 -55t-89.5 -23q-71 0 -115 37t-44 111q0 167 246 167q22 0 48 -2v46q0 59 -16.5 84.5t-55.5 25.5q-40 0 -57 -23t-23 -68h-110v102q96 56 215 56q91 0 143.5 -41.5t52.5 -126.5 q0 -7 -2 -79t-2 -125zM317 243h-35q-104 0 -104 -90q0 -41 15 -58t45 -17q46 0 76 38zM259 619q26 0 41.5 17t15.5 42q0 27 -15.5 44.5t-41.5 17.5q-25 0 -40 -17.5t-15 -44.5q0 -25 15 -42t40 -17zM259 562q-51 0 -84 33t-33 83t33 83t84 33q52 0 85 -32.5t33 -83.5 q0 -50 -33 -83t-85 -33z" />
<glyph unicode="&#xe6;" horiz-adv-x="812" d="M188 -12q-74 0 -118.5 36t-44.5 110q0 166 246 166h49v47q0 57 -17 82.5t-56 25.5q-40 0 -57 -23t-23 -68h-110v102q96 56 208 56q104 0 150 -51q63 51 147 51q219 0 219 -246v-40h-303q2 -86 34 -124t103 -38q69 0 133 35l25 -41q-83 -80 -209 -80q-131 0 -194 81 q-23 -34 -69 -57.5t-113 -23.5zM248 81q55 0 94 37q-22 51 -23 118h-29q-58 0 -85 -19t-27 -64q0 -72 70 -72zM561 460q-39 0 -58 -35t-24 -124h155q0 90 -16.5 124.5t-56.5 34.5z" />
<glyph unicode="&#xe7;" horiz-adv-x="491" d="M366 -119q0 -85 -118 -85q-61 0 -98 25l16 39q28 -18 67 -18q35 0 35 28q0 30 -58 32v21l20 69q-88 14 -141.5 79t-53.5 175q0 130 73.5 202.5t183.5 72.5q103 0 164 -40v-110h-111q-3 50 -13.5 69t-39.5 19q-43 0 -73 -43t-30 -147q0 -198 135 -198q58 0 118 36l27 -38 q-69 -81 -191 -81l-8 -29q96 -6 96 -78z" />
<glyph unicode="&#xe8;" horiz-adv-x="529" d="M332 74q69 0 133 35l25 -41q-82 -80 -209 -80q-116 0 -181 70.5t-65 197.5q0 125 66.5 195.5t176.5 70.5q221 0 221 -246v-43h-304q2 -85 34 -122t103 -37zM278 460q-39 0 -58 -35t-24 -124h155q0 90 -16.5 124.5t-56.5 34.5zM398 593l-26 -35l-240 96l78 125z" />
<glyph unicode="&#xe9;" horiz-adv-x="529" d="M173 558l-26 35l188 186l78 -125zM332 74q69 0 133 35l25 -41q-82 -80 -209 -80q-116 0 -181 70.5t-65 197.5q0 125 66.5 195.5t176.5 70.5q221 0 221 -246v-43h-304q2 -85 34 -122t103 -37zM278 460q-39 0 -58 -35t-24 -124h155q0 90 -16.5 124.5t-56.5 34.5z" />
<glyph unicode="&#xea;" horiz-adv-x="529" d="M277 634l-151 -78l-25 37l176 174l176 -174l-25 -37zM332 74q69 0 133 35l25 -41q-82 -80 -209 -80q-116 0 -181 70.5t-65 197.5q0 125 66.5 195.5t176.5 70.5q221 0 221 -246v-43h-304q2 -85 34 -122t103 -37zM278 460q-39 0 -58 -35t-24 -124h155q0 90 -16.5 124.5 t-56.5 34.5z" />
<glyph unicode="&#xeb;" horiz-adv-x="529" d="M244 646q0 -33 -24 -56.5t-58 -23.5t-58 23.5t-24 56.5q0 34 24 57.5t59 23.5t58 -23.5t23 -57.5zM467 646q0 -33 -24 -56.5t-58 -23.5t-58 23.5t-24 56.5q0 34 24 57.5t59 23.5q34 0 57.5 -23.5t23.5 -57.5zM332 74q69 0 133 35l25 -41q-82 -80 -209 -80 q-116 0 -181 70.5t-65 197.5q0 125 66.5 195.5t176.5 70.5q221 0 221 -246v-43h-304q2 -85 34 -122t103 -37zM278 460q-39 0 -58 -35t-24 -124h155q0 90 -16.5 124.5t-56.5 34.5z" />
<glyph unicode="&#xec;" horiz-adv-x="315" d="M236 115q0 -43 11 -56t49 -14v-45h-270v45q38 1 49.5 14t11.5 56v238q0 54 -11 68.5t-49 16.5v44l187 35h22v-402zM273 593l-26 -35l-240 96l78 125z" />
<glyph unicode="&#xed;" horiz-adv-x="315" d="M54 558l-26 35l188 186l78 -125zM236 115q0 -43 11 -56t49 -14v-45h-270v45q38 1 49.5 14t11.5 56v238q0 54 -11 68.5t-49 16.5v44l187 35h22v-402z" />
<glyph unicode="&#xee;" horiz-adv-x="315" d="M161 634l-151 -78l-25 37l176 174l176 -174l-25 -37zM236 115q0 -43 11 -56t49 -14v-45h-270v45q38 1 49.5 14t11.5 56v238q0 54 -11 68.5t-49 16.5v44l187 35h22v-402z" />
<glyph unicode="&#xef;" horiz-adv-x="315" d="M132 646q0 -33 -24 -56.5t-58 -23.5t-58 23.5t-24 56.5q0 34 24 57.5t59 23.5t58 -23.5t23 -57.5zM355 646q0 -33 -24 -56.5t-58 -23.5t-58 23.5t-24 56.5q0 34 24 57.5t59 23.5q34 0 57.5 -23.5t23.5 -57.5zM236 115q0 -43 11 -56t49 -14v-45h-270v45q38 1 49.5 14 t11.5 56v238q0 54 -11 68.5t-49 16.5v44l187 35h22v-402z" />
<glyph unicode="&#xf0;" horiz-adv-x="571" d="M476 664l-96 -35q155 -115 155 -351q0 -141 -69.5 -216t-179.5 -75q-113 0 -182 67t-69 198q0 121 67 190t168 69q48 0 84 -19q-25 54 -75 98l-165 -59l-20 48l135 48q-55 34 -138 58l22 44q135 -24 211 -65l132 48zM381 273q0 89 -17 154q-28 21 -68 21 q-103 0 -103 -195q0 -110 22 -157.5t73 -47.5q93 0 93 225z" />
<glyph unicode="&#xf1;" horiz-adv-x="625" d="M551 370v-255q0 -43 11 -56t48 -14v-45h-268v45q38 1 49 14t11 54v222q0 81 -66 81q-53 0 -100 -38v-265q0 -41 11 -54t49 -14v-45h-270v45q38 1 49.5 14t11.5 56v238q0 54 -11 68.5t-49 16.5v44l161 40h15q25 -42 29 -90q78 89 174 89q65 0 105 -38.5t40 -112.5z M385 686q49 0 72 45l38 -16q-14 -57 -44 -93.5t-70 -36.5q-30 0 -73 15.5t-62 15.5q-45 0 -70 -48l-35 16q9 57 38.5 96.5t71.5 39.5q29 0 70.5 -17t63.5 -17z" />
<glyph unicode="&#xf2;" horiz-adv-x="578" d="M543 262q0 -135 -72.5 -205t-184.5 -70q-118 0 -184.5 70t-66.5 196q0 122 70 195.5t188 73.5q114 0 182 -66.5t68 -193.5zM381 266q0 105 -22.5 148.5t-69.5 43.5q-49 0 -70 -45.5t-21 -161.5q0 -109 20 -155.5t73 -46.5q46 0 68 51.5t22 165.5zM400 593l-26 -35 l-240 96l78 125z" />
<glyph unicode="&#xf3;" horiz-adv-x="578" d="M182 558l-26 35l188 186l78 -125zM543 262q0 -135 -72.5 -205t-184.5 -70q-118 0 -184.5 70t-66.5 196q0 122 70 195.5t188 73.5q114 0 182 -66.5t68 -193.5zM381 266q0 105 -22.5 148.5t-69.5 43.5q-49 0 -70 -45.5t-21 -161.5q0 -109 20 -155.5t73 -46.5q46 0 68 51.5 t22 165.5z" />
<glyph unicode="&#xf4;" horiz-adv-x="578" d="M288 634l-151 -78l-25 37l176 174l176 -174l-25 -37zM543 262q0 -135 -72.5 -205t-184.5 -70q-118 0 -184.5 70t-66.5 196q0 122 70 195.5t188 73.5q114 0 182 -66.5t68 -193.5zM381 266q0 105 -22.5 148.5t-69.5 43.5q-49 0 -70 -45.5t-21 -161.5q0 -109 20 -155.5 t73 -46.5q46 0 68 51.5t22 165.5z" />
<glyph unicode="&#xf5;" horiz-adv-x="578" d="M543 262q0 -135 -72.5 -205t-184.5 -70q-118 0 -184.5 70t-66.5 196q0 122 70 195.5t188 73.5q114 0 182 -66.5t68 -193.5zM381 266q0 105 -22.5 148.5t-69.5 43.5q-49 0 -70 -45.5t-21 -161.5q0 -109 20 -155.5t73 -46.5q46 0 68 51.5t22 165.5zM357 686q49 0 72 45 l38 -16q-14 -57 -44 -93.5t-70 -36.5q-30 0 -73 15.5t-62 15.5q-45 0 -70 -48l-35 16q9 57 38.5 96.5t71.5 39.5q29 0 70.5 -17t63.5 -17z" />
<glyph unicode="&#xf6;" horiz-adv-x="578" d="M259 646q0 -33 -24 -56.5t-58 -23.5t-58 23.5t-24 56.5q0 34 24 57.5t59 23.5q34 0 57.5 -23.5t23.5 -57.5zM482 646q0 -33 -24 -56.5t-58 -23.5t-58 23.5t-24 56.5q0 34 24 57.5t59 23.5t58 -23.5t23 -57.5zM543 262q0 -135 -72.5 -205t-184.5 -70q-118 0 -184.5 70 t-66.5 196q0 122 70 195.5t188 73.5q114 0 182 -66.5t68 -193.5zM381 266q0 105 -22.5 148.5t-69.5 43.5q-49 0 -70 -45.5t-21 -161.5q0 -109 20 -155.5t73 -46.5q46 0 68 51.5t22 165.5z" />
<glyph unicode="&#xf7;" horiz-adv-x="616" d="M380 474q0 -32 -21 -53.5t-50 -21.5q-30 0 -51 21t-21 52q0 30 21 51.5t51 21.5q29 0 50 -21.5t21 -49.5zM55 236v70h506v-70h-506zM380 64q0 -31 -21 -52.5t-50 -21.5q-30 0 -51 20.5t-21 51.5q0 30 21 51.5t51 21.5q29 0 50 -21t21 -50z" />
<glyph unicode="&#xf8;" horiz-adv-x="578" d="M500 540l-43 -69q86 -67 86 -209q0 -135 -72.5 -205t-184.5 -70q-66 0 -118 23l-46 -73l-43 26l46 73q-90 70 -90 217q0 122 70 195.5t188 73.5q67 0 120 -24l43 68zM191 251q0 -58 6 -100l165 264q-24 43 -73 43q-51 0 -74.5 -46t-23.5 -161zM387 266q0 49 -6 85 l-164 -262q24 -40 74 -40q96 0 96 217z" />
<glyph unicode="&#xf9;" horiz-adv-x="607" d="M527 149q0 -53 11 -67.5t51 -17.5v-41l-160 -36h-15q-23 35 -27 81q-66 -81 -168 -81q-67 0 -105 35t-38 107v224q0 54 -11 68.5t-48 16.5v44l184 35h24v-353q0 -81 64 -81q46 0 90 37v233q0 54 -11 68.5t-49 16.5v44l184 35h24v-368zM414 593l-26 -35l-240 96l78 125z " />
<glyph unicode="&#xfa;" horiz-adv-x="607" d="M195 558l-26 35l188 186l78 -125zM527 149q0 -53 11 -67.5t51 -17.5v-41l-160 -36h-15q-23 35 -27 81q-66 -81 -168 -81q-67 0 -105 35t-38 107v224q0 54 -11 68.5t-48 16.5v44l184 35h24v-353q0 -81 64 -81q46 0 90 37v233q0 54 -11 68.5t-49 16.5v44l184 35h24v-368z " />
<glyph unicode="&#xfb;" horiz-adv-x="607" d="M302 634l-151 -78l-25 37l176 174l176 -174l-25 -37zM527 149q0 -53 11 -67.5t51 -17.5v-41l-160 -36h-15q-23 35 -27 81q-66 -81 -168 -81q-67 0 -105 35t-38 107v224q0 54 -11 68.5t-48 16.5v44l184 35h24v-353q0 -81 64 -81q46 0 90 37v233q0 54 -11 68.5t-49 16.5v44 l184 35h24v-368z" />
<glyph unicode="&#xfc;" horiz-adv-x="607" d="M273 646q0 -33 -24 -56.5t-58 -23.5t-58 23.5t-24 56.5q0 34 24 57.5t59 23.5q34 0 57.5 -23.5t23.5 -57.5zM496 646q0 -33 -24 -56.5t-58 -23.5t-58 23.5t-24 56.5q0 34 24 57.5t59 23.5t58 -23.5t23 -57.5zM527 149q0 -53 11 -67.5t51 -17.5v-41l-160 -36h-15 q-23 35 -27 81q-66 -81 -168 -81q-67 0 -105 35t-38 107v224q0 54 -11 68.5t-48 16.5v44l184 35h24v-353q0 -81 64 -81q46 0 90 37v233q0 54 -11 68.5t-49 16.5v44l184 35h24v-368z" />
<glyph unicode="&#xfd;" horiz-adv-x="552" d="M336 3q-34 -94 -85 -146t-136 -64l-51 93q76 14 122.5 39.5t71.5 82.5l-57 -5q-18 72 -59 184l-76 209q-13 37 -25.5 50t-40.5 17v46h271v-46q-60 -3 -60 -26q0 -9 6 -25l69 -213q16 -48 20 -86h5q7 37 21 81l68 218q5 17 5 24q0 15 -13.5 20t-48.5 7v46h209v-46 q-30 -4 -43.5 -15.5t-26.5 -46.5zM194 558l-26 35l188 186l78 -125z" />
<glyph unicode="&#xfe;" horiz-adv-x="599" d="M406 241q0 101 -23 141t-71 40q-54 0 -93 -40v-278q32 -38 85 -38q50 0 76 38.5t26 136.5zM219 635v-197q51 83 146 83q92 0 145 -65.5t53 -196.5q0 -135 -62 -202.5t-169 -67.5q-73 0 -113 46v-116q0 -42 12 -55.5t52 -14.5v-45h-273v45q38 1 49.5 14t11.5 56v659 q0 53 -12.5 68t-52.5 17v44l180 27h15q18 -32 18 -99z" />
<glyph unicode="&#xff;" horiz-adv-x="552" d="M336 3q-34 -94 -85 -146t-136 -64l-51 93q76 14 122.5 39.5t71.5 82.5l-57 -5q-18 72 -59 184l-76 209q-13 37 -25.5 50t-40.5 17v46h271v-46q-60 -3 -60 -26q0 -9 6 -25l69 -213q16 -48 20 -86h5q7 37 21 81l68 218q5 17 5 24q0 15 -13.5 20t-48.5 7v46h209v-46 q-30 -4 -43.5 -15.5t-26.5 -46.5zM271 646q0 -33 -24 -56.5t-58 -23.5t-58 23.5t-24 56.5q0 34 24 57.5t59 23.5q34 0 57.5 -23.5t23.5 -57.5zM494 646q0 -33 -24 -56.5t-58 -23.5t-58 23.5t-24 56.5q0 34 24 57.5t59 23.5t58 -23.5t23 -57.5z" />
<glyph unicode="&#x152;" horiz-adv-x="973" d="M210 337q0 -82 14.5 -136.5t44 -83t65 -39.5t86.5 -11h60v558h-64q-100 0 -153 -63t-53 -225zM916 695l12 -169h-74q-17 60 -35.5 79t-68.5 19h-109v-238h61q47 0 63.5 14t19.5 57h66v-209h-66q-3 41 -19.5 56t-62.5 15h-62v-252h124q51 0 72 24t27 92h76v-183h-532 q-171 0 -269 89.5t-98 254.5q0 179 100 265t264 86h511z" />
<glyph unicode="&#x153;" horiz-adv-x="876" d="M680 74q68 0 133 35l24 -41q-82 -80 -209 -80q-54 0 -100 19t-70 51q-62 -71 -172 -71q-118 0 -184.5 70t-66.5 196q0 122 70 195.5t188 73.5q52 0 97.5 -19t73.5 -51q56 70 161 70q221 0 221 -246v-43h-304q2 -85 34 -122t104 -37zM381 266q0 105 -22.5 148.5 t-69.5 43.5q-49 0 -70 -45.5t-21 -161.5q0 -109 20 -155.5t73 -46.5q46 0 68 51.5t22 165.5zM626 460q-39 0 -58.5 -35t-24.5 -124h155q0 90 -16 124.5t-56 34.5z" />
<glyph unicode="&#x178;" horiz-adv-x="654" d="M173 46q46 0 62 14.5t16 56.5v148l-160 318q-18 36 -33 48.5t-43 16.5v47h285v-47q-49 0 -49 -32q0 -14 9 -33l103 -220h5l101 221q9 21 9 35q0 29 -52 29v47h213v-47q-31 -4 -46.5 -16.5t-34.5 -51.5l-151 -313v-150q0 -42 16 -56.5t61 -14.5v-46h-311v46zM315 817 q0 -33 -24 -56.5t-58 -23.5t-58 23.5t-24 56.5q0 34 24 57.5t59 23.5q34 0 57.5 -23.5t23.5 -57.5zM538 817q0 -33 -24 -56.5t-58 -23.5t-58 23.5t-24 56.5q0 34 24 57.5t59 23.5q34 0 57.5 -23.5t23.5 -57.5z" />
<glyph unicode="&#x2c6;" horiz-adv-x="512" d="M256 634l-151 -78l-25 37l176 174l176 -174l-25 -37z" />
<glyph unicode="&#x2dc;" horiz-adv-x="514" d="M324 686q50 0 72 45l38 -16q-14 -57 -44 -93.5t-70 -36.5q-30 0 -73 15.5t-62 15.5q-45 0 -70 -48l-35 16q9 57 38.5 96.5t71.5 39.5q29 0 70.5 -17t63.5 -17z" />
<glyph unicode="&#x3bc;" horiz-adv-x="618" d="M277 -12q-27 0 -47 15l-3 -4q5 -35 5 -74v-107l-145 -29v564q0 54 -11 68.5t-49 16.5v44l184 35h24v-350q0 -82 65 -82q47 0 89 35v233q0 54 -11 68.5t-48 16.5v44l184 35h24v-368q0 -54 11 -68t51 -17v-41l-161 -36h-15q-23 27 -27 77q-24 -43 -52 -59.5t-68 -16.5z" />
<glyph unicode="&#x2013;" horiz-adv-x="582" d="M534 233h-486v95h486v-95z" />
<glyph unicode="&#x2014;" horiz-adv-x="807" d="M759 233h-711v95h711v-95z" />
<glyph unicode="&#x2018;" horiz-adv-x="282" d="M49 519q0 75 45 124.5t131 67.5l30 -40q-102 -30 -102 -78q0 -16 8 -24t29 -16q48 -21 48 -69q0 -34 -25 -58t-63 -24q-44 0 -72.5 33t-28.5 84z" />
<glyph unicode="&#x2019;" horiz-adv-x="282" d="M233 593q0 -75 -45 -124.5t-131 -67.5l-31 40q102 30 102 78q0 16 -8 24t-28 16q-49 21 -49 69q0 34 25.5 58t63.5 24q44 0 72.5 -33t28.5 -84z" />
<glyph unicode="&#x201a;" horiz-adv-x="282" d="M233 43q0 -75 -45 -124.5t-131 -67.5l-31 39q102 31 102 78q0 16 -7.5 24t-28.5 17q-49 21 -49 69q0 34 25.5 58t63.5 24q43 0 72 -33.5t29 -83.5z" />
<glyph unicode="&#x201c;" horiz-adv-x="506" d="M49 519q0 75 45 124.5t131 67.5l30 -40q-102 -30 -102 -78q0 -16 8 -24t29 -16q48 -21 48 -69q0 -34 -25 -58t-63 -24q-44 0 -72.5 33t-28.5 84zM273 519q0 75 45 124.5t131 67.5l30 -40q-102 -30 -102 -78q0 -16 8 -24t29 -16q49 -21 49 -69q0 -34 -25.5 -58t-63.5 -24 q-44 0 -72.5 33t-28.5 84z" />
<glyph unicode="&#x201d;" horiz-adv-x="506" d="M233 593q0 -75 -45 -124.5t-131 -67.5l-31 40q102 30 102 78q0 16 -8 24t-28 16q-49 21 -49 69q0 34 25.5 58t63.5 24q44 0 72.5 -33t28.5 -84zM457 593q0 -75 -45 -124.5t-131 -67.5l-30 40q102 30 102 78q0 16 -8 24t-29 16q-49 21 -49 69q0 34 25.5 58t63.5 24 q44 0 72.5 -33t28.5 -84z" />
<glyph unicode="&#x201e;" horiz-adv-x="506" d="M233 43q0 -75 -45 -124.5t-131 -67.5l-31 39q102 31 102 78q0 16 -7.5 24t-28.5 17q-49 21 -49 69q0 34 25.5 58t63.5 24q43 0 72 -33.5t29 -83.5zM457 43q0 -75 -45 -124.5t-131 -67.5l-30 39q102 32 102 78q0 16 -8 24t-29 17q-49 21 -49 69q0 34 25.5 58t63.5 24 q44 0 72.5 -33.5t28.5 -83.5z" />
<glyph unicode="&#x2022;" horiz-adv-x="517" d="M432 335q0 -73 -51 -125t-123 -52t-122.5 51.5t-50.5 125.5t50.5 125.5t122.5 51.5t123 -52t51 -125z" />
<glyph unicode="&#x2026;" horiz-adv-x="850" d="M796 82q0 -40 -28 -67.5t-66 -27.5t-65 27.5t-27 67.5q0 38 27 65.5t65 27.5t66 -27.5t28 -65.5zM240 82q0 -40 -27.5 -67.5t-65.5 -27.5t-65.5 27.5t-27.5 67.5q0 38 27 65.5t65 27.5q39 0 66.5 -27.5t27.5 -65.5zM518 82q0 -40 -27.5 -67.5t-65.5 -27.5q-39 0 -66 27.5 t-27 67.5q0 38 27 65.5t65 27.5q39 0 66.5 -27.5t27.5 -65.5z" />
<glyph unicode="&#x2039;" horiz-adv-x="369" d="M194 248l113 -179l-53 -46l-209 228l209 228l53 -45z" />
<glyph unicode="&#x203a;" horiz-adv-x="369" d="M176 248l-113 186l52 45l210 -228l-210 -228l-52 46z" />
<glyph unicode="&#x20ac;" horiz-adv-x="666" d="M20 374v56h81q20 138 100.5 207.5t206.5 69.5q132 0 208 -50v-134h-107q-13 63 -33 89t-68 26q-62 0 -96 -47t-42 -161h236v-56h-239v-69h239v-56h-236q9 -111 43.5 -152t94.5 -41q55 0 78 27t33 92h102v-132q-32 -24 -91.5 -39.5t-129.5 -15.5q-127 0 -203 67t-95 194 h-82v56h75v33q0 24 1 36h-76z" />
<glyph unicode="&#x2122;" horiz-adv-x="1136" d="M191 410v238h-13q-48 0 -62.5 -20t-20.5 -85h-45v152h385l8 -152h-44q-12 65 -28.5 85t-57.5 20h-8v-238q0 -46 11 -60.5t58 -15.5v-36h-252v36q47 1 58 15.5t11 60.5zM1050 695v-35q-28 -1 -37.5 -9t-9.5 -27q0 -6 2 -24l15 -193q4 -45 16 -60t43 -17v-32h-219v32 q29 2 39.5 11t10.5 39q0 16 -1 26l-10 126q-1 17 -1 48q0 29 1 39h-5q-9 -43 -24 -88l-76 -233h-79l-76 233q-5 17 -23 88h-6q0 -47 -3 -89l-8 -124q0 -2 -0.5 -9.5t-0.5 -10.5q0 -32 12 -42.5t45 -12.5v-33h-175v33q32 2 45.5 15.5t16.5 58.5l14 196q2 34 -8 46t-45 14v34 h195l66 -201q17 -50 17 -90h5q2 31 19 88l63 203h182z" />
</font>
</defs>
</svg>
